<svg width="25" height="24" viewBox="0 0 25 24" fill="none" xmlns="http://www.w3.org/2000/svg">
    <path d="M20.75 21V19C20.75 17.9391 20.3286 16.9217 19.5784 16.1716C18.8283 15.4214 17.8109 15 16.75 15H8.75C7.68913 15 6.67172 15.4214 5.92157 16.1716C5.17143 16.9217 4.75 17.9391 4.75 19V21" stroke="#54565A" stroke-width="2" stroke-linecap="round" stroke-linejoin="round"/>
    <path d="M20.75 21V19C20.75 17.9391 20.3286 16.9217 19.5784 16.1716C18.8283 15.4214 17.8109 15 16.75 15H8.75C7.68913 15 6.67172 15.4214 5.92157 16.1716C5.17143 16.9217 4.75 17.9391 4.75 19V21" stroke="#FAFAFA" stroke-width="2" stroke-linecap="round" stroke-linejoin="round" style="mix-blend-mode:hard-light"/>
    <path d="M20.75 21V19C20.75 17.9391 20.3286 16.9217 19.5784 16.1716C18.8283 15.4214 17.8109 15 16.75 15H8.75C7.68913 15 6.67172 15.4214 5.92157 16.1716C5.17143 16.9217 4.75 17.9391 4.75 19V21" stroke="#7E7E7E" stroke-opacity="0.5" stroke-width="2" stroke-linecap="round" stroke-linejoin="round" style="mix-blend-mode:overlay"/>
    <path d="M12.75 11C14.9591 11 16.75 9.20914 16.75 7C16.75 4.79086 14.9591 3 12.75 3C10.5409 3 8.75 4.79086 8.75 7C8.75 9.20914 10.5409 11 12.75 11Z" stroke="#54565A" stroke-width="2" stroke-linecap="round" stroke-linejoin="round"/>
    <path d="M12.75 11C14.9591 11 16.75 9.20914 16.75 7C16.75 4.79086 14.9591 3 12.75 3C10.5409 3 8.75 4.79086 8.75 7C8.75 9.20914 10.5409 11 12.75 11Z" stroke="#FAFAFA" stroke-width="2" stroke-linecap="round" stroke-linejoin="round" style="mix-blend-mode:hard-light"/>
    <path d="M12.75 11C14.9591 11 16.75 9.20914 16.75 7C16.75 4.79086 14.9591 3 12.75 3C10.5409 3 8.75 4.79086 8.75 7C8.75 9.20914 10.5409 11 12.75 11Z" stroke="#7E7E7E" stroke-opacity="0.5" stroke-width="2" stroke-linecap="round" stroke-linejoin="round" style="mix-blend-mode:overlay"/>
</svg>
