<svg width="48" height="49" viewBox="0 0 48 49" fill="none" xmlns="http://www.w3.org/2000/svg">
    <path d="M45.22 34.4C45.8644 32.8786 46.1217 31.2213 45.9691 29.5761C45.8164 27.9309 45.2585 26.3492 44.3452 24.9724C43.432 23.5955 42.1917 22.4664 40.7355 21.6859C39.2792 20.9055 37.6522 20.498 36 20.5H33.48C32.6636 17.285 30.8681 14.4032 28.3421 12.2533C25.816 10.1035 22.6842 8.79186 19.38 8.5M10 10.5C6.87615 12.2273 4.41962 14.9496 3.02118 18.2338C1.62273 21.5181 1.3627 25.1756 2.28245 28.6247C3.2022 32.0737 5.2489 35.1162 8.09696 37.268C10.945 39.4199 14.4309 40.5575 18 40.5H36C37.1595 40.4986 38.31 40.2956 39.4 39.9" stroke="#0097DB" stroke-width="3" stroke-linecap="round" stroke-linejoin="round"/>
    <path d="M45.22 34.4C45.8644 32.8786 46.1217 31.2213 45.9691 29.5761C45.8164 27.9309 45.2585 26.3492 44.3452 24.9724C43.432 23.5955 42.1917 22.4664 40.7355 21.6859C39.2792 20.9055 37.6522 20.498 36 20.5H33.48C32.6636 17.285 30.8681 14.4032 28.3421 12.2533C25.816 10.1035 22.6842 8.79186 19.38 8.5M10 10.5C6.87615 12.2273 4.41962 14.9496 3.02118 18.2338C1.62273 21.5181 1.3627 25.1756 2.28245 28.6247C3.2022 32.0737 5.2489 35.1162 8.09696 37.268C10.945 39.4199 14.4309 40.5575 18 40.5H36C37.1595 40.4986 38.31 40.2956 39.4 39.9" stroke="#4D4D4D" stroke-width="3" stroke-linecap="round" stroke-linejoin="round" style="mix-blend-mode:hard-light"/>
    <path d="M45.22 34.4C45.8644 32.8786 46.1217 31.2213 45.9691 29.5761C45.8164 27.9309 45.2585 26.3492 44.3452 24.9724C43.432 23.5955 42.1917 22.4664 40.7355 21.6859C39.2792 20.9055 37.6522 20.498 36 20.5H33.48C32.6636 17.285 30.8681 14.4032 28.3421 12.2533C25.816 10.1035 22.6842 8.79186 19.38 8.5M10 10.5C6.87615 12.2273 4.41962 14.9496 3.02118 18.2338C1.62273 21.5181 1.3627 25.1756 2.28245 28.6247C3.2022 32.0737 5.2489 35.1162 8.09696 37.268C10.945 39.4199 14.4309 40.5575 18 40.5H36C37.1595 40.4986 38.31 40.2956 39.4 39.9" stroke="black" stroke-opacity="0.5" stroke-width="3" stroke-linecap="round" stroke-linejoin="round" style="mix-blend-mode:screen"/>
    <path d="M2 2.5L46 46.5" stroke="#0097DB" stroke-width="3" stroke-linecap="round" stroke-linejoin="round"/>
    <path d="M2 2.5L46 46.5" stroke="#4D4D4D" stroke-width="3" stroke-linecap="round" stroke-linejoin="round" style="mix-blend-mode:hard-light"/>
    <path d="M2 2.5L46 46.5" stroke="black" stroke-opacity="0.5" stroke-width="3" stroke-linecap="round" stroke-linejoin="round" style="mix-blend-mode:screen"/>
</svg>
