<svg width="48" height="49" viewBox="0 0 48 49" fill="none" xmlns="http://www.w3.org/2000/svg">
    <path d="M24 44.5C35.0457 44.5 44 35.5457 44 24.5C44 13.4543 35.0457 4.5 24 4.5C12.9543 4.5 4 13.4543 4 24.5C4 35.5457 12.9543 44.5 24 44.5Z" stroke="#0097DB" stroke-width="3" stroke-linecap="round" stroke-linejoin="round"/>
    <path d="M24 44.5C35.0457 44.5 44 35.5457 44 24.5C44 13.4543 35.0457 4.5 24 4.5C12.9543 4.5 4 13.4543 4 24.5C4 35.5457 12.9543 44.5 24 44.5Z" stroke="#4D4D4D" stroke-width="3" stroke-linecap="round" stroke-linejoin="round" style="mix-blend-mode:hard-light"/>
    <path d="M24 44.5C35.0457 44.5 44 35.5457 44 24.5C44 13.4543 35.0457 4.5 24 4.5C12.9543 4.5 4 13.4543 4 24.5C4 35.5457 12.9543 44.5 24 44.5Z" stroke="black" stroke-opacity="0.5" stroke-width="3" stroke-linecap="round" stroke-linejoin="round" style="mix-blend-mode:screen"/>
    <path d="M32 24.5L24 16.5L16 24.5" stroke="#0097DB" stroke-width="3" stroke-linecap="round" stroke-linejoin="round"/>
    <path d="M32 24.5L24 16.5L16 24.5" stroke="#4D4D4D" stroke-width="3" stroke-linecap="round" stroke-linejoin="round" style="mix-blend-mode:hard-light"/>
    <path d="M32 24.5L24 16.5L16 24.5" stroke="black" stroke-opacity="0.5" stroke-width="3" stroke-linecap="round" stroke-linejoin="round" style="mix-blend-mode:screen"/>
    <path d="M24 32.5V16.5" stroke="#0097DB" stroke-width="3" stroke-linecap="round" stroke-linejoin="round"/>
    <path d="M24 32.5V16.5" stroke="#4D4D4D" stroke-width="3" stroke-linecap="round" stroke-linejoin="round" style="mix-blend-mode:hard-light"/>
    <path d="M24 32.5V16.5" stroke="black" stroke-opacity="0.5" stroke-width="3" stroke-linecap="round" stroke-linejoin="round" style="mix-blend-mode:screen"/>
</svg>
