<svg width="32" height="32" viewBox="0 0 32 32" fill="none" xmlns="http://www.w3.org/2000/svg">
    <path d="M16 20C21.1547 20 25.3333 15.8213 25.3333 10.6667C25.3333 5.512 21.1547 1.33333 16 1.33333C10.8453 1.33333 6.66667 5.512 6.66667 10.6667C6.66667 15.8213 10.8453 20 16 20Z" stroke="#00D0FF" stroke-width="2" stroke-linecap="round" stroke-linejoin="round"/>
    <path d="M16 20C21.1547 20 25.3333 15.8213 25.3333 10.6667C25.3333 5.512 21.1547 1.33333 16 1.33333C10.8453 1.33333 6.66667 5.512 6.66667 10.6667C6.66667 15.8213 10.8453 20 16 20Z" stroke="#6B6B6B" stroke-width="2" stroke-linecap="round" stroke-linejoin="round" style="mix-blend-mode:hard-light"/>
    <path d="M16 20C21.1547 20 25.3333 15.8213 25.3333 10.6667C25.3333 5.512 21.1547 1.33333 16 1.33333C10.8453 1.33333 6.66667 5.512 6.66667 10.6667C6.66667 15.8213 10.8453 20 16 20Z" stroke="black" stroke-opacity="0.5" stroke-width="2" stroke-linecap="round" stroke-linejoin="round" style="mix-blend-mode:screen"/>
    <path d="M10.9467 18.52L9.33333 30.6667L16 26.6667L22.6667 30.6667L21.0533 18.5067" stroke="#00D0FF" stroke-width="2" stroke-linecap="round" stroke-linejoin="round"/>
    <path d="M10.9467 18.52L9.33333 30.6667L16 26.6667L22.6667 30.6667L21.0533 18.5067" stroke="#6B6B6B" stroke-width="2" stroke-linecap="round" stroke-linejoin="round" style="mix-blend-mode:hard-light"/>
    <path d="M10.9467 18.52L9.33333 30.6667L16 26.6667L22.6667 30.6667L21.0533 18.5067" stroke="black" stroke-opacity="0.5" stroke-width="2" stroke-linecap="round" stroke-linejoin="round" style="mix-blend-mode:screen"/>
</svg>
