<svg width="32" height="32" viewBox="0 0 32 32" fill="none" xmlns="http://www.w3.org/2000/svg">
    <path d="M29.3334 14.7733V16C29.3318 18.8752 28.4008 21.6729 26.6792 23.9758C24.9576 26.2786 22.5378 27.9633 19.7806 28.7785C17.0233 29.5938 14.0764 29.4959 11.3794 28.4994C8.68232 27.503 6.37962 25.6615 4.8147 23.2494C3.24977 20.8374 2.50647 17.9841 2.69565 15.1151C2.88483 12.2461 3.99636 9.5151 5.86445 7.32943C7.73255 5.14376 10.2571 3.62051 13.0617 2.98686C15.8662 2.35321 18.8004 2.64312 21.4268 3.81333" stroke="#0FBD91" stroke-width="2" stroke-linecap="round" stroke-linejoin="round"/>
    <path d="M29.3334 14.7733V16C29.3318 18.8752 28.4008 21.6729 26.6792 23.9758C24.9576 26.2786 22.5378 27.9633 19.7806 28.7785C17.0233 29.5938 14.0764 29.4959 11.3794 28.4994C8.68232 27.503 6.37962 25.6615 4.8147 23.2494C3.24977 20.8374 2.50647 17.9841 2.69565 15.1151C2.88483 12.2461 3.99636 9.5151 5.86445 7.32943C7.73255 5.14376 10.2571 3.62051 13.0617 2.98686C15.8662 2.35321 18.8004 2.64312 21.4268 3.81333" stroke="#6B6B6B" stroke-width="2" stroke-linecap="round" stroke-linejoin="round" style="mix-blend-mode:hard-light"/>
    <path d="M29.3334 14.7733V16C29.3318 18.8752 28.4008 21.6729 26.6792 23.9758C24.9576 26.2786 22.5378 27.9633 19.7806 28.7785C17.0233 29.5938 14.0764 29.4959 11.3794 28.4994C8.68232 27.503 6.37962 25.6615 4.8147 23.2494C3.24977 20.8374 2.50647 17.9841 2.69565 15.1151C2.88483 12.2461 3.99636 9.5151 5.86445 7.32943C7.73255 5.14376 10.2571 3.62051 13.0617 2.98686C15.8662 2.35321 18.8004 2.64312 21.4268 3.81333" stroke="black" stroke-opacity="0.5" stroke-width="2" stroke-linecap="round" stroke-linejoin="round" style="mix-blend-mode:screen"/>
    <path d="M29.3333 5.33334L16 18.68L12 14.68" stroke="#0FBD91" stroke-width="2" stroke-linecap="round" stroke-linejoin="round"/>
    <path d="M29.3333 5.33334L16 18.68L12 14.68" stroke="#6B6B6B" stroke-width="2" stroke-linecap="round" stroke-linejoin="round" style="mix-blend-mode:hard-light"/>
    <path d="M29.3333 5.33334L16 18.68L12 14.68" stroke="black" stroke-opacity="0.5" stroke-width="2" stroke-linecap="round" stroke-linejoin="round" style="mix-blend-mode:screen"/>
</svg>
