<svg width="32" height="32" viewBox="0 0 32 32" fill="none" xmlns="http://www.w3.org/2000/svg">
    <g clip-path="url(#clip0_1267_2523)">
        <path d="M16 29.3333C23.3638 29.3333 29.3333 23.3638 29.3333 16C29.3333 8.6362 23.3638 2.66666 16 2.66666C8.63616 2.66666 2.66663 8.6362 2.66663 16C2.66663 23.3638 8.63616 29.3333 16 29.3333Z" stroke="#DF2020" stroke-width="2" stroke-linecap="round" stroke-linejoin="round"/>
        <path d="M16 29.3333C23.3638 29.3333 29.3333 23.3638 29.3333 16C29.3333 8.6362 23.3638 2.66666 16 2.66666C8.63616 2.66666 2.66663 8.6362 2.66663 16C2.66663 23.3638 8.63616 29.3333 16 29.3333Z" stroke="#6B6B6B" stroke-width="2" stroke-linecap="round" stroke-linejoin="round" style="mix-blend-mode:hard-light"/>
        <path d="M16 29.3333C23.3638 29.3333 29.3333 23.3638 29.3333 16C29.3333 8.6362 23.3638 2.66666 16 2.66666C8.63616 2.66666 2.66663 8.6362 2.66663 16C2.66663 23.3638 8.63616 29.3333 16 29.3333Z" stroke="#3DB0E4" stroke-opacity="0.2" stroke-width="2" stroke-linecap="round" stroke-linejoin="round" style="mix-blend-mode:screen"/>
        <path d="M16 10.6667V16" stroke="#DF2020" stroke-width="2" stroke-linecap="round" stroke-linejoin="round"/>
        <path d="M16 10.6667V16" stroke="#6B6B6B" stroke-width="2" stroke-linecap="round" stroke-linejoin="round" style="mix-blend-mode:hard-light"/>
        <path d="M16 10.6667V16" stroke="#3DB0E4" stroke-opacity="0.2" stroke-width="2" stroke-linecap="round" stroke-linejoin="round" style="mix-blend-mode:screen"/>
        <path d="M16 21.3333H16.0133" stroke="#DF2020" stroke-width="2" stroke-linecap="round" stroke-linejoin="round"/>
        <path d="M16 21.3333H16.0133" stroke="#6B6B6B" stroke-width="2" stroke-linecap="round" stroke-linejoin="round" style="mix-blend-mode:hard-light"/>
        <path d="M16 21.3333H16.0133" stroke="#3DB0E4" stroke-opacity="0.2" stroke-width="2" stroke-linecap="round" stroke-linejoin="round" style="mix-blend-mode:screen"/>
    </g>
    <defs>
        <clipPath id="clip0_1267_2523">
            <rect width="32" height="32" fill="white"/>
        </clipPath>
    </defs>
</svg>
