<svg width="24" height="24" viewBox="0 0 24 24" fill="none" xmlns="http://www.w3.org/2000/svg">
    <path d="M12 13.3818L12.669 14.1251L13 13.8272V13.3818H12ZM19.7273 13.0909C19.7273 17.3586 16.2677 20.8182 12 20.8182V22.8182C17.3722 22.8182 21.7273 18.4631 21.7273 13.0909H19.7273ZM12 20.8182C7.73235 20.8182 4.27273 17.3586 4.27273 13.0909H2.27273C2.27273 18.4631 6.62778 22.8182 12 22.8182V20.8182ZM4.27273 13.0909C4.27273 8.82326 7.73235 5.36364 12 5.36364V3.36364C6.62778 3.36364 2.27273 7.71869 2.27273 13.0909H4.27273ZM12 5.36364C16.2677 5.36364 19.7273 8.82326 19.7273 13.0909H21.7273C21.7273 7.71869 17.3722 3.36364 12 3.36364V5.36364ZM11 7.27273V13.3818H13V7.27273H11ZM11.331 12.6385L8.42195 15.2567L9.75988 16.7433L12.669 14.1251L11.331 12.6385ZM4.74744 1.47472L0.383805 5.83835L1.79802 7.25257L6.16165 2.88893L4.74744 1.47472ZM17.8383 2.88893L22.202 7.25257L23.6162 5.83835L19.2526 1.47472L17.8383 2.88893Z" fill="#8C8C8C"/>
    <path d="M12 13.3818L12.669 14.1251L13 13.8272V13.3818H12ZM19.7273 13.0909C19.7273 17.3586 16.2677 20.8182 12 20.8182V22.8182C17.3722 22.8182 21.7273 18.4631 21.7273 13.0909H19.7273ZM12 20.8182C7.73235 20.8182 4.27273 17.3586 4.27273 13.0909H2.27273C2.27273 18.4631 6.62778 22.8182 12 22.8182V20.8182ZM4.27273 13.0909C4.27273 8.82326 7.73235 5.36364 12 5.36364V3.36364C6.62778 3.36364 2.27273 7.71869 2.27273 13.0909H4.27273ZM12 5.36364C16.2677 5.36364 19.7273 8.82326 19.7273 13.0909H21.7273C21.7273 7.71869 17.3722 3.36364 12 3.36364V5.36364ZM11 7.27273V13.3818H13V7.27273H11ZM11.331 12.6385L8.42195 15.2567L9.75988 16.7433L12.669 14.1251L11.331 12.6385ZM4.74744 1.47472L0.383805 5.83835L1.79802 7.25257L6.16165 2.88893L4.74744 1.47472ZM17.8383 2.88893L22.202 7.25257L23.6162 5.83835L19.2526 1.47472L17.8383 2.88893Z" fill="#2E2E2E" style="mix-blend-mode:hard-light"/>
    <path d="M12 13.3818L12.669 14.1251L13 13.8272V13.3818H12ZM19.7273 13.0909C19.7273 17.3586 16.2677 20.8182 12 20.8182V22.8182C17.3722 22.8182 21.7273 18.4631 21.7273 13.0909H19.7273ZM12 20.8182C7.73235 20.8182 4.27273 17.3586 4.27273 13.0909H2.27273C2.27273 18.4631 6.62778 22.8182 12 22.8182V20.8182ZM4.27273 13.0909C4.27273 8.82326 7.73235 5.36364 12 5.36364V3.36364C6.62778 3.36364 2.27273 7.71869 2.27273 13.0909H4.27273ZM12 5.36364C16.2677 5.36364 19.7273 8.82326 19.7273 13.0909H21.7273C21.7273 7.71869 17.3722 3.36364 12 3.36364V5.36364ZM11 7.27273V13.3818H13V7.27273H11ZM11.331 12.6385L8.42195 15.2567L9.75988 16.7433L12.669 14.1251L11.331 12.6385ZM4.74744 1.47472L0.383805 5.83835L1.79802 7.25257L6.16165 2.88893L4.74744 1.47472ZM17.8383 2.88893L22.202 7.25257L23.6162 5.83835L19.2526 1.47472L17.8383 2.88893Z" fill="#3DB0E4" fill-opacity="0.2" style="mix-blend-mode:screen"/>
</svg>
