<svg width="24" height="25" viewBox="0 0 24 25" fill="none" xmlns="http://www.w3.org/2000/svg">
    <g clip-path="url(#clip0_4677_7393)">
        <path d="M10.29 4.3602L1.81999 18.5002C1.64536 18.8026 1.55296 19.1455 1.55198 19.4947C1.551 19.8439 1.64148 20.1873 1.81442 20.4907C1.98735 20.7941 2.23672 21.047 2.5377 21.2241C2.83868 21.4012 3.18079 21.4964 3.52999 21.5002H20.47C20.8192 21.4964 21.1613 21.4012 21.4623 21.2241C21.7633 21.047 22.0126 20.7941 22.1856 20.4907C22.3585 20.1873 22.449 19.8439 22.448 19.4947C22.447 19.1455 22.3546 18.8026 22.18 18.5002L13.71 4.3602C13.5317 4.06631 13.2807 3.82332 12.9812 3.65469C12.6817 3.48605 12.3437 3.39746 12 3.39746C11.6563 3.39746 11.3183 3.48605 11.0188 3.65469C10.7193 3.82332 10.4683 4.06631 10.29 4.3602V4.3602Z" stroke="#8C8C8C" stroke-width="2" stroke-linecap="round" stroke-linejoin="round"/>
        <path d="M10.29 4.3602L1.81999 18.5002C1.64536 18.8026 1.55296 19.1455 1.55198 19.4947C1.551 19.8439 1.64148 20.1873 1.81442 20.4907C1.98735 20.7941 2.23672 21.047 2.5377 21.2241C2.83868 21.4012 3.18079 21.4964 3.52999 21.5002H20.47C20.8192 21.4964 21.1613 21.4012 21.4623 21.2241C21.7633 21.047 22.0126 20.7941 22.1856 20.4907C22.3585 20.1873 22.449 19.8439 22.448 19.4947C22.447 19.1455 22.3546 18.8026 22.18 18.5002L13.71 4.3602C13.5317 4.06631 13.2807 3.82332 12.9812 3.65469C12.6817 3.48605 12.3437 3.39746 12 3.39746C11.6563 3.39746 11.3183 3.48605 11.0188 3.65469C10.7193 3.82332 10.4683 4.06631 10.29 4.3602V4.3602Z" stroke="#2E2E2E" stroke-width="2" stroke-linecap="round" stroke-linejoin="round" style="mix-blend-mode:hard-light"/>
        <path d="M10.29 4.3602L1.81999 18.5002C1.64536 18.8026 1.55296 19.1455 1.55198 19.4947C1.551 19.8439 1.64148 20.1873 1.81442 20.4907C1.98735 20.7941 2.23672 21.047 2.5377 21.2241C2.83868 21.4012 3.18079 21.4964 3.52999 21.5002H20.47C20.8192 21.4964 21.1613 21.4012 21.4623 21.2241C21.7633 21.047 22.0126 20.7941 22.1856 20.4907C22.3585 20.1873 22.449 19.8439 22.448 19.4947C22.447 19.1455 22.3546 18.8026 22.18 18.5002L13.71 4.3602C13.5317 4.06631 13.2807 3.82332 12.9812 3.65469C12.6817 3.48605 12.3437 3.39746 12 3.39746C11.6563 3.39746 11.3183 3.48605 11.0188 3.65469C10.7193 3.82332 10.4683 4.06631 10.29 4.3602V4.3602Z" stroke="#3DB0E4" stroke-opacity="0.2" stroke-width="2" stroke-linecap="round" stroke-linejoin="round" style="mix-blend-mode:screen"/>
        <path d="M12 17.5H12.01" stroke="#8C8C8C" stroke-width="2" stroke-linecap="round" stroke-linejoin="round"/>
        <path d="M12 17.5H12.01" stroke="#2E2E2E" stroke-width="2" stroke-linecap="round" stroke-linejoin="round" style="mix-blend-mode:hard-light"/>
        <path d="M12 17.5H12.01" stroke="#3DB0E4" stroke-opacity="0.2" stroke-width="2" stroke-linecap="round" stroke-linejoin="round" style="mix-blend-mode:screen"/>
        <path d="M12 9.5V13.5" stroke="#8C8C8C" stroke-width="2" stroke-linecap="round" stroke-linejoin="round"/>
        <path d="M12 9.5V13.5" stroke="#2E2E2E" stroke-width="2" stroke-linecap="round" stroke-linejoin="round" style="mix-blend-mode:hard-light"/>
        <path d="M12 9.5V13.5" stroke="#3DB0E4" stroke-opacity="0.2" stroke-width="2" stroke-linecap="round" stroke-linejoin="round" style="mix-blend-mode:screen"/>
    </g>
    <defs>
        <clipPath id="clip0_4677_7393">
            <rect width="24" height="24" fill="white" transform="translate(0 0.5)"/>
        </clipPath>
    </defs>
</svg>
