<svg width="32" height="32" viewBox="0 0 32 32" fill="none" xmlns="http://www.w3.org/2000/svg">
    <path d="M16 29.3333C23.3638 29.3333 29.3333 23.3638 29.3333 16C29.3333 8.63616 23.3638 2.66663 16 2.66663C8.63619 2.66663 2.66666 8.63616 2.66666 16C2.66666 23.3638 8.63619 29.3333 16 29.3333Z" stroke="#8C8C8C" stroke-width="2" stroke-linecap="round" stroke-linejoin="round"/>
    <path d="M16 29.3333C23.3638 29.3333 29.3333 23.3638 29.3333 16C29.3333 8.63616 23.3638 2.66663 16 2.66663C8.63619 2.66663 2.66666 8.63616 2.66666 16C2.66666 23.3638 8.63619 29.3333 16 29.3333Z" stroke="#6B6B6B" stroke-width="2" stroke-linecap="round" stroke-linejoin="round" style="mix-blend-mode:hard-light"/>
    <path d="M16 29.3333C23.3638 29.3333 29.3333 23.3638 29.3333 16C29.3333 8.63616 23.3638 2.66663 16 2.66663C8.63619 2.66663 2.66666 8.63616 2.66666 16C2.66666 23.3638 8.63619 29.3333 16 29.3333Z" stroke="#3DB0E4" stroke-opacity="0.2" stroke-width="2" stroke-linecap="round" stroke-linejoin="round" style="mix-blend-mode:screen"/>
</svg>
