<svg width="565" height="879" fill="none" xmlns="http://www.w3.org/2000/svg"><path d="M283.674 291.424C315.919 268.817 337 231.37 337 189c0-69.036-55.964-125-125-125S87 119.964 87 189c0 43.111 21.824 81.124 55.026 103.595l16.474 10.224m185.57 0C370.81 272.088 387 231.935 387 188c0-96.65-78.35-175-175-175S37 91.35 37 188c0 71.771 43.206 133.452 105.026 160.45L153 353.5" stroke="#000" stroke-width="25"/><path d="M564.925 493.576v149.93c0 31.529-15.153 73.176-28.518 109.882-8.706 23.859-18.541 50.918-18.541 61.647v40.236c0 12.988-10.541 23.529-23.529 23.529-12.989 0-23.53-10.541-23.53-23.529v-40.236c0-19.011 9.459-44.941 21.365-77.741 12.047-33.035 25.694-70.494 25.694-93.741V493.576c0-13.647-11.106-25.176-24.282-25.176-13.742 0-21.365 12.329-21.789 24.471-.423 12.8-9.835 23.858-23.906 22.682-12.8-.235-23.105-10.729-23.105-23.529v-73.506c0-13.93-10.683-25.271-23.765-25.271-12.424 0-22.777 10.353-23.624 23.529-.8 12.706-10.729 22.824-24.235 22.024-12.706-.424-22.776-10.824-22.776-23.529v-59.624c0-13.882-10.542-25.176-23.53-25.176-12.188 0-22.917 9.505-24.517 21.694-1.6 12.235-12.33 21.694-24.847 20.423-12.377-.8-22.024-11.059-22.024-23.482V178.235c0-13.882-10.682-25.176-23.765-25.176-13.082 0-23.764 11.294-23.764 25.176v290.824c0 9.694-5.93 18.4-14.965 21.929-8.988 3.53-19.294 1.13-25.883-5.976l-52.423-56.988c-21.6-21.742-28.565-17.6-35.2-13.506-11.577 6.87-15.577 22.776-8.847 34.823l154.729 334.024c2.494 4.282 7.765 8.376 13.977 9.929 10.494 2.682 17.788 12.047 17.788 22.824v39.153c0 12.988-10.541 23.529-23.529 23.529-12.989 0-23.53-10.541-23.53-23.529v-23.483c-10.964-6.306-20.094-15.529-26.588-27.012L8.784 470.753C-9.71 438.094 1.866 394 35.372 374.094c45.176-27.059 80.141 8.141 93.27 21.365l12.236 13.27V178.235c0-39.859 31.812-72.235 70.823-72.235 39.012 0 70.824 32.376 70.824 72.235v109.412a72.051 72.051 0 0 1 24.329-4.235c37.224 0 67.765 29.6 70.4 67.012 7.436-2.777 15.436-4.236 23.765-4.236 39.059 0 70.823 32.424 70.823 72.33v6.4c6.824-2.306 14.118-3.53 21.789-3.53 39.294-.047 71.294 32.377 71.294 72.188z" fill="#000"/></svg>