<svg width="32" height="33" viewBox="0 0 32 33" fill="none" xmlns="http://www.w3.org/2000/svg">
    <path d="M17.3333 3.16666H8.00001C7.29277 3.16666 6.61449 3.44761 6.11439 3.9477C5.61429 4.4478 5.33334 5.12608 5.33334 5.83332V27.1667C5.33334 27.8739 5.61429 28.5522 6.11439 29.0523C6.61449 29.5524 7.29277 29.8333 8.00001 29.8333H24C24.7073 29.8333 25.3855 29.5524 25.8856 29.0523C26.3857 28.5522 26.6667 27.8739 26.6667 27.1667V12.5L17.3333 3.16666Z" stroke="#8C8C8C" stroke-width="2" stroke-linecap="round" stroke-linejoin="round"/>
    <path d="M17.3333 3.16666H8.00001C7.29277 3.16666 6.61449 3.44761 6.11439 3.9477C5.61429 4.4478 5.33334 5.12608 5.33334 5.83332V27.1667C5.33334 27.8739 5.61429 28.5522 6.11439 29.0523C6.61449 29.5524 7.29277 29.8333 8.00001 29.8333H24C24.7073 29.8333 25.3855 29.5524 25.8856 29.0523C26.3857 28.5522 26.6667 27.8739 26.6667 27.1667V12.5L17.3333 3.16666Z" stroke="#6B6B6B" stroke-width="2" stroke-linecap="round" stroke-linejoin="round" style="mix-blend-mode:hard-light"/>
    <path d="M17.3333 3.16666H8.00001C7.29277 3.16666 6.61449 3.44761 6.11439 3.9477C5.61429 4.4478 5.33334 5.12608 5.33334 5.83332V27.1667C5.33334 27.8739 5.61429 28.5522 6.11439 29.0523C6.61449 29.5524 7.29277 29.8333 8.00001 29.8333H24C24.7073 29.8333 25.3855 29.5524 25.8856 29.0523C26.3857 28.5522 26.6667 27.8739 26.6667 27.1667V12.5L17.3333 3.16666Z" stroke="#3DB0E4" stroke-opacity="0.2" stroke-width="2" stroke-linecap="round" stroke-linejoin="round" style="mix-blend-mode:screen"/>
    <path d="M17.3333 3.16666V12.5H26.6667" stroke="#8C8C8C" stroke-width="2" stroke-linecap="round" stroke-linejoin="round"/>
    <path d="M17.3333 3.16666V12.5H26.6667" stroke="#6B6B6B" stroke-width="2" stroke-linecap="round" stroke-linejoin="round" style="mix-blend-mode:hard-light"/>
    <path d="M17.3333 3.16666V12.5H26.6667" stroke="#3DB0E4" stroke-opacity="0.2" stroke-width="2" stroke-linecap="round" stroke-linejoin="round" style="mix-blend-mode:screen"/>
</svg>
