<svg width="64" height="64" viewBox="0 0 64 64" fill="none" xmlns="http://www.w3.org/2000/svg">
    <path d="M40 23.9999L24 39.9999M24 23.9999L40 39.9999M58.6666 31.9999C58.6666 46.7275 46.7276 58.6666 32 58.6666C17.2724 58.6666 5.33331 46.7275 5.33331 31.9999C5.33331 17.2723 17.2724 5.33325 32 5.33325C46.7276 5.33325 58.6666 17.2723 58.6666 31.9999Z" stroke="#DF2020" stroke-width="2" stroke-linecap="round" stroke-linejoin="round"/>
    <path d="M40 23.9999L24 39.9999M24 23.9999L40 39.9999M58.6666 31.9999C58.6666 46.7275 46.7276 58.6666 32 58.6666C17.2724 58.6666 5.33331 46.7275 5.33331 31.9999C5.33331 17.2723 17.2724 5.33325 32 5.33325C46.7276 5.33325 58.6666 17.2723 58.6666 31.9999Z" stroke="#6B6B6B" stroke-width="2" stroke-linecap="round" stroke-linejoin="round" style="mix-blend-mode:hard-light"/>
    <path d="M40 23.9999L24 39.9999M24 23.9999L40 39.9999M58.6666 31.9999C58.6666 46.7275 46.7276 58.6666 32 58.6666C17.2724 58.6666 5.33331 46.7275 5.33331 31.9999C5.33331 17.2723 17.2724 5.33325 32 5.33325C46.7276 5.33325 58.6666 17.2723 58.6666 31.9999Z" stroke="#3DB0E4" stroke-opacity="0.2" stroke-width="2" stroke-linecap="round" stroke-linejoin="round" style="mix-blend-mode:screen"/>
</svg>
