<svg width="32" height="32" viewBox="0 0 32 32" fill="none" xmlns="http://www.w3.org/2000/svg">
    <path d="M20 12.0001L12 20.0001M12 12.0001L20 20.0001M29.3333 16.0001C29.3333 23.3639 23.3638 29.3334 16 29.3334C8.63619 29.3334 2.66666 23.3639 2.66666 16.0001C2.66666 8.63628 8.63619 2.66675 16 2.66675C23.3638 2.66675 29.3333 8.63628 29.3333 16.0001Z" stroke="#DF2020" stroke-width="2" stroke-linecap="round" stroke-linejoin="round"/>
    <path d="M20 12.0001L12 20.0001M12 12.0001L20 20.0001M29.3333 16.0001C29.3333 23.3639 23.3638 29.3334 16 29.3334C8.63619 29.3334 2.66666 23.3639 2.66666 16.0001C2.66666 8.63628 8.63619 2.66675 16 2.66675C23.3638 2.66675 29.3333 8.63628 29.3333 16.0001Z" stroke="#6B6B6B" stroke-width="2" stroke-linecap="round" stroke-linejoin="round" style="mix-blend-mode:hard-light"/>
    <path d="M20 12.0001L12 20.0001M12 12.0001L20 20.0001M29.3333 16.0001C29.3333 23.3639 23.3638 29.3334 16 29.3334C8.63619 29.3334 2.66666 23.3639 2.66666 16.0001C2.66666 8.63628 8.63619 2.66675 16 2.66675C23.3638 2.66675 29.3333 8.63628 29.3333 16.0001Z" stroke="#3DB0E4" stroke-opacity="0.2" stroke-width="2" stroke-linecap="round" stroke-linejoin="round" style="mix-blend-mode:screen"/>
</svg>
