<svg width="116" height="115" viewBox="0 0 116 115" fill="none" xmlns="http://www.w3.org/2000/svg">
    <path d="M111.333 52.5934V57.5001C111.327 69.001 107.603 80.1917 100.716 89.4032C93.8302 98.6146 84.1508 105.353 73.1219 108.614C62.0929 111.875 50.3054 111.484 39.5171 107.498C28.7289 103.512 19.5181 96.146 13.2584 86.4978C6.99873 76.8496 4.02553 65.4364 4.78225 53.9604C5.53897 42.4844 9.98508 31.5605 17.4575 22.8178C24.9299 14.0751 35.0282 7.98213 46.2463 5.44754C57.4645 2.91294 69.2014 4.07255 79.7067 8.75343" stroke="#8C8C8C" stroke-width="8" stroke-linecap="round" stroke-linejoin="round"/>
    <path d="M111.333 52.5934V57.5001C111.327 69.001 107.603 80.1917 100.716 89.4032C93.8302 98.6146 84.1508 105.353 73.1219 108.614C62.0929 111.875 50.3054 111.484 39.5171 107.498C28.7289 103.512 19.5181 96.146 13.2584 86.4978C6.99873 76.8496 4.02553 65.4364 4.78225 53.9604C5.53897 42.4844 9.98508 31.5605 17.4575 22.8178C24.9299 14.0751 35.0282 7.98213 46.2463 5.44754C57.4645 2.91294 69.2014 4.07255 79.7067 8.75343" stroke="#FAFAFA" stroke-width="8" stroke-linecap="round" stroke-linejoin="round" style="mix-blend-mode:hard-light"/>
    <path d="M111.333 52.5934V57.5001C111.327 69.001 107.603 80.1917 100.716 89.4032C93.8302 98.6146 84.1508 105.353 73.1219 108.614C62.0929 111.875 50.3054 111.484 39.5171 107.498C28.7289 103.512 19.5181 96.146 13.2584 86.4978C6.99873 76.8496 4.02553 65.4364 4.78225 53.9604C5.53897 42.4844 9.98508 31.5605 17.4575 22.8178C24.9299 14.0751 35.0282 7.98213 46.2463 5.44754C57.4645 2.91294 69.2014 4.07255 79.7067 8.75343" stroke="#0F3D26" stroke-opacity="0.25" stroke-width="8" stroke-linecap="round" stroke-linejoin="round" style="mix-blend-mode:screen"/>
</svg>
