<svg width="32" height="33" viewBox="0 0 32 33" fill="none" xmlns="http://www.w3.org/2000/svg">
    <path d="M25.3333 4.5H6.66667C5.19391 4.5 4 5.69391 4 7.16667V25.8333C4 27.3061 5.19391 28.5 6.66667 28.5H25.3333C26.8061 28.5 28 27.3061 28 25.8333V7.16667C28 5.69391 26.8061 4.5 25.3333 4.5Z" stroke="#8C8C8C" stroke-width="2" stroke-linecap="round" stroke-linejoin="round"/>
    <path d="M25.3333 4.5H6.66667C5.19391 4.5 4 5.69391 4 7.16667V25.8333C4 27.3061 5.19391 28.5 6.66667 28.5H25.3333C26.8061 28.5 28 27.3061 28 25.8333V7.16667C28 5.69391 26.8061 4.5 25.3333 4.5Z" stroke="#6B6B6B" stroke-width="2" stroke-linecap="round" stroke-linejoin="round" style="mix-blend-mode:hard-light"/>
    <path d="M25.3333 4.5H6.66667C5.19391 4.5 4 5.69391 4 7.16667V25.8333C4 27.3061 5.19391 28.5 6.66667 28.5H25.3333C26.8061 28.5 28 27.3061 28 25.8333V7.16667C28 5.69391 26.8061 4.5 25.3333 4.5Z" stroke="#3DB0E4" stroke-opacity="0.2" stroke-width="2" stroke-linecap="round" stroke-linejoin="round" style="mix-blend-mode:screen"/>
    <path d="M11.3333 13.8333C12.4379 13.8333 13.3333 12.9379 13.3333 11.8333C13.3333 10.7288 12.4379 9.83334 11.3333 9.83334C10.2288 9.83334 9.33334 10.7288 9.33334 11.8333C9.33334 12.9379 10.2288 13.8333 11.3333 13.8333Z" stroke="#8C8C8C" stroke-width="2" stroke-linecap="round" stroke-linejoin="round"/>
    <path d="M11.3333 13.8333C12.4379 13.8333 13.3333 12.9379 13.3333 11.8333C13.3333 10.7288 12.4379 9.83334 11.3333 9.83334C10.2288 9.83334 9.33334 10.7288 9.33334 11.8333C9.33334 12.9379 10.2288 13.8333 11.3333 13.8333Z" stroke="#6B6B6B" stroke-width="2" stroke-linecap="round" stroke-linejoin="round" style="mix-blend-mode:hard-light"/>
    <path d="M11.3333 13.8333C12.4379 13.8333 13.3333 12.9379 13.3333 11.8333C13.3333 10.7288 12.4379 9.83334 11.3333 9.83334C10.2288 9.83334 9.33334 10.7288 9.33334 11.8333C9.33334 12.9379 10.2288 13.8333 11.3333 13.8333Z" stroke="#3DB0E4" stroke-opacity="0.2" stroke-width="2" stroke-linecap="round" stroke-linejoin="round" style="mix-blend-mode:screen"/>
    <path d="M28 20.5L21.3333 13.8333L6.66666 28.5" stroke="#8C8C8C" stroke-width="2" stroke-linecap="round" stroke-linejoin="round"/>
    <path d="M28 20.5L21.3333 13.8333L6.66666 28.5" stroke="#6B6B6B" stroke-width="2" stroke-linecap="round" stroke-linejoin="round" style="mix-blend-mode:hard-light"/>
    <path d="M28 20.5L21.3333 13.8333L6.66666 28.5" stroke="#3DB0E4" stroke-opacity="0.2" stroke-width="2" stroke-linecap="round" stroke-linejoin="round" style="mix-blend-mode:screen"/>
</svg>
