<svg width="95" height="192" viewBox="0 0 95 192" fill="none" xmlns="http://www.w3.org/2000/svg">
    <rect width="94.2824" height="125.652" rx="4" transform="matrix(1 0 1.25205e-05 1 0 0)" fill="#2B355C"/>
    <path d="M42.4285 110.731H44.9197C45.2432 109.816 46.1163 109.16 47.1426 109.16C48.1689 109.16 49.042 109.816 49.3655 110.731H51.8567L51.8567 109.16C51.8567 108.726 51.5049 108.375 51.071 108.375H43.2141C42.7802 108.375 42.4285 108.726 42.4285 109.16L42.4285 110.731Z" fill="#AC9D53"/>
    <path d="M48.3211 111.516C48.3211 112.167 47.7935 112.694 47.1426 112.694C46.4917 112.694 45.9641 112.167 45.9641 111.516C45.9641 110.866 46.4917 110.338 47.1426 110.338C47.7935 110.338 48.3211 110.866 48.3211 111.516Z" fill="#AC9D53"/>
    <path d="M44.9197 112.301H42.4285L42.4285 113.872C42.4285 114.306 42.7803 114.657 43.2142 114.657H51.0711C51.505 114.657 51.8568 114.306 51.8568 113.872L51.8567 112.301H49.3656C49.042 113.217 48.1689 113.872 47.1426 113.872C46.1164 113.872 45.2433 113.217 44.9197 112.301Z" fill="#AC9D53"/>
    <path d="M33.4969 93.2055C33.4969 93.4442 33.4508 93.6536 33.3586 93.8337C33.2665 94.0139 33.1407 94.1646 32.9815 94.2861C32.8265 94.4076 32.6442 94.4997 32.4347 94.5625C32.2252 94.6212 32.0031 94.6505 31.7684 94.6505H30.6999L30.6999 96.2023H30.2034L30.2033 91.8045H31.8501C32.0973 91.8045 32.3215 91.838 32.5226 91.905C32.728 91.9678 32.9019 92.06 33.0443 92.1814C33.191 92.2987 33.3021 92.4453 33.3775 92.6212C33.4571 92.7929 33.4969 92.9877 33.4969 93.2055ZM32.9941 93.2243C32.9941 92.906 32.8851 92.6673 32.6672 92.5081C32.4535 92.3448 32.1686 92.2631 31.8124 92.2631H30.6999L30.6999 94.1981H31.7873C31.9675 94.1981 32.1309 94.1751 32.2775 94.129C32.4284 94.083 32.5562 94.018 32.661 93.9343C32.7699 93.8463 32.8516 93.7437 32.9061 93.6264C32.9647 93.505 32.9941 93.3709 32.9941 93.2243Z" fill="#AC9D53"/>
    <path d="M36.0529 91.7731L38.0581 96.2023H37.5238L37.0084 95.04H34.6136L34.0919 96.2023H33.5828L35.5878 91.7731H36.0529ZM36.8135 94.5939L35.8141 92.3511L34.8084 94.5939H36.8135Z" fill="#AC9D53"/>
    <path d="M39.2231 92.9039C39.2231 93.0086 39.2399 93.1029 39.2734 93.1866C39.307 93.2704 39.3677 93.3479 39.4557 93.4191C39.5437 93.4861 39.6652 93.5489 39.8203 93.6076C39.9753 93.662 40.1744 93.7144 40.4174 93.7646C40.9077 93.8735 41.268 94.0243 41.4985 94.217C41.7332 94.4097 41.8505 94.6756 41.8505 95.0149C41.8505 95.2034 41.8128 95.3751 41.7374 95.5301C41.6619 95.685 41.5572 95.817 41.4231 95.9259C41.2932 96.0348 41.1361 96.1185 40.9517 96.1772C40.7673 96.2358 40.5662 96.2651 40.3483 96.2651C39.9963 96.2651 39.6736 96.2086 39.3803 96.0955C39.0912 95.9782 38.8146 95.8002 38.5506 95.5615L38.8586 95.1971C39.0891 95.4065 39.3216 95.5636 39.5563 95.6683C39.791 95.7688 40.0612 95.819 40.3671 95.819C40.6647 95.819 40.9014 95.7499 41.0774 95.6117C41.2576 95.4735 41.3477 95.2913 41.3477 95.0651C41.3477 94.9604 41.3309 94.8683 41.2974 94.7887C41.2639 94.7049 41.2052 94.6295 41.1214 94.5625C41.0376 94.4955 40.9202 94.4348 40.7694 94.3803C40.6227 94.3259 40.4342 94.2735 40.2037 94.2233C39.9523 94.1688 39.7323 94.106 39.5437 94.0348C39.3593 93.9636 39.2064 93.8777 39.0849 93.7772C38.9634 93.6767 38.8733 93.5594 38.8146 93.4254C38.7559 93.2914 38.7266 93.1322 38.7266 92.9479C38.7266 92.772 38.7622 92.6107 38.8334 92.4641C38.9047 92.3175 39.0052 92.1919 39.1351 92.0872C39.265 91.9783 39.418 91.8945 39.594 91.8359C39.77 91.7731 39.9627 91.7416 40.1722 91.7416C40.4949 91.7416 40.7756 91.7877 41.0145 91.8799C41.2575 91.9678 41.4922 92.1018 41.7185 92.2819L41.4293 92.6652C41.224 92.4977 41.0166 92.3762 40.8071 92.3008C40.6018 92.2254 40.386 92.1877 40.1597 92.1877C40.0172 92.1877 39.8873 92.2066 39.77 92.2443C39.6568 92.2819 39.5584 92.3322 39.4746 92.395C39.3949 92.4579 39.3321 92.5333 39.286 92.6212C39.2441 92.7092 39.2231 92.8034 39.2231 92.9039Z" fill="#AC9D53"/>
    <path d="M43.1823 92.9039C43.1823 93.0086 43.199 93.1029 43.2326 93.1866C43.2661 93.2704 43.3268 93.3479 43.4148 93.4191C43.5028 93.4861 43.6244 93.5489 43.7794 93.6076C43.9344 93.662 44.1335 93.7144 44.3765 93.7646C44.8668 93.8735 45.2272 94.0243 45.4576 94.217C45.6923 94.4097 45.8096 94.6756 45.8096 95.0149C45.8096 95.2034 45.7719 95.3751 45.6965 95.5301C45.6211 95.685 45.5163 95.817 45.3822 95.9259C45.2523 96.0348 45.0952 96.1185 44.9108 96.1772C44.7264 96.2358 44.5253 96.2651 44.3074 96.2651C43.9554 96.2651 43.6328 96.2086 43.3394 96.0955C43.0503 95.9782 42.7737 95.8002 42.5098 95.5615L42.8177 95.1971C43.0482 95.4065 43.2808 95.5636 43.5154 95.6683C43.7501 95.7688 44.0204 95.819 44.3263 95.819C44.6238 95.819 44.8605 95.7499 45.0365 95.6117C45.2167 95.4735 45.3068 95.2913 45.3068 95.0651C45.3068 94.9604 45.29 94.8683 45.2565 94.7887C45.223 94.7049 45.1643 94.6295 45.0805 94.5625C44.9967 94.4955 44.8794 94.4348 44.7285 94.3803C44.5819 94.3259 44.3933 94.2735 44.1628 94.2233C43.9114 94.1688 43.6914 94.106 43.5028 94.0348C43.3185 93.9636 43.1655 93.8777 43.044 93.7772C42.9225 93.6767 42.8324 93.5594 42.7737 93.4254C42.7151 93.2914 42.6857 93.1322 42.6857 92.9479C42.6857 92.772 42.7213 92.6107 42.7926 92.4641C42.8638 92.3175 42.9644 92.1919 43.0943 92.0872C43.2242 91.9783 43.3771 91.8945 43.5531 91.8359C43.7291 91.7731 43.9218 91.7416 44.1314 91.7416C44.454 91.7416 44.7348 91.7877 44.9736 91.8799C45.2167 91.9678 45.4513 92.1018 45.6776 92.2819L45.3885 92.6652C45.1831 92.4977 44.9757 92.3762 44.7662 92.3008C44.5609 92.2254 44.3451 92.1877 44.1188 92.1877C43.9763 92.1877 43.8464 92.2066 43.7291 92.2443C43.616 92.2819 43.5175 92.3322 43.4337 92.395C43.3541 92.4579 43.2912 92.5333 43.2451 92.6212C43.2032 92.7092 43.1823 92.8034 43.1823 92.9039Z" fill="#AC9D53"/>
    <path d="M50.113 93.2055C50.113 93.4442 50.0669 93.6536 49.9747 93.8337C49.8825 94.0139 49.7568 94.1646 49.5976 94.2861C49.4425 94.4076 49.2602 94.4997 49.0507 94.5625C48.8412 94.6212 48.6191 94.6505 48.3845 94.6505H47.3159L47.316 96.2023H46.8194L46.8193 91.8045H48.4661C48.7134 91.8045 48.9376 91.838 49.1387 91.905C49.344 91.9678 49.5179 92.06 49.6604 92.1814C49.8071 92.2987 49.9181 92.4453 49.9935 92.6212C50.0732 92.7929 50.113 92.9877 50.113 93.2055ZM49.6101 93.2243C49.6101 92.906 49.5012 92.6673 49.2833 92.5081C49.0696 92.3448 48.7846 92.2631 48.4284 92.2631H47.3159L47.3159 94.1981H48.4033C48.5835 94.1981 48.7469 94.1751 48.8936 94.129C49.0444 94.083 49.1722 94.018 49.277 93.9343C49.3859 93.8463 49.4677 93.7437 49.5221 93.6264C49.5808 93.505 49.6101 93.3709 49.6101 93.2243Z" fill="#AC9D53"/>
    <path d="M55.3109 93.9971C55.3109 94.3028 55.2564 94.5939 55.1475 94.8704C55.0385 95.1426 54.8856 95.3835 54.6886 95.5929C54.4917 95.8023 54.2549 95.9698 53.9784 96.0955C53.7018 96.2169 53.3959 96.2777 53.0607 96.2777C52.7255 96.2777 52.4196 96.2169 52.143 96.0955C51.8706 95.974 51.636 95.8107 51.439 95.6054C51.2421 95.396 51.0891 95.1552 50.9802 94.8829C50.8754 94.6065 50.823 94.3154 50.823 94.0097C50.823 93.7039 50.8775 93.4149 50.9864 93.1427C51.0954 92.8662 51.2483 92.6233 51.4453 92.4139C51.6422 92.2045 51.879 92.039 52.1555 91.9176C52.4321 91.7919 52.738 91.7291 53.0732 91.7291C53.4084 91.7291 53.7122 91.7898 53.9846 91.9113C54.2612 92.0327 54.4979 92.1982 54.6949 92.4076C54.8918 92.6128 55.0427 92.8537 55.1474 93.1301C55.2564 93.4023 55.3109 93.6913 55.3109 93.9971ZM54.7955 94.0097C54.7955 93.7584 54.7515 93.5217 54.6635 93.2997C54.5797 93.0777 54.4602 92.8851 54.3052 92.7217C54.1501 92.5584 53.9658 92.4285 53.7521 92.3322C53.5425 92.2359 53.3121 92.1877 53.0607 92.1877C52.8092 92.1877 52.5767 92.2359 52.363 92.3322C52.1534 92.4244 51.9733 92.5521 51.8224 92.7154C51.6716 92.8788 51.5521 93.0715 51.4642 93.2934C51.3803 93.5112 51.3384 93.7458 51.3384 93.9971C51.3385 94.2484 51.3804 94.485 51.4642 94.707C51.5522 94.929 51.6737 95.1217 51.8287 95.285C51.9838 95.4484 52.1661 95.5782 52.3756 95.6746C52.5893 95.7709 52.8218 95.819 53.0733 95.819C53.3247 95.819 53.5552 95.773 53.7647 95.6808C53.9784 95.5845 54.1607 95.4547 54.3115 95.2913C54.4624 95.128 54.5797 94.9374 54.6635 94.7196C54.7515 94.4976 54.7955 94.261 54.7955 94.0097Z" fill="#AC9D53"/>
    <path d="M59.9974 96.2023H59.3877L58.1118 94.4934H56.8547L56.8547 96.2023H56.3581L56.3581 91.8045H58.25C58.4931 91.8045 58.7109 91.8359 58.9037 91.8987C59.1007 91.9615 59.2683 92.0516 59.4065 92.1689C59.5448 92.2819 59.6517 92.4202 59.7271 92.5835C59.8025 92.7427 59.8403 92.9207 59.8403 93.1175C59.8403 93.3018 59.8109 93.4673 59.7523 93.6139C59.6936 93.7563 59.6098 93.8819 59.5009 93.9908C59.3961 94.0955 59.2704 94.1835 59.1237 94.2547C58.9771 94.3259 58.8178 94.3761 58.646 94.4055L59.9974 96.2023ZM59.3374 93.1364C59.3374 92.8599 59.2389 92.6463 59.042 92.4956C58.845 92.3406 58.5685 92.2631 58.2123 92.2631H56.8546L56.8547 94.0474H58.206C58.3695 94.0474 58.5203 94.0264 58.6586 93.9845C58.7969 93.9426 58.9163 93.884 59.0169 93.8086C59.1174 93.729 59.195 93.6327 59.2494 93.5196C59.3081 93.4065 59.3374 93.2788 59.3374 93.1364Z" fill="#AC9D53"/>
    <path d="M62.523 92.2631L62.5231 96.2023H62.0202L62.0202 92.2631H60.5431L60.5431 91.8045H64.0001L64.0001 92.2631H62.523Z" fill="#AC9D53"/>
    <path d="M62.4277 33.7065C62.4278 42.381 55.3926 49.413 46.7141 49.413M62.4277 33.7065C62.4276 25.032 55.3922 18 46.7137 18M62.4277 33.7065H31.0002M46.7141 49.413C38.0357 49.413 31.0003 42.381 31.0002 33.7065M46.7141 49.413C50.6445 45.112 52.8781 39.5304 52.9994 33.7065C52.878 27.8826 50.6442 22.301 46.7137 18M46.7141 49.413C42.7836 45.112 40.5499 39.5304 40.4284 33.7065C40.5497 27.8826 42.7833 22.301 46.7137 18M31.0002 33.7065C31.0001 25.032 38.0353 18 46.7137 18" stroke="#AC9D53" stroke-width="4" stroke-linecap="round" stroke-linejoin="round"/>
    <path d="M28.3854 7.96582C28.3854 8.2837 28.324 8.56253 28.2013 8.80234C28.0786 9.04214 27.9112 9.2429 27.6992 9.40463C27.4927 9.56636 27.25 9.68905 26.9711 9.7727C26.6921 9.85077 26.3964 9.88981 26.0839 9.88981H24.6612L24.6612 11.956H24.0001L24 6.10038H26.1927C26.5219 6.10038 26.8204 6.145 27.0882 6.23423C27.3616 6.31788 27.5931 6.44057 27.7828 6.60229C27.9781 6.75844 28.126 6.95363 28.2264 7.18786C28.3324 7.4165 28.3854 7.67583 28.3854 7.96582ZM27.7159 7.99091C27.7159 7.56708 27.5708 7.2492 27.2807 7.03728C26.9961 6.81979 26.6167 6.71104 26.1425 6.71104H24.6612L24.6612 9.28752H26.109C26.349 9.28752 26.5665 9.25685 26.7618 9.1955C26.9627 9.13416 27.1329 9.04772 27.2723 8.93618C27.4174 8.81907 27.5262 8.68244 27.5987 8.52629C27.6768 8.36456 27.7159 8.1861 27.7159 7.99091Z" fill="#AC9D53"/>
    <path d="M31.7887 6.05856L34.4585 11.956H33.7471L33.0609 10.4085H29.8722L29.1776 11.956H28.4997L31.1694 6.05856H31.7887ZM32.8014 9.81452L31.4707 6.82815L30.1317 9.81452H32.8014Z" fill="#AC9D53"/>
    <path d="M36.0098 7.56429C36.0098 7.70371 36.0321 7.82919 36.0768 7.94072C36.1214 8.05226 36.2023 8.15543 36.3195 8.25023C36.4366 8.33946 36.5984 8.42312 36.8049 8.50119C37.0113 8.57369 37.2763 8.6434 37.5999 8.71032C38.2527 8.85532 38.7325 9.05608 39.0394 9.31261C39.3519 9.56915 39.5081 9.92327 39.5081 10.375C39.5081 10.6259 39.4579 10.8546 39.3575 11.0609C39.257 11.2673 39.1176 11.4429 38.939 11.5879C38.7661 11.7329 38.5568 11.8445 38.3113 11.9226C38.0658 12.0006 37.798 12.0397 37.5079 12.0397C37.0392 12.0397 36.6096 11.9644 36.2191 11.8138C35.8341 11.6577 35.4659 11.4206 35.1144 11.1028L35.5244 10.6176C35.8313 10.8964 36.141 11.1056 36.4534 11.245C36.7658 11.3788 37.1257 11.4457 37.533 11.4457C37.9291 11.4457 38.2444 11.3537 38.4787 11.1697C38.7186 10.9857 38.8386 10.7431 38.8386 10.4419C38.8386 10.3025 38.8163 10.1798 38.7716 10.0738C38.727 9.96231 38.6489 9.86193 38.5373 9.7727C38.4257 9.68347 38.2695 9.60261 38.0686 9.53011C37.8733 9.45761 37.6223 9.3879 37.3154 9.32098C36.9806 9.24848 36.6877 9.16483 36.4366 9.07002C36.1911 8.97522 35.9875 8.86089 35.8257 8.72705C35.6639 8.59321 35.5439 8.43706 35.4658 8.2586C35.3877 8.08014 35.3486 7.86822 35.3486 7.62285C35.3486 7.38862 35.3961 7.17391 35.4909 6.97873C35.5858 6.78354 35.7197 6.61624 35.8926 6.47682C36.0656 6.33182 36.2692 6.22028 36.5036 6.14221C36.7379 6.05856 36.9945 6.01673 37.2735 6.01673C37.7031 6.01673 38.0769 6.07807 38.395 6.20076C38.7186 6.31788 39.031 6.49633 39.3323 6.73614L38.9473 7.24641C38.6739 7.02334 38.3978 6.86161 38.1188 6.76123C37.8454 6.66085 37.5581 6.61066 37.2568 6.61066C37.0671 6.61066 36.8941 6.63575 36.7379 6.68594C36.5873 6.73614 36.4561 6.80306 36.3446 6.88671C36.2385 6.97036 36.1549 7.07074 36.0935 7.18786C36.0377 7.30497 36.0098 7.43045 36.0098 7.56429Z" fill="#AC9D53"/>
    <path d="M41.2813 7.56429C41.2813 7.70371 41.3036 7.82919 41.3483 7.94072C41.3929 8.05226 41.4738 8.15543 41.591 8.25023C41.7081 8.33946 41.87 8.42312 42.0764 8.50119C42.2828 8.57369 42.5478 8.6434 42.8715 8.71032C43.5242 8.85532 44.0041 9.05608 44.3109 9.31261C44.6234 9.56915 44.7796 9.92327 44.7796 10.375C44.7796 10.6259 44.7294 10.8546 44.629 11.0609C44.5286 11.2673 44.3891 11.4429 44.2105 11.5879C44.0376 11.7329 43.8283 11.8445 43.5829 11.9226C43.3374 12.0006 43.0696 12.0397 42.7794 12.0397C42.3108 12.0397 41.8812 11.9644 41.4906 11.8138C41.1056 11.6577 40.7374 11.4206 40.3859 11.1028L40.796 10.6176C41.1028 10.8964 41.4125 11.1056 41.7249 11.245C42.0374 11.3788 42.3972 11.4457 42.8045 11.4457C43.2007 11.4457 43.5159 11.3537 43.7502 11.1697C43.9901 10.9857 44.1101 10.7431 44.1101 10.4419C44.1101 10.3025 44.0878 10.1798 44.0431 10.0738C43.9985 9.96231 43.9204 9.86193 43.8088 9.7727C43.6972 9.68347 43.541 9.60261 43.3401 9.53011C43.1448 9.45761 42.8938 9.3879 42.5869 9.32098C42.2521 9.24848 41.9592 9.16483 41.7082 9.07002C41.4627 8.97522 41.259 8.86089 41.0972 8.72705C40.9354 8.59321 40.8155 8.43706 40.7373 8.2586C40.6592 8.08014 40.6202 7.86822 40.6202 7.62285C40.6202 7.38862 40.6676 7.17391 40.7624 6.97873C40.8573 6.78354 40.9912 6.61624 41.1641 6.47682C41.3371 6.33182 41.5407 6.22028 41.7751 6.14221C42.0094 6.05856 42.2661 6.01673 42.545 6.01673C42.9746 6.01673 43.3485 6.07807 43.6665 6.20076C43.9901 6.31788 44.3025 6.49633 44.6038 6.73614L44.2188 7.24641C43.9455 7.02334 43.6693 6.86161 43.3903 6.76123C43.1169 6.66085 42.8296 6.61066 42.5283 6.61066C42.3386 6.61066 42.1656 6.63575 42.0094 6.68594C41.8588 6.73614 41.7277 6.80306 41.6161 6.88671C41.5101 6.97036 41.4264 7.07074 41.365 7.18786C41.3092 7.30497 41.2813 7.43045 41.2813 7.56429Z" fill="#AC9D53"/>
    <path d="M50.5094 7.96582C50.5094 8.2837 50.4481 8.56253 50.3253 8.80234C50.2026 9.04214 50.0352 9.2429 49.8232 9.40463C49.6168 9.56636 49.3741 9.68905 49.0951 9.7727C48.8161 9.85077 48.5204 9.88981 48.208 9.88981H46.7852L46.7853 11.956H46.1241L46.124 6.10038H48.3167C48.6459 6.10038 48.9444 6.145 49.2122 6.23423C49.4856 6.31788 49.7171 6.44057 49.9068 6.60229C50.1021 6.75844 50.25 6.95363 50.3504 7.18786C50.4564 7.4165 50.5094 7.67583 50.5094 7.96582ZM49.8399 7.99091C49.8399 7.56708 49.6948 7.2492 49.4047 7.03728C49.1202 6.81979 48.7408 6.71104 48.2665 6.71104H46.7852L46.7852 9.28752H48.2331C48.473 9.28752 48.6906 9.25685 48.8859 9.1955C49.0867 9.13416 49.2569 9.04772 49.3964 8.93618C49.5414 8.81907 49.6502 8.68244 49.7228 8.52629C49.8009 8.36456 49.8399 8.1861 49.8399 7.99091Z" fill="#AC9D53"/>
    <path d="M57.4304 9.01983C57.4304 9.42694 57.3579 9.81452 57.2128 10.1826C57.0678 10.5451 56.8641 10.8657 56.6019 11.1446C56.3397 11.4234 56.0244 11.6465 55.6562 11.8138C55.2879 11.9755 54.8807 12.0564 54.4343 12.0564C53.988 12.0564 53.5807 11.9755 53.2124 11.8138C52.8498 11.6521 52.5373 11.4346 52.2751 11.1613C52.0129 10.8825 51.8092 10.5618 51.6641 10.1993C51.5246 9.83125 51.4549 9.44367 51.4549 9.03656C51.4549 8.62946 51.5274 8.24466 51.6725 7.88217C51.8175 7.5141 52.0212 7.19064 52.2834 6.9118C52.5456 6.63297 52.8609 6.41268 53.2291 6.25096C53.5973 6.08365 54.0046 6 54.451 6C54.8973 6 55.3018 6.08086 55.6645 6.24259C56.0327 6.40432 56.348 6.6246 56.6102 6.90344C56.8724 7.1767 57.0733 7.49737 57.2128 7.86544C57.3578 8.22793 57.4304 8.61273 57.4304 9.01983ZM56.7441 9.03656C56.7441 8.70196 56.6855 8.38687 56.5684 8.0913C56.4568 7.79573 56.2978 7.53919 56.0913 7.3217C55.8849 7.1042 55.6394 6.93132 55.3548 6.80306C55.0759 6.67479 54.769 6.61066 54.4342 6.61066C54.0995 6.61066 53.7898 6.67479 53.5053 6.80306C53.2263 6.92575 52.9864 7.09584 52.7855 7.31333C52.5847 7.53083 52.4257 7.78736 52.3085 8.08293C52.1969 8.37292 52.1412 8.68522 52.1412 9.01983C52.1412 9.35444 52.197 9.66953 52.3085 9.9651C52.4257 10.2607 52.5875 10.5172 52.794 10.7347C53.0004 10.9522 53.2431 11.1251 53.5221 11.2533C53.8066 11.3816 54.1163 11.4457 54.451 11.4457C54.7858 11.4457 55.0927 11.3844 55.3716 11.2617C55.6562 11.1334 55.8989 10.9606 56.0997 10.7431C56.3006 10.5256 56.4568 10.2718 56.5684 9.98183C56.6856 9.68626 56.7441 9.37117 56.7441 9.03656Z" fill="#AC9D53"/>
    <path d="M63.6705 11.956H62.8587L61.1597 9.68068H59.4859L59.4859 11.956H58.8248L58.8247 6.10038H61.3438C61.6674 6.10038 61.9575 6.14221 62.2142 6.22586C62.4764 6.30951 62.6996 6.42941 62.8837 6.58556C63.0678 6.73614 63.2101 6.92017 63.3105 7.13767C63.411 7.34958 63.4612 7.5866 63.4612 7.84871C63.4612 8.09408 63.4221 8.31437 63.344 8.50956C63.2659 8.69917 63.1543 8.86647 63.0093 9.01147C62.8698 9.15089 62.7024 9.268 62.5071 9.3628C62.3119 9.45761 62.0998 9.52453 61.8711 9.56357L63.6705 11.956ZM62.7917 7.8738C62.7917 7.50573 62.6605 7.22132 62.3983 7.02055C62.1361 6.81421 61.7678 6.71104 61.2936 6.71104H59.4859L59.4859 9.08675H61.2853C61.5029 9.08675 61.7037 9.05887 61.8878 9.0031C62.0719 8.94733 62.231 8.86926 62.3649 8.76888C62.4988 8.66292 62.602 8.53465 62.6745 8.38408C62.7526 8.2335 62.7917 8.06341 62.7917 7.8738Z" fill="#AC9D53"/>
    <path d="M67.0333 6.71104L67.0333 11.956H66.3638L66.3637 6.71104H64.397L64.397 6.10038H69L69 6.71104H67.0333Z" fill="#AC9D53"/>
    <g filter="url(#filter0_d_1_10)">
        <mask id="path-7-inside-1_1_10" fill="white">
            <path d="M8 43C8 35.268 14.268 29 22 29H71C78.732 29 85 35.268 85 43V170C85 177.732 78.732 184 71 184H22C14.268 184 8 177.732 8 170V43Z"/>
        </mask>
        <path d="M8 43C8 35.268 14.268 29 22 29H71C78.732 29 85 35.268 85 43V170C85 177.732 78.732 184 71 184H22C14.268 184 8 177.732 8 170V43Z" fill="#8C8C8C"/>
        <path d="M8 43C8 35.268 14.268 29 22 29H71C78.732 29 85 35.268 85 43V170C85 177.732 78.732 184 71 184H22C14.268 184 8 177.732 8 170V43Z" fill="#FAFAFA" style="mix-blend-mode:hard-light"/>
        <path d="M8 43C8 35.268 14.268 29 22 29H71C78.732 29 85 35.268 85 43V170C85 177.732 78.732 184 71 184H22C14.268 184 8 177.732 8 170V43Z" fill="#3DB0E4" fill-opacity="0.2" style="mix-blend-mode:screen"/>
        <path d="M4 35C4 25.0589 12.0589 17 22 17H71C80.9411 17 89 25.0589 89 35L81 43C81 41.8954 76.5228 41 71 41H22C16.4772 41 12 41.8954 12 43L4 35ZM89 190C89 199.941 80.9411 208 71 208H22C12.0589 208 4 199.941 4 190L12 160C12 160 16.4772 160 22 160H71C76.5228 160 81 160 81 160L89 190ZM22 208C12.0589 208 4 199.941 4 190V35C4 25.0589 12.0589 17 22 17V41C16.4772 41 12 41.8954 12 43V160C12 160 16.4772 160 22 160V208ZM71 17C80.9411 17 89 25.0589 89 35V190C89 199.941 80.9411 208 71 208V160C76.5228 160 81 160 81 160V43C81 41.8954 76.5228 41 71 41V17Z" fill="#8C8C8C" mask="url(#path-7-inside-1_1_10)"/>
        <path d="M4 35C4 25.0589 12.0589 17 22 17H71C80.9411 17 89 25.0589 89 35L81 43C81 41.8954 76.5228 41 71 41H22C16.4772 41 12 41.8954 12 43L4 35ZM89 190C89 199.941 80.9411 208 71 208H22C12.0589 208 4 199.941 4 190L12 160C12 160 16.4772 160 22 160H71C76.5228 160 81 160 81 160L89 190ZM22 208C12.0589 208 4 199.941 4 190V35C4 25.0589 12.0589 17 22 17V41C16.4772 41 12 41.8954 12 43V160C12 160 16.4772 160 22 160V208ZM71 17C80.9411 17 89 25.0589 89 35V190C89 199.941 80.9411 208 71 208V160C76.5228 160 81 160 81 160V43C81 41.8954 76.5228 41 71 41V17Z" fill="#0F0F0F" style="mix-blend-mode:hard-light" mask="url(#path-7-inside-1_1_10)"/>
        <path d="M4 35C4 25.0589 12.0589 17 22 17H71C80.9411 17 89 25.0589 89 35L81 43C81 41.8954 76.5228 41 71 41H22C16.4772 41 12 41.8954 12 43L4 35ZM89 190C89 199.941 80.9411 208 71 208H22C12.0589 208 4 199.941 4 190L12 160C12 160 16.4772 160 22 160H71C76.5228 160 81 160 81 160L89 190ZM22 208C12.0589 208 4 199.941 4 190V35C4 25.0589 12.0589 17 22 17V41C16.4772 41 12 41.8954 12 43V160C12 160 16.4772 160 22 160V208ZM71 17C80.9411 17 89 25.0589 89 35V190C89 199.941 80.9411 208 71 208V160C76.5228 160 81 160 81 160V43C81 41.8954 76.5228 41 71 41V17Z" fill="#3DB0E4" fill-opacity="0.2" style="mix-blend-mode:screen" mask="url(#path-7-inside-1_1_10)"/>
    </g>
    <path d="M67 105.171V107.011C66.9975 111.324 65.601 115.521 63.0187 118.975C60.4363 122.429 56.8066 124.956 52.6707 126.179C48.5349 127.402 44.1145 127.255 40.0689 125.761C36.0234 124.266 32.5693 121.504 30.2219 117.886C27.8745 114.268 26.7596 109.988 27.0434 105.684C27.3271 101.381 28.9944 97.2841 31.7966 94.0056C34.5987 90.7271 38.3856 88.4422 42.5924 87.4917C46.7992 86.5413 51.2005 86.9761 55.14 88.7314M67 91.0114L47 111.031L41 105.031" stroke="#10BD91" stroke-width="2" stroke-linecap="round" stroke-linejoin="round"/>
    <defs>
        <filter id="filter0_d_1_10" x="4" y="29" width="85" height="163" filterUnits="userSpaceOnUse" color-interpolation-filters="sRGB">
            <feFlood flood-opacity="0" result="BackgroundImageFix"/>
            <feColorMatrix in="SourceAlpha" type="matrix" values="0 0 0 0 0 0 0 0 0 0 0 0 0 0 0 0 0 0 127 0" result="hardAlpha"/>
            <feOffset dy="4"/>
            <feGaussianBlur stdDeviation="2"/>
            <feComposite in2="hardAlpha" operator="out"/>
            <feColorMatrix type="matrix" values="0 0 0 0 0 0 0 0 0 0 0 0 0 0 0 0 0 0 0.25 0"/>
            <feBlend mode="normal" in2="BackgroundImageFix" result="effect1_dropShadow_1_10"/>
            <feBlend mode="normal" in="SourceGraphic" in2="effect1_dropShadow_1_10" result="shape"/>
        </filter>
    </defs>
</svg>
