<svg width="218" height="128" viewBox="0 0 218 128" fill="none" xmlns="http://www.w3.org/2000/svg">
<g clip-path="url(#clip0_1372_6892)">
<ellipse cx="2.80527" cy="126.011" rx="1.97641" ry="1.98884" fill="white"/>
<ellipse cx="9.92035" cy="126.011" rx="1.97641" ry="1.98884" fill="white"/>
<ellipse cx="17.0355" cy="126.011" rx="1.97641" ry="1.98884" fill="white"/>
<ellipse cx="24.1505" cy="126.011" rx="1.97641" ry="1.98884" fill="white"/>
<ellipse cx="31.2657" cy="126.011" rx="1.97641" ry="1.98884" fill="white"/>
<ellipse cx="38.3807" cy="126.011" rx="1.97641" ry="1.98884" fill="white"/>
<ellipse cx="45.4958" cy="126.011" rx="1.97641" ry="1.98884" fill="white"/>
<ellipse cx="52.6109" cy="126.011" rx="1.97641" ry="1.98884" fill="white"/>
<ellipse cx="59.726" cy="126.011" rx="1.97641" ry="1.98884" fill="white"/>
<ellipse cx="66.841" cy="126.011" rx="1.97641" ry="1.98884" fill="white"/>
<ellipse cx="73.9562" cy="126.011" rx="1.97641" ry="1.98884" fill="white"/>
<ellipse cx="81.0713" cy="126.011" rx="1.97641" ry="1.98884" fill="white"/>
<ellipse cx="88.1862" cy="126.011" rx="1.97641" ry="1.98884" fill="white"/>
<ellipse cx="95.3014" cy="126.011" rx="1.97641" ry="1.98884" fill="white"/>
<ellipse cx="102.417" cy="126.011" rx="1.97641" ry="1.98884" fill="white"/>
<ellipse cx="109.531" cy="126.011" rx="1.97641" ry="1.98884" fill="white"/>
<ellipse cx="116.647" cy="126.011" rx="1.97641" ry="1.98884" fill="white"/>
<ellipse cx="123.762" cy="126.011" rx="1.97641" ry="1.98884" fill="white"/>
<ellipse cx="130.877" cy="126.011" rx="1.97641" ry="1.98884" fill="white"/>
<ellipse cx="137.992" cy="126.011" rx="1.97641" ry="1.98884" fill="white"/>
<ellipse cx="145.107" cy="126.011" rx="1.97641" ry="1.98884" fill="white"/>
<ellipse cx="152.222" cy="126.011" rx="1.97641" ry="1.98884" fill="white"/>
<ellipse cx="159.337" cy="126.011" rx="1.97642" ry="1.98884" fill="white"/>
<path fill-rule="evenodd" clip-rule="evenodd" d="M208.422 44.5767C208.412 44.6454 208.4 44.7136 208.388 44.7813C208.42 44.717 208.431 44.6455 208.422 44.5767Z" fill="white"/>
<path d="M187.57 28.6179V29.8051C188.251 28.8007 189.056 27.8879 189.963 27.0889H188.935C188.447 27.5664 187.991 28.0773 187.57 28.6179Z" fill="white"/>
<path d="M187.57 31.8477V33.6213C188.5 30.9946 190.294 28.7246 192.742 27.1895C192.785 27.1629 192.82 27.1283 192.846 27.0889H191.639C189.894 28.3487 188.511 29.9831 187.57 31.8477Z" fill="white"/>
<path d="M188.817 33.3239C188.74 33.5026 188.822 33.7084 188.999 33.7848C189.044 33.8044 189.091 33.8134 189.136 33.8134C189.272 33.8134 189.4 33.7344 189.457 33.6013C191.04 29.8893 194.517 27.4033 198.463 27.0889H195.292C192.435 28.1711 190.069 30.387 188.817 33.3239Z" fill="white"/>
<path d="M199.313 28.108C197.443 28.108 195.626 28.6484 194.059 29.672C193.897 29.7775 193.851 29.995 193.957 30.1573C194.061 30.3196 194.277 30.3662 194.439 30.2607C195.892 29.3108 197.577 28.8091 199.313 28.8091C204.262 28.8091 208.29 32.8621 208.29 37.8427C208.29 38.5396 208.212 39.2211 208.063 39.8775C208.208 40.2918 208.321 40.7297 208.402 41.1903C208.783 40.1408 208.987 39.012 208.987 37.8427C208.987 32.4749 204.648 28.108 199.313 28.108Z" fill="white"/>
<path d="M192.193 31.2588C190.546 33.0615 189.639 35.3998 189.639 37.8426V53.834C189.639 54.0281 189.795 54.1845 189.988 54.1845C190.18 54.1845 190.336 54.0281 190.336 53.834V37.8426C190.336 35.5759 191.178 33.4062 192.706 31.7335C192.836 31.5913 192.827 31.3686 192.685 31.2376C192.545 31.1071 192.323 31.1161 192.193 31.2588Z" fill="white"/>
<path d="M188.679 34.7273C188.493 34.678 188.303 34.7925 188.254 34.9797C188.016 35.9121 187.896 36.8747 187.896 37.8426V43.2512C187.896 43.4448 188.052 43.6017 188.244 43.6017C188.437 43.6017 188.592 43.4448 188.592 43.2512V37.8426C188.592 36.9346 188.706 36.0298 188.93 35.1542C188.978 34.967 188.866 34.7761 188.679 34.7273Z" fill="white"/>
<path d="M188.592 44.8883C188.592 44.6942 188.437 44.5372 188.244 44.5372C188.052 44.5372 187.896 44.6942 187.896 44.8883V58.3562C187.994 58.5037 188.095 58.6489 188.197 58.792H188.592V44.8883Z" fill="white"/>
<path d="M191.382 37.8427V46.993C191.382 47.1871 191.538 47.3435 191.73 47.3435C191.923 47.3435 192.079 47.1871 192.079 46.993V37.8427C192.079 33.8284 195.324 30.563 199.313 30.563C201.971 30.563 204.411 32.03 205.681 34.3917C205.773 34.5625 205.985 34.625 206.154 34.5328C206.323 34.441 206.385 34.2283 206.294 34.0576C204.902 31.4694 202.228 29.8619 199.313 29.8619C194.94 29.8619 191.382 33.4418 191.382 37.8427Z" fill="white"/>
<path d="M190.336 55.8805C190.336 55.6864 190.18 55.53 189.988 55.53C189.795 55.53 189.639 55.6864 189.639 55.8805V58.792H190.336V55.8805Z" fill="white"/>
<path d="M191.731 49.5073C191.538 49.5073 191.382 49.6643 191.382 49.8579V58.792H192.079V49.8579C192.079 49.6643 191.923 49.5073 191.731 49.5073Z" fill="white"/>
<path d="M193.822 42.608C193.822 42.4144 193.666 42.2574 193.473 42.2574C193.281 42.2574 193.125 42.4144 193.125 42.608V58.792H193.822V42.608Z" fill="white"/>
<path d="M195.304 51.846C195.111 51.846 194.955 52.003 194.955 52.1965V58.792H195.652V52.1965C195.652 52.003 195.496 51.846 195.304 51.846Z" fill="white"/>
<path d="M194.955 37.8427V50.7351C194.955 50.9287 195.111 51.0857 195.304 51.0857C195.496 51.0857 195.652 50.9287 195.652 50.7351V37.8427C195.652 37.0664 195.892 36.3453 196.301 35.7507V34.8782H197.142C197.75 34.4263 198.501 34.1589 199.313 34.1589C200.196 34.1589 201.008 34.4754 201.641 35.0016C202.048 35.0602 202.44 35.1394 202.817 35.2387C202.023 34.1589 200.748 33.4577 199.313 33.4577C196.91 33.4577 194.955 35.4248 194.955 37.8427Z" fill="white"/>
<path d="M195.586 32.8752C194.022 34.0659 193.125 35.8765 193.125 37.8425V40.2695C193.125 40.463 193.281 40.62 193.473 40.62C193.666 40.62 193.822 40.463 193.822 40.2695V37.8425C193.822 36.0982 194.619 34.4918 196.006 33.4348C196.16 33.3175 196.19 33.098 196.074 32.9436C195.957 32.7883 195.738 32.758 195.586 32.8752Z" fill="white"/>
<path d="M199.313 31.6163C198.652 31.6163 198.001 31.7208 197.378 31.9276C197.196 31.9881 197.096 32.1864 197.157 32.371C197.216 32.5545 197.412 32.6548 197.597 32.5938C198.149 32.4108 198.726 32.3174 199.313 32.3174C201.634 32.3174 203.624 33.7747 204.426 35.8278C204.738 35.9792 205.036 36.1481 205.317 36.3341C204.645 33.6272 202.208 31.6163 199.313 31.6163Z" fill="white"/>
<path d="M207.244 37.8429C207.244 37.0712 207.134 36.3086 206.918 35.5756C206.863 35.389 206.67 35.2808 206.484 35.3396C206.3 35.3943 206.194 35.59 206.25 35.7756C206.401 36.2861 206.495 36.8127 206.531 37.3471C206.789 37.618 207.024 37.91 207.236 38.2223C207.241 38.0966 207.244 37.9701 207.244 37.8429Z" fill="white"/>
<path d="M202.561 27.5616C207.03 28.9947 210.033 33.1267 210.033 37.8426C210.033 39.7381 209.528 41.6108 208.571 43.2565C208.557 43.2808 208.546 43.3062 208.538 43.3321C208.536 43.3911 208.534 43.4498 208.531 43.5082C208.551 43.6007 208.608 43.6847 208.696 43.7359C208.751 43.7688 208.811 43.7842 208.871 43.7842C208.992 43.7842 209.108 43.7221 209.172 43.6108C210.192 41.8574 210.73 39.8627 210.73 37.8426C210.73 33.3529 208.175 29.3606 204.234 27.4739C203.615 27.3624 202.976 27.2745 202.319 27.2109C202.311 27.3657 202.407 27.5123 202.561 27.5616Z" fill="white"/>
<path d="M208.969 29.9217C209.037 30.0065 209.138 30.0506 209.239 30.0506C209.317 30.0506 209.395 30.0246 209.459 29.9715C209.608 29.849 209.63 29.6279 209.509 29.4778C209.38 29.3189 209.247 29.1635 209.112 29.0116C208.565 28.7505 207.994 28.5141 207.398 28.3034C207.963 28.7897 208.489 29.3303 208.969 29.9217Z" fill="white"/>
<path d="M210.317 31.236C210.149 31.3309 210.09 31.5447 210.184 31.7138C211.114 33.377 211.642 35.1877 211.754 37.0954C211.764 37.2815 211.918 37.4247 212.101 37.4247C212.314 37.4131 212.461 37.2471 212.45 37.0535C212.332 35.0392 211.774 33.1272 210.792 31.3691C210.697 31.201 210.486 31.1416 210.317 31.236Z" fill="white"/>
<path d="M213.519 37.8427C213.519 42.7708 210.898 47.4501 206.682 50.0547C206.517 50.156 206.466 50.3719 206.567 50.5373C206.632 50.6445 206.746 50.7039 206.864 50.7039C206.926 50.7039 206.989 50.6874 207.046 50.6524C211.469 47.9211 214.216 43.0126 214.216 37.8427C214.216 35.5637 213.708 33.4019 212.8 31.4657C212.364 31.0701 211.9 30.6979 211.407 30.3505C212.746 32.5305 213.519 35.0975 213.519 37.8427Z" fill="white"/>
<path d="M215.566 36.9756C215.784 36.9602 215.928 36.7927 215.914 36.5991C215.882 36.1647 215.834 35.733 215.768 35.305C215.449 34.6952 215.087 34.1127 214.684 33.5597C214.961 34.5644 215.141 35.5994 215.218 36.651C215.233 36.8351 215.385 36.9756 215.566 36.9756Z" fill="white"/>
<path d="M215.957 38.1187C215.96 37.9251 215.807 37.7654 215.614 37.7623C215.438 37.7729 215.263 37.9134 215.26 38.107C215.166 43.6211 212.16 48.8128 207.414 51.6581C207.309 51.7212 207.244 51.8358 207.244 51.9594V57.5479C207.48 57.4631 207.713 57.3743 207.941 57.2815V52.1577C212.794 49.1681 215.861 43.8078 215.957 38.1187Z" fill="white"/>
<path d="M212.467 38.2471C212.473 38.0535 212.322 37.8918 212.13 37.8859C211.931 37.8859 211.776 38.036 211.771 38.2254C211.661 41.7887 210.052 45.0698 207.457 47.3289C206.803 48.4317 205.872 49.3009 204.715 49.9163C209.288 47.8371 212.312 43.3121 212.467 38.2471Z" fill="white"/>
<path d="M203.758 55.4126C203.758 55.6062 203.915 55.7632 204.107 55.7632C204.299 55.7632 204.455 55.6062 204.455 55.4126V50.0484C204.231 50.1574 203.998 50.2574 203.758 50.3481V55.4126Z" fill="white"/>
<path d="M202.015 58.6791C202.249 58.6571 202.482 58.632 202.712 58.6038V50.6731C202.485 50.7295 202.252 50.7788 202.015 50.8208V58.6791Z" fill="white"/>
<path d="M200.272 58.7825C200.506 58.7763 200.738 58.7672 200.969 58.7552V50.9563C200.74 50.9756 200.508 50.9888 200.272 50.9959V58.7825Z" fill="white"/>
<path d="M198.529 55.6459C198.529 55.84 198.685 55.997 198.877 55.997C199.07 55.997 199.226 55.84 199.226 55.6459V51.0021H198.529V55.6459Z" fill="white"/>
<path d="M196.786 58.792H197.483V51.0021H196.786V58.792Z" fill="white"/>
<path d="M198.877 57.7514C198.685 57.7514 198.529 57.9084 198.529 58.102V58.792H199.226V58.102C199.226 57.9084 199.07 57.7514 198.877 57.7514Z" fill="white"/>
<path d="M204.107 56.4654C203.914 56.4654 203.758 56.6224 203.758 56.816V58.4512C203.993 58.4113 204.225 58.3681 204.455 58.3215V56.816C204.455 56.6224 204.299 56.4654 204.107 56.4654Z" fill="white"/>
<path d="M205.849 51.6125C205.657 51.6125 205.501 51.7695 205.501 51.963V58.0818C205.737 58.0214 205.969 57.9573 206.198 57.8896V51.963C206.198 51.7695 206.042 51.6125 205.849 51.6125Z" fill="white"/>
<path d="M209.336 52.6061C209.143 52.6061 208.987 52.7631 208.987 52.9567V56.8166C209.224 56.7017 209.456 56.5822 209.684 56.4582V52.9567C209.684 52.7631 209.528 52.6061 209.336 52.6061Z" fill="white"/>
<path d="M211.164 51.9674C213.791 49.7219 215.707 46.8378 216.763 43.6498C216.764 43.5957 216.766 43.5416 216.767 43.4875L216.767 43.4869L216.767 43.4864C216.773 43.2409 216.78 42.9951 216.78 42.7451C216.78 42.5727 216.779 42.4003 216.777 42.228C216.779 42.0556 216.78 41.8832 216.78 41.7109C216.78 41.4247 216.772 41.1441 216.764 40.8634L216.762 40.7689C216.075 44.8808 213.954 48.6617 210.712 51.4334C210.566 51.5591 210.547 51.7802 210.673 51.9276C210.797 52.0751 211.018 52.0937 211.164 51.9674Z" fill="white"/>
<path d="M216.245 48.7493C216.359 48.1277 216.458 47.4929 216.537 46.8405C215.189 49.4435 213.267 51.7537 210.871 53.5479C210.783 53.6142 210.73 53.7187 210.73 53.8296V55.8363C210.969 55.6821 211.201 55.5226 211.427 55.3578V54.0046C213.349 52.5392 214.971 50.7503 216.245 48.7493Z" fill="white"/>
<path d="M177.677 42.0025C178.419 42.5403 179.297 42.8235 180.215 42.8235C181.469 42.8235 182.664 42.2793 183.492 41.3305C183.618 41.1841 183.604 40.9625 183.46 40.8352C183.314 40.7068 183.095 40.7222 182.967 40.867C182.272 41.6646 181.268 42.1223 180.215 42.1223C179.444 42.1223 178.707 41.8837 178.083 41.4329C177.929 41.3204 177.709 41.3555 177.597 41.5135C177.484 41.6705 177.52 41.8895 177.677 42.0025Z" fill="white"/>
<path d="M179.034 36.6668C178.903 36.5258 178.682 36.5194 178.542 36.652C178.054 37.1145 177.775 37.7657 177.775 38.4388C177.775 39.7933 178.869 40.8943 180.215 40.8943C181.561 40.8943 182.655 39.7933 182.655 38.4388C182.655 37.1882 181.726 36.1397 180.492 35.9986C180.305 35.979 180.128 36.1153 180.107 36.3078C180.085 36.5003 180.222 36.6737 180.414 36.696C181.294 36.7957 181.958 37.5456 181.958 38.4388C181.958 39.4056 181.176 40.1932 180.215 40.1932C179.254 40.1932 178.472 39.4056 178.472 38.4388C178.472 37.9503 178.667 37.4979 179.02 37.1622C179.16 37.0296 179.166 36.8079 179.034 36.6668Z" fill="white"/>
<path d="M180.724 38.4387C180.724 38.1561 180.496 37.927 180.215 37.927C179.934 37.927 179.707 38.1561 179.707 38.4387C179.707 38.7209 179.934 38.9505 180.215 38.9505C180.496 38.9505 180.724 38.7209 180.724 38.4387Z" fill="white"/>
<path fill-rule="evenodd" clip-rule="evenodd" d="M175.759 31.8394V32.7074C176.988 31.7377 178.536 31.1589 180.215 31.1589C181.801 31.1589 183.308 31.6806 184.536 32.6026V31.7477C183.272 30.92 181.778 30.4578 180.215 30.4578C178.565 30.4578 177.03 30.9678 175.759 31.8394ZM175.858 58.7916H176.554V52.7924C176.554 52.5988 176.398 52.4418 176.206 52.4418C176.014 52.4418 175.858 52.5988 175.858 52.7924V58.7916ZM177.688 58.7916H178.385V44.3897C178.973 44.5732 179.587 44.6655 180.215 44.6655C181.895 44.6655 183.42 43.9887 184.536 42.8918V41.8443C183.53 43.1342 181.967 43.9643 180.215 43.9643C179.504 43.9643 178.816 43.8307 178.167 43.5676C178.059 43.5236 177.937 43.5363 177.841 43.6021C177.745 43.6673 177.688 43.776 177.688 43.8927V58.7916ZM180.128 58.7916H179.431V58.6978C179.431 58.5042 179.587 58.3472 179.779 58.3472C179.972 58.3472 180.128 58.5042 180.128 58.6978V58.7916ZM181.871 58.7916H181.174V47.7307C181.174 47.5371 181.33 47.3801 181.522 47.3801C181.715 47.3801 181.871 47.5371 181.871 47.7307V58.7916ZM183.614 58.7916H182.917V49.1461C182.917 48.9896 183.019 48.8523 183.169 48.8088C183.635 48.6737 184.092 48.5054 184.536 48.3062V49.0695C184.234 49.1954 183.926 49.3079 183.614 49.4065V58.7916ZM184.536 46.36V47.1266C184.053 47.3693 183.544 47.5759 183.011 47.7425C182.862 47.7425 182.725 47.6471 182.678 47.4975C182.62 47.3124 182.722 47.1157 182.906 47.0573C183.48 46.8757 184.025 46.6411 184.536 46.36ZM184.536 44.2735V45.1135C183.275 45.9386 181.762 46.419 180.128 46.419V56.2418C180.128 56.4359 179.972 56.5929 179.779 56.5929C179.587 56.5929 179.431 56.4359 179.431 56.2418V46.0568C179.431 45.9603 179.47 45.868 179.54 45.8017C179.609 45.7359 179.702 45.6962 179.799 45.7068C179.937 45.7142 180.076 45.7179 180.215 45.7179C181.834 45.7179 183.33 45.1804 184.536 44.2735ZM184.536 39.01V37.8652C184.256 35.7173 182.425 34.0536 180.215 34.0536C177.812 34.0536 175.858 36.0207 175.858 38.4386V51.331C175.858 51.5246 176.014 51.6816 176.206 51.6816C176.398 51.6816 176.555 51.5246 176.555 51.331V38.4386C176.555 36.4073 178.197 34.7548 180.215 34.7548C182.234 34.7548 183.876 36.4073 183.876 38.4386C183.876 38.6868 183.851 38.935 183.802 39.1753C183.764 39.3651 183.885 39.5508 184.074 39.5895C184.264 39.6293 184.447 39.5052 184.486 39.3158C184.506 39.2147 184.523 39.1127 184.536 39.01ZM184.536 35.0332V33.9858C183.42 32.8889 181.895 32.2122 180.215 32.2122C179.554 32.2122 178.903 32.3166 178.28 32.5235C178.098 32.5839 177.998 32.7823 178.059 32.9668C178.118 33.1504 178.314 33.2506 178.499 33.1896C179.051 33.0066 179.629 32.9133 180.215 32.9133C181.967 32.9133 183.53 33.7434 184.536 35.0332ZM180.215 29.4049C181.78 29.4049 183.253 29.8103 184.536 30.5221V29.7298C183.235 29.0734 181.767 28.7038 180.215 28.7038C178.654 28.7038 177.131 29.08 175.759 29.7993V30.5992C177.113 29.8163 178.644 29.4049 180.215 29.4049ZM184.536 28.565V27.8034C184.255 27.6881 183.968 27.5832 183.675 27.4892C183.491 27.4298 183.295 27.5316 183.237 27.7167C183.178 27.9013 183.28 28.0986 183.463 28.1575C183.831 28.2754 184.189 28.4116 184.536 28.565ZM181.471 27.0885C181.548 27.1601 181.593 27.2663 181.582 27.3799C181.566 27.5719 181.405 27.722 181.203 27.6965C180.878 27.6663 180.545 27.6509 180.215 27.6509C178.645 27.6509 177.131 27.9951 175.759 28.6266V27.8599C176.611 27.4963 177.511 27.2353 178.442 27.0885H181.471ZM177.677 42.0025C178.419 42.5403 179.297 42.8235 180.215 42.8235C181.469 42.8235 182.664 42.2793 183.492 41.3305C183.618 41.1841 183.604 40.9625 183.46 40.8352C183.314 40.7068 183.095 40.7222 182.967 40.867C182.272 41.6646 181.268 42.1223 180.215 42.1223C179.444 42.1223 178.707 41.8837 178.083 41.4329C177.929 41.3204 177.709 41.3555 177.597 41.5135C177.484 41.6705 177.52 41.8895 177.677 42.0025ZM179.034 36.6668C178.903 36.5258 178.682 36.5194 178.542 36.652C178.054 37.1145 177.775 37.7657 177.775 38.4388C177.775 39.7933 178.869 40.8943 180.215 40.8943C181.561 40.8943 182.655 39.7933 182.655 38.4388C182.655 37.1882 181.726 36.1397 180.492 35.9986C180.305 35.979 180.128 36.1153 180.107 36.3078C180.085 36.5003 180.222 36.6737 180.414 36.696C181.294 36.7957 181.958 37.5456 181.958 38.4388C181.958 39.4056 181.176 40.1932 180.215 40.1932C179.254 40.1932 178.472 39.4056 178.472 38.4388C178.472 37.9503 178.667 37.4979 179.02 37.1622C179.16 37.0296 179.166 36.8079 179.034 36.6668ZM180.724 38.4387C180.724 38.1561 180.496 37.927 180.215 37.927C179.934 37.927 179.707 38.1561 179.707 38.4387C179.707 38.7209 179.934 38.9505 180.215 38.9505C180.496 38.9505 180.724 38.7209 180.724 38.4387Z" fill="white"/>
<path d="M176.908 34.0306C177.062 33.9134 177.092 33.6938 176.976 33.5395C176.859 33.3841 176.64 33.3538 176.488 33.4711L175.759 34.1269V35.2077C176.076 34.7676 176.462 34.3707 176.908 34.0306Z" fill="white"/>
<path d="M172.032 112.023L176.438 102.025C178.678 103.378 181.069 104.204 182.638 104.204C184.057 104.204 185.028 103.829 185.925 102.55L170.089 62.6383H184.953L193.02 87.1418L200.641 62.6383H215.205L200.416 102.326C196.905 111.797 193.095 115.554 185.028 115.554C180.024 115.554 175.765 114.126 172.032 112.023Z" fill="white"/>
<path d="M130.27 62.6378H144.462V103.302H130.27V62.6378ZM129.971 48.4306H144.762V58.954H129.971V48.4306Z" fill="white"/>
<path d="M152.992 105.419H165.489L159.24 126.022L152.992 105.419Z" fill="white"/>
<path d="M172.136 2.542C172.136 1.14398 170.999 0 169.61 0H157.645C156.255 0 155.119 1.14398 155.119 2.542V3.50999C153.917 3.70393 152.992 4.75859 152.992 6.0201L152.992 59H165.489L165.489 6.0201C165.489 4.85332 164.697 3.86349 163.627 3.56797V2.67565H169.477V46.0206H172.136V2.542Z" fill="white"/>
<path d="M152.992 103.278H165.489V62.6H152.992V103.278Z" fill="white"/>
<path d="M165.489 59H152.992L152.992 62.6H165.489L165.489 59Z" fill="#00BAFF"/>
<path d="M100.237 90.6749V74.1379H95.4562V62.6376H100.237V52.3402H114.429V62.6376H123.841V74.1379H114.429V87.8932C114.429 90.7503 115.699 91.9526 118.312 91.9526C120.18 91.9526 121.973 91.4254 123.691 90.5996V101.8C121.152 103.227 117.791 104.128 113.831 104.128C105.317 104.128 100.237 100.371 100.237 90.6749Z" fill="white"/>
<path d="M77.1199 88.5044V86.6259C75.7011 86.024 73.6846 85.5732 71.5923 85.5732C67.485 85.5732 65.0944 87.6034 65.0944 90.6094V90.76C65.0944 93.5407 67.1857 95.1944 70.0986 95.1944C74.2069 95.1944 77.1199 92.5643 77.1199 88.5044ZM51.425 91.5863V91.4357C51.425 83.0174 57.7743 78.6584 67.2605 78.6584C70.9951 78.6584 74.656 79.4099 76.9713 80.2367V79.5605C76.9713 75.3511 74.3566 72.9454 68.9038 72.9454C64.6458 72.9454 61.3592 73.7722 57.7743 75.2004L54.8602 65.1284C59.4176 63.2489 64.2727 61.9707 71.2197 61.9707C78.4649 61.9707 83.3954 63.6997 86.6072 66.9317C89.6699 69.9393 90.939 74.1477 90.939 79.8607V103.237H76.8964V99.0288C74.1321 102.11 70.3232 104.139 65.0195 104.139C57.3252 104.139 51.425 99.704 51.425 91.5863Z" fill="white"/>
<path d="M84.4876 71.4228C84.2779 71.5416 84.2036 71.8089 84.3216 72.0205C85.4848 74.1001 86.1447 76.3636 86.2843 78.7486C86.298 78.9815 86.4899 79.1607 86.7186 79.1607C86.9853 79.1459 87.1682 78.9385 87.1545 78.6961C87.0074 76.178 86.3101 73.7871 85.0816 71.5894C84.9635 71.3793 84.699 71.3046 84.4876 71.4228Z" fill="#00BAFF"/>
<path d="M75.0552 65.9933C74.8249 65.9185 74.5809 66.0463 74.5081 66.2781C74.4349 66.5083 74.5614 66.7554 74.7912 66.8291C80.3783 68.6207 84.133 73.7869 84.133 79.6829C84.133 82.053 83.5005 84.394 82.3052 86.4518C82.1835 86.6608 82.253 86.9297 82.4612 87.0511C82.5303 87.0925 82.6056 87.1116 82.6805 87.1116C82.8307 87.1116 82.9761 87.0341 83.0573 86.8946C84.3312 84.7027 85.0042 82.209 85.0042 79.6829C85.0042 73.4024 81.006 67.901 75.0552 65.9933Z" fill="#00BAFF"/>
<path d="M57.6062 74.0333C57.5108 74.2566 57.6136 74.5143 57.8344 74.6093C57.8908 74.6342 57.9488 74.6453 58.0062 74.6453C58.1754 74.6453 58.3362 74.5462 58.4068 74.3802C60.5276 69.4081 65.3653 66.1957 70.7296 66.1957C71.1417 66.1957 71.5581 66.2148 71.9655 66.253C72.2174 66.2843 72.4182 66.0965 72.4393 65.8563C72.4614 65.615 72.2849 65.4012 72.0456 65.3789C71.6113 65.3386 71.1691 65.319 70.7296 65.319C65.0159 65.319 59.8646 68.7393 57.6062 74.0333Z" fill="#00BAFF"/>
<path d="M67.5559 84.139C68.4841 84.811 69.5819 85.1658 70.7298 85.1658C72.2978 85.1658 73.7914 84.4848 74.8265 83.2984C74.9846 83.116 74.9672 82.8386 74.7865 82.6795C74.6041 82.5193 74.3306 82.5379 74.1703 82.7193C73.3012 83.7163 72.0469 84.2886 70.7298 84.2886C69.7658 84.2886 68.844 83.9905 68.064 83.4268C67.8706 83.2862 67.596 83.3297 67.4563 83.5275C67.3151 83.7238 67.3599 83.9974 67.5559 84.139Z" fill="#00BAFF"/>
<path d="M71.3656 79.6833C71.3656 79.3296 71.081 79.0437 70.73 79.0437C70.379 79.0437 70.0939 79.3296 70.0939 79.6833C70.0939 80.036 70.379 80.3229 70.73 80.3229C71.081 80.3229 71.3656 80.036 71.3656 79.6833Z" fill="#00BAFF"/>
<path d="M58.4778 63.8559C57.7408 64.0874 57.0216 64.3371 56.3138 64.6024C55.8395 65.0317 55.4054 65.473 55.024 65.9216L55.2166 66.5872C55.278 66.6188 55.3096 66.6854 55.2825 66.8153L55.3238 66.9579C56.2568 65.8133 57.3139 64.7718 58.4778 63.8559Z" fill="#00BAFF"/>
<path d="M66.9849 62.2047C65.4292 62.3355 63.9833 62.5392 62.618 62.8048C59.9054 64.1301 57.5581 66.0986 55.7733 68.5119L56.083 69.5825C58.6169 65.8736 62.5046 63.1706 67.0226 62.2016L66.9849 62.2047Z" fill="#00BAFF"/>
<path d="M70.7299 63.126C68.5611 63.126 66.4534 63.5455 64.4638 64.3734C64.2414 64.4657 64.136 64.7224 64.2282 64.9462C64.32 65.1695 64.5772 65.2777 64.7969 65.1833C66.6795 64.4 68.676 64.0027 70.7299 64.0027C75.4216 64.0027 79.8219 66.1088 82.8023 69.7799C82.8882 69.886 83.0142 69.9406 83.1396 69.9406C83.2371 69.9406 83.3346 69.9077 83.4158 69.8414C83.6018 69.6887 83.6298 69.4118 83.4769 69.2246C80.3305 65.3493 75.6846 63.126 70.7299 63.126Z" fill="#00BAFF"/>
<path d="M62.514 66.3636C62.7185 66.2358 62.7807 65.9653 62.6537 65.7596C62.5267 65.5538 62.2579 65.4907 62.0534 65.6196C59.7519 67.0624 57.8888 68.9974 56.5637 71.2443L56.9061 72.4281C58.1737 69.9858 60.0865 67.8856 62.514 66.3636Z" fill="#00BAFF"/>
<path fill-rule="evenodd" clip-rule="evenodd" d="M54.8135 65.1937L55.024 65.9216C55.4054 65.473 55.8395 65.0317 56.3138 64.6024C55.8087 64.7918 55.3093 64.9892 54.8135 65.1937ZM55.2166 66.5872C55.278 66.6188 55.3096 66.6854 55.2825 66.8153L55.2166 66.5872ZM60.9566 74.1344C60.5655 74.25 60.1755 74.3739 59.7848 74.5057C60.3025 73.4006 60.9883 72.3703 61.8278 71.4513C61.9902 71.2731 62.2674 71.2614 62.4434 71.4248C62.6205 71.5887 62.6321 71.8671 62.4692 72.0448C61.8821 72.6874 61.376 73.3888 60.9566 74.1344ZM74.1458 62.1418C75.9542 62.2764 77.5949 62.5386 79.0803 62.9237C85.1731 66.01 89.3627 72.3632 89.3627 79.6831C89.3627 86.1471 85.9275 92.2838 80.3983 95.6988C80.3266 95.7428 80.248 95.7635 80.1711 95.7635C80.0241 95.7635 79.8807 95.6892 79.799 95.5545C79.6736 95.3482 79.7368 95.0783 79.9424 94.9515C85.2149 91.6951 88.4915 85.8448 88.4915 79.6831C88.4915 71.0035 82.3107 63.749 74.1458 62.1418ZM90.6161 78.1932C90.2678 73.4412 88.2335 68.9613 84.8835 65.5615C85.4881 66.0009 86.0463 66.4796 86.5604 66.9969C89.3729 69.7593 90.6732 73.5346 90.8666 78.5578C90.7287 78.4929 90.6284 78.3569 90.6161 78.1932ZM90.6683 80.0137C90.6707 79.8556 90.765 79.7258 90.8912 79.6511C90.8919 79.7422 90.8922 79.8336 90.8922 79.9254V84.8114C89.5491 90.0502 86.1979 94.6974 81.5173 97.5807V103.303H80.6461V97.3331C80.6461 97.1782 80.7272 97.0355 80.8585 96.956C86.7924 93.3989 90.5508 86.9073 90.6683 80.0137ZM83.6963 103.303H82.8251V98.5802C82.8251 98.3378 83.0206 98.1415 83.2609 98.1415C83.5018 98.1415 83.6963 98.3378 83.6963 98.5802V103.303ZM85.8764 103.303H85.0052V99.6709C85.0052 99.533 85.0701 99.402 85.1802 99.3193C87.4389 97.6278 89.3608 95.5697 90.8922 93.2644V94.7874C89.4808 96.6996 87.7987 98.4245 85.8764 99.8905V103.303ZM87.1841 103.303H88.0559V100.953C88.841 100.302 90.0986 99.0355 90.8922 98.2039V96.8849C89.8259 98.1604 88.6439 99.3441 87.3454 100.403C87.2432 100.487 87.1841 100.612 87.1841 100.744V103.303ZM90.8922 88.7996V90.756C89.546 93.2259 87.7456 95.4635 85.547 97.3429C85.3636 97.5005 85.0879 97.4777 84.9325 97.2931C84.7759 97.1091 84.7991 96.8322 84.9825 96.6752C87.5461 94.483 89.549 91.7865 90.8922 88.7996ZM79.3381 103.303H78.4669V97.3373C78.4669 97.0954 78.6614 96.8992 78.9022 96.8992C79.1431 96.8992 79.3381 97.0954 79.3381 97.3373V103.303ZM77.147 103.303H76.8491V102.985C76.9968 103.03 77.1111 103.151 77.147 103.303ZM76.8491 102.07V99.0941C76.6665 99.2978 76.4792 99.4969 76.2873 99.6911V94.6292C76.2873 94.4505 76.3954 94.2898 76.5598 94.223C82.2893 91.8851 86.1146 86.3652 86.3054 80.1616C86.3122 79.9245 86.5062 79.7368 86.7539 79.7368C86.9947 79.7442 87.1839 79.9463 87.1766 80.1887C86.9784 86.6404 83.0572 92.3916 77.1591 94.922V101.651C77.1591 101.848 77.0285 102.016 76.8491 102.07ZM74.979 100.876C74.6974 101.104 74.4071 101.322 74.1078 101.529V94.1957C74.4193 94.0042 74.7104 93.7886 74.979 93.5502V100.876ZM72.8 94.8149C72.5198 94.9132 72.229 94.9958 71.9282 95.0622V102.775C72.2261 102.638 72.5166 102.491 72.8 102.337V94.8149ZM68.4414 95.0732V103.886C68.1563 103.941 67.866 103.989 67.5702 104.03V94.7787C67.8436 94.8988 68.1347 94.9973 68.4414 95.0732ZM69.7496 101.942V95.2542C69.8491 95.2582 69.9497 95.2602 70.0513 95.2602C70.2438 95.2602 70.4337 95.2544 70.6208 95.243V101.942C70.6208 102.184 70.4257 102.381 70.1849 102.381C69.9446 102.381 69.7496 102.184 69.7496 101.942ZM66.1528 93.7955C65.766 93.386 65.4696 92.8965 65.2816 92.3345V95.8022C65.2816 96.0446 65.4766 96.2408 65.7174 96.2408C65.9577 96.2408 66.1528 96.0446 66.1528 95.8022V93.7955ZM65.2816 89.1352C65.4665 88.5651 65.7593 88.0504 66.1528 87.6022V79.6831C66.1528 79.3596 66.1861 79.0438 66.2494 78.739C65.9478 78.7487 65.6497 78.763 65.3551 78.7819C65.3067 79.0752 65.2816 79.3762 65.2816 79.6831V89.1352ZM68.3278 86.1591C68.06 86.2589 67.8073 86.3723 67.5703 86.4984C67.5715 86.354 67.643 86.2199 67.7621 86.1389C67.8817 86.0567 68.0335 86.0408 68.169 86.0954L68.3278 86.1591ZM75.1509 86.0688C74.7455 85.971 74.3205 85.8867 73.8816 85.8193C76.0855 84.6682 77.5946 82.3497 77.5946 79.6829C77.5946 75.8744 74.5151 72.775 70.7299 72.775C70.1242 72.775 69.5267 72.8545 68.9485 73.0109C68.9179 73.0107 68.8873 73.0107 68.8565 73.0107C68.6157 73.0107 68.378 73.0133 68.1432 73.0186C68.0946 72.9709 68.0565 72.9111 68.034 72.8418C67.9587 72.6116 68.0831 72.3629 68.3107 72.2876C69.0892 72.0288 69.9035 71.8983 70.7299 71.8983C74.9957 71.8983 78.4658 75.3907 78.4658 79.6829C78.4658 82.323 77.1535 84.6603 75.1509 86.0688ZM67.6787 79.6832C67.6787 79.3576 67.7311 79.0359 67.8306 78.7304C68.1379 78.7371 68.4442 78.7486 68.7489 78.7647C68.6186 79.0482 68.5499 79.3594 68.5499 79.6832C68.5499 80.8919 69.5286 81.8768 70.7298 81.8768C71.9314 81.8768 72.9091 80.8919 72.9091 79.6832C72.9091 79.5352 72.8945 79.3904 72.8667 79.2502C73.1747 79.3065 73.4764 79.3663 73.7705 79.4289C73.7773 79.5129 73.7808 79.5977 73.7808 79.6832C73.7808 81.3767 72.4121 82.7535 70.7298 82.7535C69.0469 82.7535 67.6787 81.3767 67.6787 79.6832ZM76.1661 80.0493C75.8924 79.964 75.605 79.8803 75.3055 79.7991C75.2986 80.0705 75.2678 80.3411 75.2147 80.6043C75.1668 80.8414 75.3191 81.0731 75.5547 81.1219C75.7924 81.1718 76.0211 81.0164 76.0691 80.7798C76.1174 80.5399 76.1499 80.2955 76.1661 80.0493ZM63.906 78.9155C63.6061 78.9519 63.3104 78.9934 63.019 79.0401C63.0019 79.2527 62.9932 79.4673 62.9932 79.6833V82.7169C62.9932 82.9593 63.1882 83.1555 63.4291 83.1555C63.6694 83.1555 63.8644 82.9593 63.8644 82.7169V79.6833C63.8644 79.4246 63.8784 79.1684 63.906 78.9155ZM61.6933 79.2949C61.3954 79.3622 61.1027 79.4354 60.8154 79.5145C60.8145 79.5706 60.814 79.6268 60.814 79.6831V91.1234C60.814 91.3658 61.009 91.562 61.2499 91.562C61.4902 91.562 61.6852 91.3658 61.6852 91.1234V79.6831C61.6852 79.5531 61.6879 79.4237 61.6933 79.2949ZM66.1531 104.17V97.6297C66.1531 97.3873 65.9581 97.1911 65.7173 97.1911C65.4764 97.1911 65.2814 97.3873 65.2814 97.6297V104.202C65.5766 104.197 65.8672 104.187 66.1531 104.17ZM63.8643 104.173V85.6414C63.8643 85.399 63.6693 85.2028 63.429 85.2028C63.1881 85.2028 62.9931 85.399 62.9931 85.6414V104.102C63.2803 104.133 63.5708 104.156 63.8643 104.173ZM61.6856 103.915V94.7052C61.6856 94.4634 61.4906 94.2671 61.2497 94.2671C61.0089 94.2671 60.8139 94.4634 60.8139 94.7052V103.73C61.1001 103.799 61.3907 103.861 61.6856 103.915ZM59.5061 103.352V102.235C59.5061 101.993 59.3111 101.797 59.0708 101.797C58.8299 101.797 58.6349 101.993 58.6349 102.235V103.024C58.9192 103.142 59.2097 103.251 59.5061 103.352ZM57.3259 102.393V88.4919C57.3259 88.2496 57.1315 88.0533 56.8906 88.0533C56.6497 88.0533 56.4547 88.2496 56.4547 88.4919V101.862C56.7358 102.05 57.0264 102.227 57.3259 102.393ZM55.147 100.846V82.4439C54.8393 82.716 54.5487 83.0028 54.2758 83.3042V99.9666C54.5496 100.276 54.8404 100.569 55.147 100.846ZM52.0967 86.9883C52.3323 86.316 52.6237 85.6839 52.9679 85.0924V98.1371C52.6253 97.5353 52.3333 96.8905 52.0967 96.2038V86.9883ZM56.4549 81.4425V86.4454C56.4549 86.6872 56.65 86.8835 56.8908 86.8835C57.1311 86.8835 57.3262 86.6872 57.3262 86.4454V80.9136C57.0257 81.0805 56.7352 81.2568 56.4549 81.4425ZM58.635 80.273V99.6769C58.635 99.9192 58.83 100.115 59.0709 100.115C59.3112 100.115 59.5062 99.9192 59.5062 99.6769V79.9294C59.2089 80.0368 58.9184 80.1513 58.635 80.273ZM70.7298 70.5816C68.1712 70.5816 65.8574 71.656 64.2106 73.3801C63.7468 73.4574 63.2904 73.5463 62.839 73.6465C64.6519 71.2523 67.5146 69.7044 70.7298 69.7044C74.3743 69.7044 77.7184 71.7145 79.4576 74.9507C79.5725 75.1644 79.494 75.4301 79.2821 75.5447C79.0724 75.6598 78.8062 75.5818 78.6919 75.3681C77.1039 72.4156 74.0533 70.5816 70.7298 70.5816ZM77.0726 86.6912C76.9459 86.6374 76.8144 86.5849 76.6785 86.5337C78.5752 84.8642 79.775 82.4119 79.775 79.6829C79.775 78.803 79.6495 77.9332 79.4029 77.0984C79.3333 76.8667 79.4656 76.6216 79.6959 76.5532C79.9278 76.48 80.1692 76.6153 80.2377 76.8481C80.5091 77.7646 80.6462 78.7181 80.6462 79.6829C80.6462 82.751 79.2632 85.4999 77.0726 87.3316V86.6912ZM76.9217 90.1129C76.9932 89.7617 77.0401 89.3959 77.0606 89.0164C80.0754 86.9548 81.9538 83.5047 81.9538 79.683C81.9538 73.4556 76.9184 68.3885 70.7299 68.3885C68.56 68.3885 66.4524 69.016 64.6357 70.2029C64.4338 70.3349 64.1634 70.2766 64.0327 70.074C63.9015 69.8709 63.9589 69.5993 64.1608 69.4673C66.1203 68.1875 68.3914 67.5119 70.7299 67.5119C77.3996 67.5119 82.825 72.9713 82.825 79.683C82.825 84.0339 80.5673 87.9369 76.9217 90.1129ZM75.2299 93.3144C75.6274 92.9188 75.9683 92.4686 76.2449 91.9692C78.2287 91.0563 79.997 89.6498 81.342 87.8917C81.488 87.6997 81.762 87.6631 81.9528 87.8116C82.1436 87.9601 82.1795 88.2354 82.0324 88.4268C80.2968 90.6959 77.8981 92.4153 75.2299 93.3144ZM84.3216 72.0205C84.2036 71.8089 84.2779 71.5416 84.4876 71.4228C84.699 71.3046 84.9635 71.3793 85.0816 71.5894C86.3101 73.7871 87.0074 76.178 87.1545 78.6961C87.1682 78.9385 86.9853 79.1459 86.7186 79.1607C86.4899 79.1607 86.298 78.9815 86.2843 78.7486C86.1447 76.3636 85.4848 74.1001 84.3216 72.0205ZM74.5081 66.2781C74.5809 66.0463 74.8249 65.9185 75.0552 65.9933C81.006 67.901 85.0042 73.4024 85.0042 79.6829C85.0042 82.209 84.3312 84.7027 83.0573 86.8946C82.9761 87.0341 82.8307 87.1116 82.6805 87.1116C82.6056 87.1116 82.5303 87.0925 82.4612 87.0511C82.253 86.9297 82.1835 86.6608 82.3052 86.4518C83.5005 84.394 84.133 82.053 84.133 79.6829C84.133 73.7869 80.3783 68.6207 74.7912 66.8291C74.5614 66.7554 74.4349 66.5083 74.5081 66.2781ZM57.8344 74.6093C57.6136 74.5143 57.5108 74.2566 57.6062 74.0333C59.8646 68.7393 65.0159 65.319 70.7296 65.319C71.1691 65.319 71.6113 65.3386 72.0456 65.3789C72.2849 65.4012 72.4614 65.615 72.4393 65.8563C72.4182 66.0965 72.2174 66.2843 71.9655 66.253C71.5581 66.2148 71.1417 66.1957 70.7296 66.1957C65.3653 66.1957 60.5276 69.4081 58.4068 74.3802C58.3362 74.5462 58.1754 74.6453 58.0062 74.6453C57.9488 74.6453 57.8908 74.6342 57.8344 74.6093ZM70.7298 85.1658C69.5819 85.1658 68.4841 84.811 67.5559 84.139C67.3599 83.9974 67.3151 83.7238 67.4563 83.5275C67.596 83.3297 67.8706 83.2862 68.064 83.4268C68.844 83.9905 69.7658 84.2886 70.7298 84.2886C72.0469 84.2886 73.3012 83.7163 74.1703 82.7193C74.3306 82.5379 74.6041 82.5193 74.7865 82.6795C74.9672 82.8386 74.9846 83.116 74.8265 83.2984C73.7914 84.4848 72.2978 85.1658 70.7298 85.1658ZM71.3656 79.6833C71.3656 79.3296 71.081 79.0437 70.73 79.0437C70.379 79.0437 70.0939 79.3296 70.0939 79.6833C70.0939 80.036 70.379 80.3229 70.73 80.3229C71.081 80.3229 71.3656 80.036 71.3656 79.6833Z" fill="#00BAFF"/>
<path d="M24.5527 75.9419C29.4826 75.9419 32.3208 73.5368 32.3208 69.7033V69.5527C32.3208 65.4186 29.3335 63.3141 24.4778 63.3141H14.9916V75.9419H24.5527ZM0.5 50.6863H25.2247C33.2173 50.6863 38.7449 52.7908 42.2561 56.3983C45.3187 59.4054 46.8872 63.4648 46.8872 68.6506V68.8012C46.8872 76.8441 42.6292 82.1805 36.1302 84.9622L48.6053 103.302H31.8733L21.3409 87.3674H14.9916V103.302H0.5V50.6863Z" fill="white"/>
</g>
<defs>
<clipPath id="clip0_1372_6892">
<rect width="217" height="128" fill="white" transform="translate(0.5)"/>
</clipPath>
</defs>
</svg>
