<svg width="190" height="110" viewBox="0 0 190 110" fill="none" xmlns="http://www.w3.org/2000/svg">
    <g clip-path="url(#clip0_1372_6946)">
        <ellipse cx="2.01843" cy="108.291" rx="1.7305" ry="1.70916" fill="#00BAFF"/>
        <ellipse cx="8.24823" cy="108.291" rx="1.7305" ry="1.70916" fill="#00BAFF"/>
        <ellipse cx="14.4781" cy="108.291" rx="1.7305" ry="1.70916" fill="#00BAFF"/>
        <ellipse cx="20.7078" cy="108.291" rx="1.7305" ry="1.70916" fill="#00BAFF"/>
        <ellipse cx="26.9377" cy="108.291" rx="1.7305" ry="1.70916" fill="#00BAFF"/>
        <ellipse cx="33.1675" cy="108.291" rx="1.7305" ry="1.70916" fill="#00BAFF"/>
        <ellipse cx="39.3972" cy="108.291" rx="1.7305" ry="1.70916" fill="#00BAFF"/>
        <ellipse cx="45.6271" cy="108.291" rx="1.7305" ry="1.70916" fill="#00BAFF"/>
        <ellipse cx="51.8568" cy="108.291" rx="1.7305" ry="1.70916" fill="#00BAFF"/>
        <ellipse cx="58.0866" cy="108.291" rx="1.7305" ry="1.70916" fill="#00BAFF"/>
        <ellipse cx="64.3165" cy="108.291" rx="1.7305" ry="1.70916" fill="#00BAFF"/>
        <ellipse cx="70.5463" cy="108.291" rx="1.7305" ry="1.70916" fill="#00BAFF"/>
        <ellipse cx="76.776" cy="108.291" rx="1.7305" ry="1.70916" fill="#00BAFF"/>
        <ellipse cx="83.0058" cy="108.291" rx="1.7305" ry="1.70916" fill="#00BAFF"/>
        <ellipse cx="89.2357" cy="108.291" rx="1.7305" ry="1.70916" fill="#00BAFF"/>
        <ellipse cx="95.4654" cy="108.291" rx="1.7305" ry="1.70916" fill="#00BAFF"/>
        <ellipse cx="101.695" cy="108.291" rx="1.7305" ry="1.70916" fill="#00BAFF"/>
        <ellipse cx="107.925" cy="108.291" rx="1.7305" ry="1.70916" fill="#00BAFF"/>
        <ellipse cx="114.155" cy="108.291" rx="1.7305" ry="1.70916" fill="#00BAFF"/>
        <ellipse cx="120.385" cy="108.291" rx="1.7305" ry="1.70916" fill="#00BAFF"/>
        <ellipse cx="126.614" cy="108.291" rx="1.7305" ry="1.70916" fill="#00BAFF"/>
        <ellipse cx="132.844" cy="108.291" rx="1.7305" ry="1.70916" fill="#00BAFF"/>
        <ellipse cx="139.074" cy="108.291" rx="1.7305" ry="1.70916" fill="#00BAFF"/>
        <path d="M174.552 43.8297C179.123 43.8297 182.158 41.3388 182.158 36.9402V36.8627C182.158 32.5036 179.123 29.9732 174.552 29.9732H171.439V43.8297H174.552ZM163.794 23.2792H174.434C184.286 23.2792 190 28.8834 190 36.746V36.8239C190 44.6861 184.207 50.5241 174.276 50.5241H163.794V23.2792Z" fill="white"/>
        <path d="M153.453 23.2787H161.138V50.5241H153.453V23.2787Z" fill="white"/>
        <path fill-rule="evenodd" clip-rule="evenodd" d="M182.052 38.3081C182.042 38.3671 182.032 38.4258 182.021 38.484C182.05 38.4287 182.06 38.3673 182.052 38.3081Z" fill="black"/>
        <path d="M163.794 24.5935V25.6138C164.391 24.7507 165.095 23.9662 165.889 23.2795H164.99C164.562 23.6899 164.162 24.129 163.794 24.5935Z" fill="black"/>
        <path d="M163.794 27.3691V28.8934C164.608 26.636 166.179 24.6852 168.322 23.366C168.36 23.3431 168.391 23.3134 168.414 23.2795H167.357C165.829 24.3622 164.618 25.7668 163.794 27.3691Z" fill="black"/>
        <path d="M164.885 28.6378C164.819 28.7913 164.891 28.9682 165.045 29.0338C165.085 29.0507 165.125 29.0584 165.166 29.0584C165.284 29.0584 165.397 28.9905 165.446 28.8761C166.832 25.6861 169.877 23.5497 173.331 23.2795H170.555C168.054 24.2096 165.982 26.1138 164.885 28.6378Z" fill="black"/>
        <path d="M174.076 24.1553C172.438 24.1553 170.847 24.6197 169.476 25.4994C169.334 25.5901 169.294 25.777 169.386 25.9164C169.477 26.0559 169.667 26.096 169.808 26.0053C171.081 25.189 172.556 24.7578 174.076 24.7578C178.41 24.7578 181.936 28.2409 181.936 32.5211C181.936 33.12 181.868 33.7056 181.737 34.2697C181.864 34.6258 181.963 35.0021 182.034 35.398C182.368 34.496 182.546 33.5259 182.546 32.5211C182.546 27.9082 178.747 24.1553 174.076 24.1553Z" fill="black"/>
        <path d="M167.842 26.8631C166.4 28.4122 165.606 30.4217 165.606 32.521V46.2636C165.606 46.4304 165.743 46.5648 165.911 46.5648C166.079 46.5648 166.216 46.4304 166.216 46.2636V32.521C166.216 30.5731 166.953 28.7085 168.291 27.271C168.405 27.1488 168.397 26.9574 168.273 26.8448C168.15 26.7327 167.956 26.7404 167.842 26.8631Z" fill="black"/>
        <path d="M164.765 29.8438C164.602 29.8014 164.436 29.8998 164.393 30.0607C164.185 30.862 164.079 31.6892 164.079 32.521V37.169C164.079 37.3354 164.216 37.4703 164.385 37.4703C164.553 37.4703 164.689 37.3354 164.689 37.169V32.521C164.689 31.7407 164.789 30.9632 164.985 30.2107C165.027 30.0498 164.929 29.8857 164.765 29.8438Z" fill="black"/>
        <path d="M164.689 38.5759C164.689 38.4091 164.553 38.2742 164.385 38.2742C164.216 38.2742 164.079 38.4091 164.079 38.5759V50.1499C164.166 50.2767 164.254 50.4014 164.343 50.5244H164.689V38.5759Z" fill="black"/>
        <path d="M167.132 32.5211V40.3846C167.132 40.5514 167.268 40.6859 167.437 40.6859C167.605 40.6859 167.742 40.5514 167.742 40.3846V32.5211C167.742 29.0713 170.583 26.2651 174.076 26.2651C176.404 26.2651 178.54 27.5258 179.652 29.5554C179.732 29.7021 179.918 29.7559 180.065 29.6766C180.213 29.5978 180.268 29.415 180.188 29.2682C178.97 27.0441 176.628 25.6626 174.076 25.6626C170.247 25.6626 167.132 28.7391 167.132 32.5211Z" fill="black"/>
        <path d="M166.216 48.0224C166.216 47.8556 166.079 47.7211 165.911 47.7211C165.742 47.7211 165.606 47.8556 165.606 48.0224V50.5244H166.216V48.0224Z" fill="black"/>
        <path d="M167.437 42.5454C167.268 42.5454 167.132 42.6803 167.132 42.8466V50.5244H167.742V42.8466C167.742 42.6803 167.605 42.5454 167.437 42.5454Z" fill="black"/>
        <path d="M169.268 36.6162C169.268 36.4499 169.131 36.315 168.963 36.315C168.794 36.315 168.658 36.4499 168.658 36.6162V50.5244H169.268V36.6162Z" fill="black"/>
        <path d="M170.566 44.5552C170.397 44.5552 170.261 44.6901 170.261 44.8564V50.5244H170.871V44.8564C170.871 44.6901 170.734 44.5552 170.566 44.5552Z" fill="black"/>
        <path d="M170.26 32.5211V43.6005C170.26 43.7669 170.397 43.9018 170.565 43.9018C170.734 43.9018 170.871 43.7669 170.871 43.6005V32.5211C170.871 31.8539 171.081 31.2343 171.439 30.7233V29.9735H172.175C172.707 29.5851 173.365 29.3553 174.076 29.3553C174.849 29.3553 175.56 29.6273 176.114 30.0795C176.47 30.1299 176.814 30.1979 177.144 30.2833C176.448 29.3554 175.332 28.7528 174.076 28.7528C171.972 28.7528 170.26 30.4432 170.26 32.5211Z" fill="black"/>
        <path d="M170.812 28.2522C169.443 29.2754 168.658 30.8314 168.658 32.521V34.6066C168.658 34.773 168.794 34.9079 168.963 34.9079C169.132 34.9079 169.268 34.773 169.268 34.6066V32.521C169.268 31.0219 169.966 29.6414 171.18 28.733C171.315 28.6323 171.342 28.4436 171.24 28.311C171.138 28.1774 170.946 28.1514 170.812 28.2522Z" fill="black"/>
        <path d="M174.076 27.1703C173.497 27.1703 172.927 27.2601 172.382 27.4378C172.222 27.4898 172.135 27.6603 172.188 27.8189C172.24 27.9766 172.411 28.0627 172.573 28.0103C173.057 27.853 173.562 27.7728 174.076 27.7728C176.108 27.7728 177.85 29.0252 178.552 30.7895C178.826 30.9196 179.087 31.0648 179.333 31.2246C178.745 28.8984 176.611 27.1703 174.076 27.1703Z" fill="black"/>
        <path d="M181.021 32.5213C181.021 31.8581 180.924 31.2027 180.734 30.5728C180.686 30.4124 180.518 30.3194 180.355 30.37C180.194 30.417 180.101 30.5851 180.15 30.7447C180.282 31.1834 180.364 31.6359 180.395 32.0952C180.621 32.328 180.828 32.5789 181.013 32.8473C181.018 32.7393 181.021 32.6306 181.021 32.5213Z" fill="black"/>
        <path d="M176.92 23.6858C180.833 24.9173 183.462 28.4683 183.462 32.521C183.462 34.15 183.02 35.7593 182.182 37.1736C182.17 37.1945 182.16 37.2163 182.153 37.2386C182.151 37.2893 182.149 37.3397 182.147 37.3899C182.165 37.4694 182.214 37.5416 182.291 37.5856C182.34 37.6138 182.392 37.6271 182.445 37.6271C182.55 37.6271 182.652 37.5737 182.709 37.478C183.601 35.9712 184.072 34.2571 184.072 32.521C184.072 28.6627 181.835 25.2318 178.384 23.6104C177.842 23.5146 177.283 23.439 176.708 23.3844C176.701 23.5174 176.785 23.6434 176.92 23.6858Z" fill="black"/>
        <path d="M182.53 25.714C182.59 25.7869 182.679 25.8247 182.767 25.8247C182.835 25.8247 182.903 25.8024 182.96 25.7568C183.09 25.6515 183.11 25.4615 183.003 25.3325C182.89 25.196 182.774 25.0624 182.656 24.9319C182.177 24.7075 181.676 24.5043 181.155 24.3233C181.649 24.7412 182.11 25.2057 182.53 25.714Z" fill="black"/>
        <path d="M183.71 26.8435C183.564 26.925 183.512 27.1087 183.594 27.2541C184.409 28.6834 184.871 30.2394 184.969 31.8789C184.978 32.0388 185.113 32.1619 185.273 32.1619C185.459 32.1519 185.588 32.0092 185.578 31.8429C185.475 30.1118 184.986 28.4688 184.126 26.9579C184.044 26.8134 183.859 26.7623 183.71 26.8435Z" fill="black"/>
        <path d="M186.514 32.5211C186.514 36.7562 184.22 40.7775 180.528 43.0158C180.384 43.1028 180.339 43.2883 180.427 43.4305C180.484 43.5226 180.584 43.5737 180.688 43.5737C180.742 43.5737 180.797 43.5595 180.847 43.5294C184.719 41.1822 187.124 36.964 187.124 32.5211C187.124 30.5626 186.68 28.7047 185.885 27.0409C185.503 26.7009 185.097 26.381 184.665 26.0825C185.837 27.9559 186.514 30.1619 186.514 32.5211Z" fill="black"/>
        <path d="M188.306 31.776C188.497 31.7627 188.623 31.6187 188.611 31.4524C188.584 31.0791 188.541 30.7081 188.484 30.3402C188.204 29.8162 187.888 29.3156 187.534 28.8404C187.777 29.7038 187.935 30.5933 188.002 31.497C188.015 31.6552 188.148 31.776 188.306 31.776Z" fill="black"/>
        <path d="M188.649 32.7582C188.652 32.5919 188.517 32.4547 188.349 32.452C188.195 32.4611 188.042 32.5819 188.039 32.7482C187.957 37.4869 185.325 41.9485 181.169 44.3937C181.077 44.448 181.02 44.5464 181.02 44.6526V49.4552C181.227 49.3824 181.43 49.306 181.631 49.2263V44.8231C185.88 42.2539 188.565 37.6473 188.649 32.7582Z" fill="black"/>
        <path d="M185.594 32.8686C185.599 32.7023 185.466 32.5633 185.298 32.5582C185.124 32.5582 184.988 32.6872 184.984 32.8499C184.887 35.9122 183.479 38.7319 181.207 40.6733C180.634 41.6211 179.819 42.368 178.806 42.8968C182.81 41.11 185.457 37.2214 185.594 32.8686Z" fill="black"/>
        <path d="M177.968 47.6203C177.968 47.7866 178.105 47.9215 178.273 47.9215C178.442 47.9215 178.578 47.7866 178.578 47.6203V43.0104C178.382 43.1041 178.178 43.19 177.968 43.2679V47.6203Z" fill="black"/>
        <path d="M176.442 50.4274C176.647 50.4085 176.85 50.3869 177.052 50.3626V43.5472C176.853 43.5957 176.649 43.638 176.442 43.6742V50.4274Z" fill="black"/>
        <path d="M174.915 50.5162C175.121 50.5109 175.324 50.5031 175.525 50.4928V43.7906C175.326 43.8071 175.122 43.8185 174.915 43.8246V50.5162Z" fill="black"/>
        <path d="M173.389 47.8207C173.389 47.9875 173.526 48.1225 173.694 48.1225C173.863 48.1225 173.999 47.9875 173.999 47.8207V43.83H173.389V47.8207Z" fill="black"/>
        <path d="M171.863 50.5244H172.474V43.83H171.863V50.5244Z" fill="black"/>
        <path d="M173.694 49.6301C173.526 49.6301 173.389 49.765 173.389 49.9314V50.5244H173.999V49.9314C173.999 49.765 173.863 49.6301 173.694 49.6301Z" fill="black"/>
        <path d="M178.273 48.525C178.105 48.525 177.968 48.6599 177.968 48.8262V50.2315C178.174 50.1973 178.377 50.1601 178.578 50.1201V48.8262C178.578 48.6599 178.442 48.525 178.273 48.525Z" fill="black"/>
        <path d="M179.799 44.3545C179.631 44.3545 179.494 44.4894 179.494 44.6558V49.9141C179.7 49.8622 179.904 49.8071 180.105 49.7489V44.6558C180.105 44.4894 179.968 44.3545 179.799 44.3545Z" fill="black"/>
        <path d="M182.851 45.2084C182.683 45.2084 182.546 45.3433 182.546 45.5097V48.8268C182.754 48.728 182.957 48.6253 183.157 48.5188V45.5097C183.157 45.3433 183.02 45.2084 182.851 45.2084Z" fill="black"/>
        <path d="M184.452 44.6595C186.752 42.7298 188.43 40.2513 189.355 37.5116C189.356 37.4651 189.357 37.4186 189.358 37.3721L189.358 37.3716L189.358 37.3712C189.364 37.1601 189.369 36.9489 189.369 36.7341C189.369 36.5859 189.368 36.4378 189.367 36.2897C189.368 36.1415 189.369 35.9934 189.369 35.8453C189.369 35.5994 189.363 35.3583 189.356 35.117L189.354 35.0358C188.752 38.5695 186.895 41.8187 184.057 44.2006C183.929 44.3086 183.912 44.4986 184.022 44.6253C184.131 44.7521 184.324 44.768 184.452 44.6595Z" fill="black"/>
        <path d="M188.901 41.8939C189.001 41.3598 189.088 40.8142 189.157 40.2536C187.976 42.4905 186.293 44.4759 184.195 46.0178C184.118 46.0748 184.073 46.1645 184.073 46.2598V47.9843C184.281 47.8519 184.485 47.7147 184.683 47.5731V46.4102C186.366 45.1509 187.786 43.6136 188.901 41.8939Z" fill="black"/>
        <path d="M155.132 36.0959C155.781 36.5581 156.55 36.8015 157.355 36.8015C158.452 36.8015 159.499 36.3338 160.223 35.5184C160.334 35.3927 160.322 35.2021 160.195 35.0928C160.067 34.9825 159.876 34.9957 159.764 35.1201C159.155 35.8056 158.277 36.1989 157.355 36.1989C156.679 36.1989 156.034 35.9938 155.487 35.6064C155.352 35.5098 155.16 35.5399 155.062 35.6757C154.963 35.8106 154.995 35.9988 155.132 36.0959Z" fill="black"/>
        <path d="M156.32 31.5106C156.205 31.3894 156.012 31.3839 155.889 31.4978C155.462 31.8953 155.218 32.455 155.218 33.0333C155.218 34.1974 156.176 35.1436 157.354 35.1436C158.532 35.1436 159.491 34.1974 159.491 33.0333C159.491 31.9586 158.677 31.0576 157.597 30.9363C157.433 30.9195 157.278 31.0366 157.259 31.202C157.241 31.3675 157.361 31.5165 157.528 31.5357C158.299 31.6213 158.88 32.2658 158.88 33.0333C158.88 33.8642 158.196 34.541 157.354 34.541C156.513 34.541 155.828 33.8642 155.828 33.0333C155.828 32.6136 155.998 32.2248 156.308 31.9363C156.43 31.8223 156.436 31.6318 156.32 31.5106Z" fill="black"/>
        <path d="M157.8 33.0333C157.8 32.7904 157.6 32.5935 157.354 32.5935C157.108 32.5935 156.909 32.7904 156.909 33.0333C156.909 33.2758 157.108 33.4731 157.354 33.4731C157.6 33.4731 157.8 33.2758 157.8 33.0333Z" fill="black"/>
        <path fill-rule="evenodd" clip-rule="evenodd" d="M153.453 27.362V28.1079C154.529 27.2746 155.884 26.7772 157.354 26.7772C158.742 26.7772 160.062 27.2255 161.138 28.0179V27.2832C160.031 26.5719 158.723 26.1747 157.354 26.1747C155.909 26.1747 154.566 26.613 153.453 27.362ZM153.539 50.5241H154.149V45.3685C154.149 45.2021 154.012 45.0672 153.844 45.0672C153.676 45.0672 153.539 45.2021 153.539 45.3685V50.5241ZM155.142 50.5241H155.752V38.1474C156.267 38.3051 156.805 38.3844 157.354 38.3844C158.825 38.3844 160.161 37.8028 161.138 36.8602V35.96C160.257 37.0685 158.888 37.7819 157.354 37.7819C156.732 37.7819 156.129 37.667 155.561 37.4409C155.466 37.4031 155.36 37.4141 155.276 37.4706C155.192 37.5266 155.142 37.6201 155.142 37.7203V50.5241ZM157.278 50.5241H156.668V50.4434C156.668 50.2771 156.804 50.1422 156.973 50.1422C157.141 50.1422 157.278 50.2771 157.278 50.4434V50.5241ZM158.804 50.5241H158.194V41.0186C158.194 40.8522 158.33 40.7173 158.499 40.7173C158.667 40.7173 158.804 40.8522 158.804 41.0186V50.5241ZM160.33 50.5241H159.72V42.2349C159.72 42.1005 159.809 41.9824 159.941 41.9451C160.349 41.829 160.749 41.6843 161.138 41.5131V42.1691C160.873 42.2773 160.603 42.374 160.33 42.4587V50.5241ZM161.138 39.8406V40.4995C160.715 40.708 160.269 40.8856 159.802 41.0288C159.672 41.0288 159.552 40.9467 159.511 40.8182C159.46 40.6591 159.549 40.49 159.711 40.4399C160.213 40.2838 160.69 40.0822 161.138 39.8406ZM161.138 38.0475V38.7694C160.033 39.4785 158.709 39.8914 157.278 39.8914V48.3328C157.278 48.4996 157.141 48.6345 156.973 48.6345C156.804 48.6345 156.668 48.4996 156.668 48.3328V39.5801C156.668 39.4971 156.702 39.4178 156.763 39.3609C156.823 39.3043 156.905 39.2702 156.99 39.2793C157.111 39.2857 157.232 39.2888 157.354 39.2888C158.771 39.2888 160.081 38.8269 161.138 38.0475ZM161.138 33.5242V32.5405C160.892 30.6946 159.289 29.2649 157.354 29.2649C155.25 29.2649 153.539 30.9553 153.539 33.0332V44.1126C153.539 44.279 153.675 44.4139 153.844 44.4139C154.012 44.4139 154.149 44.279 154.149 44.1126V33.0332C154.149 31.2876 155.587 29.8674 157.354 29.8674C159.122 29.8674 160.56 31.2876 160.56 33.0332C160.56 33.2465 160.537 33.4598 160.495 33.6663C160.462 33.8294 160.568 33.989 160.733 34.0222C160.899 34.0564 161.06 33.9498 161.094 33.7871C161.111 33.7002 161.126 33.6125 161.138 33.5242ZM161.138 30.1067V29.2065C160.161 28.264 158.825 27.6823 157.354 27.6823C156.776 27.6823 156.206 27.7721 155.66 27.9499C155.501 28.0018 155.413 28.1723 155.466 28.3309C155.518 28.4886 155.69 28.5748 155.852 28.5223C156.335 28.3651 156.841 28.2849 157.354 28.2849C158.888 28.2849 160.257 28.9983 161.138 30.1067ZM157.354 25.2699C158.725 25.2699 160.015 25.6182 161.138 26.23V25.549C159.998 24.985 158.713 24.6674 157.354 24.6674C155.988 24.6674 154.654 24.9907 153.453 25.6088V26.2962C154.638 25.6234 155.978 25.2699 157.354 25.2699ZM161.138 24.5481V23.8936C160.892 23.7945 160.64 23.7043 160.383 23.6236C160.222 23.5725 160.051 23.66 160 23.8191C159.949 23.9777 160.038 24.1473 160.198 24.1978C160.52 24.2992 160.834 24.4163 161.138 24.5481ZM158.454 23.2792C158.522 23.3408 158.561 23.432 158.551 23.5296C158.537 23.6946 158.396 23.8236 158.22 23.8017C157.934 23.7758 157.643 23.7625 157.354 23.7625C155.979 23.7625 154.654 24.0584 153.453 24.601V23.9421C154.199 23.6297 154.987 23.4054 155.802 23.2792H158.454ZM155.132 36.0959C155.781 36.5581 156.55 36.8015 157.355 36.8015C158.452 36.8015 159.499 36.3338 160.223 35.5184C160.334 35.3927 160.322 35.2021 160.195 35.0928C160.067 34.9825 159.876 34.9957 159.764 35.1201C159.155 35.8056 158.277 36.1989 157.355 36.1989C156.679 36.1989 156.034 35.9938 155.487 35.6064C155.352 35.5098 155.16 35.5399 155.062 35.6757C154.963 35.8106 154.995 35.9988 155.132 36.0959ZM156.32 31.5106C156.205 31.3894 156.012 31.3839 155.889 31.4978C155.462 31.8953 155.218 32.455 155.218 33.0333C155.218 34.1974 156.176 35.1436 157.354 35.1436C158.532 35.1436 159.491 34.1974 159.491 33.0333C159.491 31.9586 158.677 31.0576 157.597 30.9363C157.433 30.9195 157.278 31.0366 157.259 31.202C157.241 31.3675 157.361 31.5165 157.528 31.5357C158.299 31.6213 158.88 32.2658 158.88 33.0333C158.88 33.8642 158.196 34.541 157.354 34.541C156.513 34.541 155.828 33.8642 155.828 33.0333C155.828 32.6136 155.998 32.2248 156.308 31.9363C156.43 31.8223 156.436 31.6318 156.32 31.5106ZM157.8 33.0333C157.8 32.7904 157.6 32.5935 157.354 32.5935C157.108 32.5935 156.909 32.7904 156.909 33.0333C156.909 33.2758 157.108 33.4731 157.354 33.4731C157.6 33.4731 157.8 33.2758 157.8 33.0333Z" fill="black"/>
        <path d="M154.458 29.2451C154.594 29.1443 154.62 28.9556 154.518 28.823C154.416 28.6895 154.224 28.6635 154.091 28.7642L153.453 29.3278V30.2567C153.731 29.8784 154.068 29.5373 154.458 29.2451Z" fill="black"/>
        <path d="M150.189 96.2697L154.047 87.6779C156.009 88.8406 158.102 89.5502 159.476 89.5502C160.718 89.5502 161.568 89.2285 162.353 88.1291L148.488 53.8298H161.502L168.566 74.8875L175.238 53.8298H187.991L175.042 87.9368C171.968 96.0756 168.632 99.3043 161.568 99.3043C157.187 99.3043 153.458 98.0773 150.189 96.2697Z" fill="black"/>
        <path d="M113.624 53.8293H126.05V88.7755H113.624V53.8293ZM113.362 41.62H126.312V50.6635H113.362V41.62Z" fill="black"/>
        <path d="M133.518 90.5947H144.46L138.989 108.3L133.518 90.5947Z" fill="#00BAFF"/>
        <path d="M150.28 2.18453C150.28 0.983107 149.285 0 148.068 0H137.592C136.376 0 135.38 0.983107 135.38 2.18453V3.0164C134.328 3.18306 133.518 4.08941 133.518 5.17352L133.518 50.7031H144.46L144.46 5.17352C144.46 4.17082 143.767 3.32019 142.83 3.06622V2.29938H147.952V39.549H150.28V2.18453Z" fill="#00BAFF"/>
        <path d="M133.518 88.7549H144.46V53.7969H133.518V88.7549Z" fill="#00BAFF"/>
        <path d="M144.46 50.7031H133.518L133.518 53.7969H144.46L144.46 50.7031Z" fill="white"/>
        <path d="M87.3273 77.9237V63.7122H83.1414V53.8292H87.3273V44.9799H99.7537V53.8292H107.994V63.7122H99.7537V75.5332C99.7537 77.9885 100.865 79.0217 103.154 79.0217C104.789 79.0217 106.359 78.5687 107.863 77.859V87.4841C105.64 88.711 102.697 89.4854 99.2299 89.4854C91.7749 89.4854 87.3273 86.2567 87.3273 77.9237Z" fill="black"/>
        <path d="M67.0866 76.0585V74.4441C65.8443 73.9268 64.0787 73.5394 62.2467 73.5394C58.6505 73.5394 56.5573 75.2841 56.5573 77.8674V77.9969C56.5573 80.3865 58.3884 81.8076 60.9389 81.8076C64.536 81.8076 67.0866 79.5474 67.0866 76.0585ZM44.5887 78.707V78.5775C44.5887 71.343 50.148 67.597 58.4539 67.597C61.7239 67.597 64.9292 68.2428 66.9564 68.9534V68.3723C66.9564 64.7548 64.6671 62.6874 59.8928 62.6874C56.1646 62.6874 53.2869 63.398 50.148 64.6254L47.5965 55.9697C51.5868 54.3545 55.8379 53.256 61.9204 53.256C68.2642 53.256 72.5812 54.7419 75.3934 57.5194C78.075 60.1041 79.1862 63.7206 79.1862 68.6303V88.7195H66.8909V85.1029C64.4705 87.7509 61.1355 89.4943 56.4917 89.4943C49.7548 89.4943 44.5887 85.6831 44.5887 78.707Z" fill="black"/>
        <path d="M73.5376 61.3789C73.3539 61.481 73.2888 61.7108 73.3922 61.8926C74.4106 63.6797 74.9884 65.6249 75.1107 67.6746C75.1227 67.8747 75.2907 68.0287 75.4909 68.0287C75.7244 68.0159 75.8846 67.8377 75.8726 67.6294C75.7438 65.4654 75.1333 63.4108 74.0576 61.5221C73.9543 61.3416 73.7226 61.2773 73.5376 61.3789Z" fill="#00BAFF"/>
        <path d="M65.2787 56.713C65.0771 56.6487 64.8634 56.7585 64.7997 56.9577C64.7356 57.1555 64.8464 57.3679 65.0475 57.4313C69.9396 58.9709 73.227 63.4106 73.227 68.4774C73.227 70.5143 72.6733 72.5261 71.6267 74.2945C71.5201 74.4741 71.581 74.7051 71.7633 74.8095C71.8237 74.8451 71.8897 74.8615 71.9552 74.8615C72.0868 74.8615 72.2141 74.7949 72.2852 74.6751C73.4006 72.7913 73.9898 70.6483 73.9898 68.4774C73.9898 63.0801 70.4892 58.3524 65.2787 56.713Z" fill="#00BAFF"/>
        <path d="M50.0008 63.6223C49.9173 63.8142 50.0073 64.0357 50.2006 64.1173C50.25 64.1387 50.3008 64.1483 50.3511 64.1483C50.4992 64.1483 50.64 64.0631 50.7018 63.9204C52.5587 59.6475 56.7945 56.8869 61.4913 56.8869C61.8522 56.8869 62.2168 56.9033 62.5735 56.9361C62.7941 56.963 62.9699 56.8017 62.9883 56.5952C63.0077 56.3878 62.8531 56.2041 62.6436 56.185C62.2634 56.1504 61.8762 56.1335 61.4913 56.1335C56.4886 56.1335 51.9782 59.0728 50.0008 63.6223Z" fill="#00BAFF"/>
        <path d="M58.7126 72.3069C59.5252 72.8844 60.4865 73.1893 61.4915 73.1893C62.8644 73.1893 64.1722 72.6041 65.0785 71.5845C65.2169 71.4278 65.2017 71.1894 65.0434 71.0526C64.8838 70.915 64.6443 70.931 64.504 71.0868C63.743 71.9437 62.6447 72.4355 61.4915 72.4355C60.6475 72.4355 59.8404 72.1793 59.1574 71.6948C58.9881 71.5741 58.7477 71.6114 58.6254 71.7814C58.5017 71.9501 58.5409 72.1852 58.7126 72.3069Z" fill="#00BAFF"/>
        <path d="M62.0482 68.4778C62.0482 68.1738 61.7991 67.9282 61.4917 67.9282C61.1844 67.9282 60.9347 68.1738 60.9347 68.4778C60.9347 68.7809 61.1844 69.0275 61.4917 69.0275C61.7991 69.0275 62.0482 68.7809 62.0482 68.4778Z" fill="#00BAFF"/>
        <path d="M50.7639 54.8761C50.1186 55.0751 49.4889 55.2896 48.8693 55.5177C48.4539 55.8866 48.0738 56.2658 47.7399 56.6514L47.9085 57.2234C47.9623 57.2505 47.99 57.3077 47.9663 57.4194L48.0024 57.5419C48.8193 56.5583 49.7449 55.6632 50.7639 54.8761Z" fill="#00BAFF"/>
        <path d="M58.2126 53.4571C56.8504 53.5696 55.5845 53.7446 54.3891 53.9728C52.0139 55.1118 49.9587 56.8034 48.396 58.8774L48.6671 59.7974C50.8858 56.6101 54.2897 54.2872 58.2456 53.4544L58.2126 53.4571Z" fill="#00BAFF"/>
        <path d="M61.4916 54.2489C59.5926 54.2489 57.7472 54.6094 56.0052 55.3209C55.8105 55.4002 55.7182 55.6208 55.7989 55.8131C55.8792 56.005 56.1044 56.098 56.2968 56.0169C57.9452 55.3437 59.6932 55.0023 61.4916 55.0023C65.5995 55.0023 69.4523 56.8122 72.0619 59.9671C72.1371 60.0582 72.2474 60.1052 72.3573 60.1052C72.4426 60.1052 72.528 60.0769 72.5991 60.0199C72.762 59.8887 72.7864 59.6507 72.6526 59.4899C69.8976 56.1595 65.8298 54.2489 61.4916 54.2489Z" fill="#00BAFF"/>
        <path d="M54.298 57.0312C54.4771 56.9214 54.5315 56.6889 54.4203 56.5121C54.3091 56.3353 54.0737 56.281 53.8947 56.3918C51.8795 57.6317 50.2483 59.2946 49.088 61.2255L49.3879 62.2429C50.4977 60.144 52.1725 58.3392 54.298 57.0312Z" fill="#00BAFF"/>
        <path fill-rule="evenodd" clip-rule="evenodd" d="M47.5556 56.0258L47.7399 56.6514C48.0738 56.2658 48.4539 55.8866 48.8693 55.5177C48.4269 55.6804 47.9897 55.8501 47.5556 56.0258ZM47.9085 57.2234C47.9623 57.2505 47.99 57.3077 47.9663 57.4194L47.9085 57.2234ZM52.9344 63.7092C52.5919 63.8085 52.2504 63.915 51.9083 64.0283C52.3617 63.0786 52.9621 62.1932 53.6972 61.4034C53.8393 61.2503 54.082 61.2403 54.2362 61.3806C54.3912 61.5215 54.4014 61.7608 54.2588 61.9134C53.7447 62.4657 53.3016 63.0685 52.9344 63.7092ZM64.4825 53.4031C66.0659 53.5187 67.5024 53.7441 68.803 54.075C74.1377 56.7273 77.8061 62.187 77.8061 68.4776C77.8061 74.0326 74.7982 79.3064 69.957 82.2411C69.8942 82.2789 69.8255 82.2967 69.7581 82.2967C69.6294 82.2967 69.5038 82.2329 69.4323 82.1171C69.3225 81.9398 69.3779 81.7078 69.5578 81.5989C74.1743 78.8005 77.0433 73.7728 77.0433 68.4776C77.0433 61.0186 71.6315 54.7842 64.4825 53.4031ZM78.9035 67.1973C78.5985 63.1135 76.8173 59.2636 73.8842 56.3419C74.4136 56.7195 74.9023 57.1309 75.3525 57.5755C77.8149 59.9494 78.9535 63.1938 79.1228 67.5106C79.002 67.4548 78.9143 67.3379 78.9035 67.1973ZM78.9492 68.7618C78.9513 68.6258 79.0338 68.5144 79.1444 68.4501C79.145 68.5284 79.1453 68.607 79.1453 68.6859V72.8848C77.9693 77.3869 75.035 81.3805 70.9368 83.8584V88.776H70.174V83.6456C70.174 83.5125 70.245 83.3899 70.3599 83.3215C75.5556 80.2646 78.8463 74.6859 78.9492 68.7618ZM72.8447 88.776H72.0819V84.7173C72.0819 84.509 72.2531 84.3404 72.4635 84.3404C72.6744 84.3404 72.8447 84.509 72.8447 84.7173V88.776ZM74.7536 88.776H73.9908V85.6546C73.9908 85.5361 74.0475 85.4236 74.144 85.3525C76.1216 83.8989 77.8044 82.1302 79.1453 80.149V81.4579C77.9094 83.1012 76.4366 84.5835 74.7536 85.8433V88.776ZM75.8986 88.776H76.6618V86.7562C77.3493 86.197 78.4504 85.1086 79.1453 84.3939V83.2604C78.2116 84.3566 77.1767 85.3738 76.0398 86.2841C75.9502 86.3561 75.8986 86.4636 75.8986 86.5771V88.776ZM79.1453 76.3121V77.9934C77.9665 80.116 76.3902 82.0389 74.4651 83.6541C74.3045 83.7894 74.0632 83.7698 73.927 83.6112C73.79 83.4531 73.8103 83.2151 73.9709 83.0802C76.2155 81.1963 77.9691 78.879 79.1453 76.3121ZM69.0287 88.776H68.2659V83.6492C68.2659 83.4413 68.4362 83.2727 68.6471 83.2727C68.858 83.2727 69.0287 83.4413 69.0287 83.6492V88.776ZM67.1102 88.776H66.8495V88.5028C66.9787 88.5412 67.0789 88.6455 67.1102 88.776ZM66.8495 87.7165V85.159C66.6895 85.334 66.5256 85.5051 66.3576 85.672V81.3219C66.3576 81.1683 66.4522 81.0302 66.5961 80.9728C71.6127 78.9638 74.9621 74.2201 75.1291 68.8889C75.1351 68.6851 75.3049 68.5238 75.5218 68.5238C75.7327 68.5302 75.8984 68.7038 75.8919 68.9121C75.7184 74.4566 72.2851 79.399 67.1208 81.5735V87.3559C67.1208 87.526 67.0065 87.6698 66.8495 87.7165ZM65.212 86.6906C64.9655 86.886 64.7113 87.0731 64.4492 87.2515V80.9494C64.722 80.7848 64.9768 80.5995 65.212 80.3947V86.6906ZM63.3041 81.4815C63.0588 81.566 62.8041 81.637 62.5409 81.6941V88.3223C62.8017 88.2042 63.056 88.0785 63.3041 87.9455V81.4815ZM59.4879 81.7035V89.2772C59.2383 89.3244 58.984 89.3657 58.7251 89.401V81.4504C58.9644 81.5536 59.2193 81.6383 59.4879 81.7035ZM60.6332 87.6068V81.859C60.7204 81.8624 60.8085 81.8642 60.8975 81.8642C61.066 81.8642 61.2323 81.8592 61.396 81.8494V87.6068C61.396 87.8146 61.2253 87.9837 61.0144 87.9837C60.804 87.9837 60.6332 87.8146 60.6332 87.6068ZM57.484 80.6055C57.1454 80.2535 56.8858 79.8328 56.7212 79.3499V82.33C56.7212 82.5383 56.8919 82.7069 57.1028 82.7069C57.3132 82.7069 57.484 82.5383 57.484 82.33V80.6055ZM56.7212 76.6005C56.8831 76.1106 57.1394 75.6683 57.484 75.2831V68.4776C57.484 68.1996 57.5131 67.9282 57.5686 67.6663C57.3045 67.6746 57.0435 67.6869 56.7856 67.7032C56.7432 67.9552 56.7212 68.2139 56.7212 68.4776V76.6005ZM59.3884 74.0429C59.1539 74.1287 58.9327 74.2261 58.7251 74.3345C58.7262 74.2104 58.7888 74.0952 58.8931 74.0256C58.9978 73.9549 59.1307 73.9413 59.2493 73.9882L59.3884 74.0429ZM65.3625 73.9654C65.0076 73.8813 64.6354 73.8088 64.2512 73.7509C66.1808 72.7617 67.5022 70.7692 67.5022 68.4774C67.5022 65.2045 64.8058 62.541 61.4916 62.541C60.9612 62.541 60.4381 62.6093 59.9319 62.7437C59.9051 62.7436 59.8783 62.7435 59.8513 62.7435C59.6405 62.7435 59.4324 62.7458 59.2268 62.7503C59.1842 62.7093 59.1509 62.6579 59.1312 62.5984C59.0652 62.4006 59.1741 62.1868 59.3734 62.1221C60.055 61.8997 60.768 61.7876 61.4916 61.7876C65.2267 61.7876 68.265 64.7888 68.265 68.4774C68.265 70.7463 67.116 72.7549 65.3625 73.9654ZM58.8201 68.4777C58.8201 68.1979 58.8659 67.9215 58.9531 67.6589C59.2221 67.6647 59.4903 67.6746 59.7571 67.6883C59.643 67.932 59.5829 68.1995 59.5829 68.4777C59.5829 69.5164 60.4398 70.3628 61.4915 70.3628C62.5436 70.3628 63.3996 69.5164 63.3996 68.4777C63.3996 68.3506 63.3869 68.2261 63.3625 68.1056C63.6323 68.154 63.8963 68.2054 64.1539 68.2592C64.1599 68.3313 64.1629 68.4042 64.1629 68.4777C64.1629 69.933 62.9645 71.1162 61.4915 71.1162C60.018 71.1162 58.8201 69.933 58.8201 68.4777ZM66.2514 68.7924C66.0118 68.719 65.7602 68.6471 65.4979 68.5773C65.4919 68.8106 65.4649 69.0431 65.4184 69.2693C65.3764 69.473 65.5098 69.6722 65.7161 69.7141C65.9242 69.757 66.1245 69.6234 66.1665 69.4201C66.2088 69.214 66.2372 69.0039 66.2514 68.7924ZM55.5168 67.8179C55.2542 67.8492 54.9953 67.8849 54.7401 67.9251C54.7251 68.1078 54.7176 68.2921 54.7176 68.4778V71.0848C54.7176 71.2931 54.8883 71.4618 55.0992 71.4618C55.3096 71.4618 55.4804 71.2931 55.4804 71.0848V68.4778C55.4804 68.2555 55.4926 68.0353 55.5168 67.8179ZM53.5794 68.1441C53.3185 68.2019 53.0623 68.2648 52.8107 68.3327C52.8099 68.3809 52.8095 68.4292 52.8095 68.4776V78.3091C52.8095 78.5174 52.9802 78.6861 53.1911 78.6861C53.4016 78.6861 53.5723 78.5174 53.5723 78.3091V68.4776C53.5723 68.3659 53.5747 68.2547 53.5794 68.1441ZM57.4843 89.5207V83.9005C57.4843 83.6922 57.3136 83.5236 57.1027 83.5236C56.8918 83.5236 56.721 83.6922 56.721 83.9005V89.5484C56.9795 89.5446 57.2339 89.5353 57.4843 89.5207ZM55.4803 89.5234V73.598C55.4803 73.3897 55.3095 73.2211 55.0991 73.2211C54.8882 73.2211 54.7175 73.3897 54.7175 73.598V89.4629C54.9689 89.4888 55.2233 89.509 55.4803 89.5234ZM53.5726 89.3017V81.3873C53.5726 81.1794 53.4019 81.0108 53.191 81.0108C52.9801 81.0108 52.8094 81.1794 52.8094 81.3873V89.143C53.06 89.2023 53.3145 89.2553 53.5726 89.3017ZM51.6643 88.8181V87.8581C51.6643 87.6503 51.4936 87.4817 51.2832 87.4817C51.0723 87.4817 50.9015 87.6503 50.9015 87.8581V88.536C51.1504 88.6375 51.4048 88.7316 51.6643 88.8181ZM49.7554 87.9939V76.0477C49.7554 75.8394 49.5851 75.6708 49.3743 75.6708C49.1634 75.6708 48.9926 75.8394 48.9926 76.0477V87.5378C49.2388 87.6994 49.4932 87.8514 49.7554 87.9939ZM47.8476 86.6641V70.8502C47.5782 71.084 47.3238 71.3305 47.0848 71.5895V85.9087C47.3246 86.1746 47.5791 86.4265 47.8476 86.6641ZM45.1768 74.7555C45.3831 74.1778 45.6383 73.6346 45.9396 73.1262V84.3365C45.6397 83.8193 45.384 83.2653 45.1768 82.6751V74.7555ZM48.9928 69.9896V74.289C48.9928 74.4968 49.1636 74.6654 49.3744 74.6654C49.5849 74.6654 49.7556 74.4968 49.7556 74.289V69.5351C49.4925 69.6785 49.2382 69.83 48.9928 69.9896ZM50.9016 68.9846V85.6598C50.9016 85.8681 51.0724 86.0362 51.2832 86.0362C51.4937 86.0362 51.6644 85.8681 51.6644 85.6598V68.6893C51.4041 68.7816 51.1497 68.88 50.9016 68.9846ZM61.4915 60.656C59.2513 60.656 57.2254 61.5793 55.7835 63.061C55.3774 63.1274 54.9778 63.2038 54.5825 63.2899C56.1699 61.2324 58.6764 59.9022 61.4915 59.9022C64.6826 59.9022 67.6106 61.6296 69.1334 64.4107C69.234 64.5944 69.1653 64.8227 68.9797 64.9212C68.7961 65.0201 68.563 64.9531 68.4629 64.7694C67.0725 62.2321 64.4015 60.656 61.4915 60.656ZM67.0451 74.5002C66.9342 74.454 66.819 74.4088 66.7001 74.3649C68.3607 72.9301 69.4113 70.8227 69.4113 68.4774C69.4113 67.7213 69.3014 66.9738 69.0855 66.2564C69.0245 66.0573 69.1404 65.8467 69.342 65.7879C69.5451 65.725 69.7564 65.8412 69.8164 66.0413C70.0541 66.8289 70.1741 67.6484 70.1741 68.4774C70.1741 71.1141 68.9631 73.4764 67.0451 75.0506V74.5002ZM66.913 77.4408C66.9756 77.1389 67.0166 76.8245 67.0346 76.4985C69.6744 74.7268 71.319 71.7618 71.319 68.4775C71.319 63.1258 66.9101 58.7714 61.4916 58.7714C59.5917 58.7714 57.7463 59.3105 56.1556 60.3306C55.9789 60.4441 55.7422 60.3939 55.6277 60.2198C55.5128 60.0453 55.5631 59.8119 55.7399 59.6984C57.4556 58.5986 59.444 58.018 61.4916 58.018C67.3314 58.018 72.0818 62.7097 72.0818 68.4775C72.0818 72.2166 70.105 75.5707 66.913 77.4408ZM65.4317 80.192C65.7797 79.8521 66.0782 79.4652 66.3204 79.036C68.0574 78.2515 69.6057 77.0428 70.7833 75.5319C70.9111 75.3669 71.1511 75.3355 71.3181 75.4631C71.4852 75.5907 71.5166 75.8272 71.3878 75.9918C69.8682 77.9417 67.7679 79.4194 65.4317 80.192ZM73.3922 61.8926C73.2888 61.7108 73.3539 61.481 73.5376 61.3789C73.7226 61.2773 73.9543 61.3416 74.0576 61.5221C75.1333 63.4108 75.7438 65.4654 75.8726 67.6294C75.8846 67.8377 75.7244 68.0159 75.4909 68.0287C75.2907 68.0287 75.1227 67.8747 75.1107 67.6746C74.9884 65.6249 74.4106 63.6797 73.3922 61.8926ZM64.7997 56.9577C64.8634 56.7585 65.0771 56.6487 65.2787 56.713C70.4892 58.3524 73.9898 63.0801 73.9898 68.4774C73.9898 70.6483 73.4006 72.7913 72.2852 74.6751C72.2141 74.7949 72.0868 74.8615 71.9552 74.8615C71.8897 74.8615 71.8237 74.8451 71.7633 74.8095C71.581 74.7051 71.5201 74.4741 71.6267 74.2945C72.6733 72.5261 73.227 70.5143 73.227 68.4774C73.227 63.4106 69.9396 58.9709 65.0475 57.4313C64.8464 57.3679 64.7356 57.1555 64.7997 56.9577ZM50.2006 64.1173C50.0073 64.0357 49.9173 63.8142 50.0008 63.6223C51.9782 59.0728 56.4886 56.1335 61.4913 56.1335C61.8762 56.1335 62.2634 56.1504 62.6436 56.185C62.8531 56.2041 63.0077 56.3878 62.9883 56.5952C62.9699 56.8017 62.7941 56.963 62.5735 56.9361C62.2168 56.9033 61.8522 56.8869 61.4913 56.8869C56.7945 56.8869 52.5587 59.6475 50.7018 63.9204C50.64 64.0631 50.4992 64.1483 50.3511 64.1483C50.3008 64.1483 50.25 64.1387 50.2006 64.1173ZM61.4915 73.1893C60.4865 73.1893 59.5252 72.8844 58.7126 72.3069C58.5409 72.1852 58.5017 71.9501 58.6254 71.7814C58.7477 71.6114 58.9881 71.5741 59.1574 71.6948C59.8404 72.1793 60.6475 72.4355 61.4915 72.4355C62.6447 72.4355 63.743 71.9437 64.504 71.0868C64.6443 70.931 64.8838 70.915 65.0434 71.0526C65.2017 71.1894 65.2169 71.4278 65.0785 71.5845C64.1722 72.6041 62.8644 73.1893 61.4915 73.1893ZM62.0482 68.4778C62.0482 68.1738 61.7991 67.9282 61.4917 67.9282C61.1844 67.9282 60.9347 68.1738 60.9347 68.4778C60.9347 68.7809 61.1844 69.0275 61.4917 69.0275C61.7991 69.0275 62.0482 68.7809 62.0482 68.4778Z" fill="#00BAFF"/>
        <path d="M21.0599 65.2626C25.3765 65.2626 27.8615 63.1957 27.8615 59.9013V59.7719C27.8615 56.2191 25.2459 54.4106 20.9944 54.4106H12.6885V65.2626H21.0599ZM0 43.5586H21.6483C28.6465 43.5586 33.4863 45.3671 36.5606 48.4673C39.2422 51.0515 40.6155 54.54 40.6155 58.9966V59.126C40.6155 66.0379 36.8873 70.6239 31.197 73.0144L42.1199 88.7756H27.4697L18.2478 75.0814H12.6885V88.7756H0V43.5586Z" fill="black"/>
    </g>
    <defs>
        <clipPath id="clip0_1372_6946">
            <rect width="190" height="110" fill="white"/>
        </clipPath>
    </defs>
</svg>
