<svg width="24" height="24" viewBox="0 0 24 24" fill="none" xmlns="http://www.w3.org/2000/svg">
    <path d="M12 22C12 22 20 18 20 12V5L12 2L4 5V12C4 18 12 22 12 22Z" stroke="#8C8C8C" stroke-width="2" stroke-linecap="round" stroke-linejoin="round"/>
    <path d="M12 22C12 22 20 18 20 12V5L12 2L4 5V12C4 18 12 22 12 22Z" stroke="#2E2E2E" stroke-width="2" stroke-linecap="round" stroke-linejoin="round" style="mix-blend-mode:hard-light"/>
    <path d="M12 22C12 22 20 18 20 12V5L12 2L4 5V12C4 18 12 22 12 22Z" stroke="#3DB0E4" stroke-opacity="0.2" stroke-width="2" stroke-linecap="round" stroke-linejoin="round" style="mix-blend-mode:screen"/>
</svg>
