<svg width="32" height="32" viewBox="0 0 32 32" fill="none" xmlns="http://www.w3.org/2000/svg">
    <path d="M25.3333 25.3333H6.66667V6.66667H25.3333M25.3333 4H6.66667C5.95942 4 5.28115 4.28095 4.78105 4.78105C4.28095 5.28115 4 5.95942 4 6.66667V25.3333C4 26.0406 4.28095 26.7189 4.78105 27.219C5.28115 27.719 5.95942 28 6.66667 28H25.3333C26.0406 28 26.7189 27.719 27.219 27.219C27.719 26.7189 28 26.0406 28 25.3333V6.66667C28 5.18667 26.8 4 25.3333 4ZM22 21.6667C22 19.6667 18 18.6667 16 18.6667C14 18.6667 10 19.6667 10 21.6667V22.6667H22M16 16.3333C16.7956 16.3333 17.5587 16.0173 18.1213 15.4547C18.6839 14.892 19 14.129 19 13.3333C19 12.5377 18.6839 11.7746 18.1213 11.212C17.5587 10.6494 16.7956 10.3333 16 10.3333C15.2044 10.3333 14.4413 10.6494 13.8787 11.212C13.3161 11.7746 13 12.5377 13 13.3333C13 14.129 13.3161 14.892 13.8787 15.4547C14.4413 16.0173 15.2044 16.3333 16 16.3333Z" fill="#8C8C8C"/>
    <path d="M25.3333 25.3333H6.66667V6.66667H25.3333M25.3333 4H6.66667C5.95942 4 5.28115 4.28095 4.78105 4.78105C4.28095 5.28115 4 5.95942 4 6.66667V25.3333C4 26.0406 4.28095 26.7189 4.78105 27.219C5.28115 27.719 5.95942 28 6.66667 28H25.3333C26.0406 28 26.7189 27.719 27.219 27.219C27.719 26.7189 28 26.0406 28 25.3333V6.66667C28 5.18667 26.8 4 25.3333 4ZM22 21.6667C22 19.6667 18 18.6667 16 18.6667C14 18.6667 10 19.6667 10 21.6667V22.6667H22M16 16.3333C16.7956 16.3333 17.5587 16.0173 18.1213 15.4547C18.6839 14.892 19 14.129 19 13.3333C19 12.5377 18.6839 11.7746 18.1213 11.212C17.5587 10.6494 16.7956 10.3333 16 10.3333C15.2044 10.3333 14.4413 10.6494 13.8787 11.212C13.3161 11.7746 13 12.5377 13 13.3333C13 14.129 13.3161 14.892 13.8787 15.4547C14.4413 16.0173 15.2044 16.3333 16 16.3333Z" fill="#2E2E2E" style="mix-blend-mode:hard-light"/>
    <path d="M25.3333 25.3333H6.66667V6.66667H25.3333M25.3333 4H6.66667C5.95942 4 5.28115 4.28095 4.78105 4.78105C4.28095 5.28115 4 5.95942 4 6.66667V25.3333C4 26.0406 4.28095 26.7189 4.78105 27.219C5.28115 27.719 5.95942 28 6.66667 28H25.3333C26.0406 28 26.7189 27.719 27.219 27.219C27.719 26.7189 28 26.0406 28 25.3333V6.66667C28 5.18667 26.8 4 25.3333 4ZM22 21.6667C22 19.6667 18 18.6667 16 18.6667C14 18.6667 10 19.6667 10 21.6667V22.6667H22M16 16.3333C16.7956 16.3333 17.5587 16.0173 18.1213 15.4547C18.6839 14.892 19 14.129 19 13.3333C19 12.5377 18.6839 11.7746 18.1213 11.212C17.5587 10.6494 16.7956 10.3333 16 10.3333C15.2044 10.3333 14.4413 10.6494 13.8787 11.212C13.3161 11.7746 13 12.5377 13 13.3333C13 14.129 13.3161 14.892 13.8787 15.4547C14.4413 16.0173 15.2044 16.3333 16 16.3333Z" fill="#3DB0E4" fill-opacity="0.2" style="mix-blend-mode:screen"/>
</svg>
