<svg width="32" height="32" viewBox="0 0 32 32" fill="none" xmlns="http://www.w3.org/2000/svg">
    <path d="M18.4133 29.3333H8.00001C6.52001 29.3333 5.33334 28.1466 5.33334 26.6666V5.33329C5.33334 3.86663 6.52001 2.66663 8.00001 2.66663H18.6667L26.6667 10.6666V17.4533C26.2267 17.3866 25.7867 17.3333 25.3333 17.3333C24.88 17.3333 24.44 17.3866 24 17.4533V12H17.3333V5.33329H8.00001V26.6666H17.4533C17.6133 27.6266 17.9467 28.52 18.4133 29.3333ZM30.6667 24H26.6667V20H24V24H20V26.6666H24V30.6666H26.6667V26.6666H30.6667V24Z" fill="#8C8C8C"/>
    <path d="M18.4133 29.3333H8.00001C6.52001 29.3333 5.33334 28.1466 5.33334 26.6666V5.33329C5.33334 3.86663 6.52001 2.66663 8.00001 2.66663H18.6667L26.6667 10.6666V17.4533C26.2267 17.3866 25.7867 17.3333 25.3333 17.3333C24.88 17.3333 24.44 17.3866 24 17.4533V12H17.3333V5.33329H8.00001V26.6666H17.4533C17.6133 27.6266 17.9467 28.52 18.4133 29.3333ZM30.6667 24H26.6667V20H24V24H20V26.6666H24V30.6666H26.6667V26.6666H30.6667V24Z" fill="#8A8A8A" style="mix-blend-mode:hard-light"/>
    <path d="M18.4133 29.3333H8.00001C6.52001 29.3333 5.33334 28.1466 5.33334 26.6666V5.33329C5.33334 3.86663 6.52001 2.66663 8.00001 2.66663H18.6667L26.6667 10.6666V17.4533C26.2267 17.3866 25.7867 17.3333 25.3333 17.3333C24.88 17.3333 24.44 17.3866 24 17.4533V12H17.3333V5.33329H8.00001V26.6666H17.4533C17.6133 27.6266 17.9467 28.52 18.4133 29.3333ZM30.6667 24H26.6667V20H24V24H20V26.6666H24V30.6666H26.6667V26.6666H30.6667V24Z" fill="#3DB0E4" fill-opacity="0.2" style="mix-blend-mode:screen"/>
</svg>
