<svg width="32" height="32" viewBox="0 0 32 32" fill="none" xmlns="http://www.w3.org/2000/svg">
    <path d="M16 2.66663C8.66666 2.66663 2.66666 8.66663 2.66666 16C2.66666 23.3333 8.66666 29.3333 16 29.3333C23.3333 29.3333 29.3333 23.3333 29.3333 16C29.3333 8.66663 23.3333 2.66663 16 2.66663ZM16 26.6666C10.12 26.6666 5.33332 21.88 5.33332 16C5.33332 10.12 10.12 5.33329 16 5.33329C21.88 5.33329 26.6667 10.12 26.6667 16C26.6667 21.88 21.88 26.6666 16 26.6666ZM22.12 10.1066L13.3333 18.8933L9.87999 15.4533L7.99999 17.3333L13.3333 22.6666L24 12L22.12 10.1066Z" fill="#8C8C8C"/>
    <path d="M16 2.66663C8.66666 2.66663 2.66666 8.66663 2.66666 16C2.66666 23.3333 8.66666 29.3333 16 29.3333C23.3333 29.3333 29.3333 23.3333 29.3333 16C29.3333 8.66663 23.3333 2.66663 16 2.66663ZM16 26.6666C10.12 26.6666 5.33332 21.88 5.33332 16C5.33332 10.12 10.12 5.33329 16 5.33329C21.88 5.33329 26.6667 10.12 26.6667 16C26.6667 21.88 21.88 26.6666 16 26.6666ZM22.12 10.1066L13.3333 18.8933L9.87999 15.4533L7.99999 17.3333L13.3333 22.6666L24 12L22.12 10.1066Z" fill="#8A8A8A" style="mix-blend-mode:hard-light"/>
    <path d="M16 2.66663C8.66666 2.66663 2.66666 8.66663 2.66666 16C2.66666 23.3333 8.66666 29.3333 16 29.3333C23.3333 29.3333 29.3333 23.3333 29.3333 16C29.3333 8.66663 23.3333 2.66663 16 2.66663ZM16 26.6666C10.12 26.6666 5.33332 21.88 5.33332 16C5.33332 10.12 10.12 5.33329 16 5.33329C21.88 5.33329 26.6667 10.12 26.6667 16C26.6667 21.88 21.88 26.6666 16 26.6666ZM22.12 10.1066L13.3333 18.8933L9.87999 15.4533L7.99999 17.3333L13.3333 22.6666L24 12L22.12 10.1066Z" fill="#3DB0E4" fill-opacity="0.2" style="mix-blend-mode:screen"/>
</svg>
