<svg width="64" height="64" viewBox="0 0 64 64" fill="none" xmlns="http://www.w3.org/2000/svg">
    <path d="M58.6667 29.5467V32C58.6634 37.7505 56.8013 43.3458 53.3582 47.9516C49.9151 52.5573 45.0754 55.9267 39.5609 57.5571C34.0465 59.1876 28.1527 58.9918 22.7586 56.9989C17.3645 55.0061 12.7591 51.323 9.62921 46.4989C6.49936 41.6748 5.01276 35.9682 5.39112 30.2302C5.76948 24.4922 7.99253 19.0302 11.7287 14.6589C15.4649 10.2876 20.5141 7.24106 26.1232 5.97377C31.7322 4.70647 37.6007 5.28628 42.8533 7.62671M58.6667 10.6667L32 37.36L24 29.36" stroke="#0FBD91" stroke-width="2" stroke-linecap="round" stroke-linejoin="round"/>
    <path d="M58.6667 29.5467V32C58.6634 37.7505 56.8013 43.3458 53.3582 47.9516C49.9151 52.5573 45.0754 55.9267 39.5609 57.5571C34.0465 59.1876 28.1527 58.9918 22.7586 56.9989C17.3645 55.0061 12.7591 51.323 9.62921 46.4989C6.49936 41.6748 5.01276 35.9682 5.39112 30.2302C5.76948 24.4922 7.99253 19.0302 11.7287 14.6589C15.4649 10.2876 20.5141 7.24106 26.1232 5.97377C31.7322 4.70647 37.6007 5.28628 42.8533 7.62671M58.6667 10.6667L32 37.36L24 29.36" stroke="#6B6B6B" stroke-width="2" stroke-linecap="round" stroke-linejoin="round" style="mix-blend-mode:hard-light"/>
    <path d="M58.6667 29.5467V32C58.6634 37.7505 56.8013 43.3458 53.3582 47.9516C49.9151 52.5573 45.0754 55.9267 39.5609 57.5571C34.0465 59.1876 28.1527 58.9918 22.7586 56.9989C17.3645 55.0061 12.7591 51.323 9.62921 46.4989C6.49936 41.6748 5.01276 35.9682 5.39112 30.2302C5.76948 24.4922 7.99253 19.0302 11.7287 14.6589C15.4649 10.2876 20.5141 7.24106 26.1232 5.97377C31.7322 4.70647 37.6007 5.28628 42.8533 7.62671M58.6667 10.6667L32 37.36L24 29.36" stroke="black" stroke-opacity="0.5" stroke-width="2" stroke-linecap="round" stroke-linejoin="round" style="mix-blend-mode:screen"/>
</svg>
