<svg width="1148" height="1130" fill="none" xmlns="http://www.w3.org/2000/svg"><g clip-path="url(#a)"><path d="m785.616 367.961 99.701 111.976c20.966 23.548 37.344 64.729 51.771 101.03 9.364 23.609 20.012 50.358 27.147 58.371l26.756 30.05c8.637 9.701 7.774 24.583-1.927 33.22-9.7 8.637-24.583 7.774-33.22-1.926l-26.755-30.05c-12.643-14.199-22.821-39.855-35.741-72.269-12.97-32.684-27.687-69.735-43.146-87.097L750.47 399.254c-9.075-10.192-25.037-11.418-34.878-2.655-10.262 9.137-7.757 23.415 0 32.764 8.196 9.842 8.52 24.36-2.771 32.838-9.716 8.336-24.391 7.352-32.903-2.208l-48.88-54.898c-9.263-10.404-24.783-11.77-34.554-3.071-9.278 8.262-10.126 22.878-1.997 33.283 7.852 10.021 7.164 24.18-3.455 32.564-9.771 8.133-24.208 7.062-32.657-2.427l-39.649-44.53c-9.231-10.368-24.614-11.794-34.315-3.157-9.103 8.105-10.795 22.34-3.885 32.506 6.942 10.202 5.218 24.402-4.976 31.777-9.775 7.632-23.802 6.386-32.063-2.893L329.86 351.531c-9.231-10.368-24.72-11.7-34.491-3-9.77 8.7-10.238 24.238-1.006 34.606l193.393 217.204a23.532 23.532 0 0 1 3.406 26.33c-4.366 8.613-13.659 13.673-23.305 12.747l-77.049-7.701c-30.59-1.874-33.037 5.85-35.271 13.321-4.077 12.829 3.513 27.368 16.55 31.891l337.681 146.575c4.711 1.54 11.37 1.093 17.042-1.878 9.621-4.975 21.296-2.831 28.462 5.217l26.036 29.242c8.637 9.7 7.774 24.583-1.926 33.22-9.701 8.636-24.583 7.773-33.22-1.927l-15.615-17.538c-12.383 2.582-25.335 1.764-37.82-2.493L355.08 720.74c-35.53-12.093-56.205-52.723-44.418-89.871 15.746-50.251 65.267-47.212 83.867-46.067l17.962 1.775-153.275-172.146c-26.505-29.769-24.276-75.104 4.86-101.046 29.136-25.942 74.425-22.916 100.931 6.853l72.757 81.715a72.018 72.018 0 0 1 15.354-19.342c27.8-24.753 70.294-22.956 97.14 3.233 3.707-7.018 8.712-13.427 14.933-18.966 29.171-25.974 74.456-22.881 100.993 6.923l4.256 4.78c3.563-6.26 8.197-12.024 13.925-17.125 29.316-26.165 74.777-23.229 101.251 6.505z" fill="#000"/></g><path d="M99 404V80m0 324 81-81m-81 81-81-81" stroke="#000" stroke-width="35" stroke-linecap="round" stroke-linejoin="round"/><defs><clipPath id="a"><path fill="#fff" transform="rotate(-41.681 708.221 242.137)" d="M0 0h800v800H0z"/></clipPath></defs></svg>