<svg width="24" height="24" viewBox="0 0 24 24" fill="none" xmlns="http://www.w3.org/2000/svg">
    <g opacity="0.5">
        <path d="M19 4H5C3.89543 4 3 4.89543 3 6V20C3 21.1046 3.89543 22 5 22H19C20.1046 22 21 21.1046 21 20V6C21 4.89543 20.1046 4 19 4Z" stroke="#8C8C8C" stroke-width="2" stroke-linecap="round" stroke-linejoin="round"/>
        <path d="M19 4H5C3.89543 4 3 4.89543 3 6V20C3 21.1046 3.89543 22 5 22H19C20.1046 22 21 21.1046 21 20V6C21 4.89543 20.1046 4 19 4Z" stroke="#2E2E2E" stroke-width="2" stroke-linecap="round" stroke-linejoin="round" style="mix-blend-mode:hard-light"/>
        <path d="M19 4H5C3.89543 4 3 4.89543 3 6V20C3 21.1046 3.89543 22 5 22H19C20.1046 22 21 21.1046 21 20V6C21 4.89543 20.1046 4 19 4Z" stroke="#3DB0E4" stroke-opacity="0.2" stroke-width="2" stroke-linecap="round" stroke-linejoin="round" style="mix-blend-mode:screen"/>
        <path d="M16 2V6" stroke="#8C8C8C" stroke-width="2" stroke-linecap="round" stroke-linejoin="round"/>
        <path d="M16 2V6" stroke="#2E2E2E" stroke-width="2" stroke-linecap="round" stroke-linejoin="round" style="mix-blend-mode:hard-light"/>
        <path d="M16 2V6" stroke="#3DB0E4" stroke-opacity="0.2" stroke-width="2" stroke-linecap="round" stroke-linejoin="round" style="mix-blend-mode:screen"/>
        <path d="M8 2V6" stroke="#8C8C8C" stroke-width="2" stroke-linecap="round" stroke-linejoin="round"/>
        <path d="M8 2V6" stroke="#2E2E2E" stroke-width="2" stroke-linecap="round" stroke-linejoin="round" style="mix-blend-mode:hard-light"/>
        <path d="M8 2V6" stroke="#3DB0E4" stroke-opacity="0.2" stroke-width="2" stroke-linecap="round" stroke-linejoin="round" style="mix-blend-mode:screen"/>
        <path d="M3 10H21" stroke="#8C8C8C" stroke-width="2" stroke-linecap="round" stroke-linejoin="round"/>
        <path d="M3 10H21" stroke="#2E2E2E" stroke-width="2" stroke-linecap="round" stroke-linejoin="round" style="mix-blend-mode:hard-light"/>
        <path d="M3 10H21" stroke="#3DB0E4" stroke-opacity="0.2" stroke-width="2" stroke-linecap="round" stroke-linejoin="round" style="mix-blend-mode:screen"/>
    </g>
</svg>
