<svg width="32" height="32" viewBox="0 0 32 32" fill="none" xmlns="http://www.w3.org/2000/svg">
    <path d="M28.3328 7.47759H25.1897L25.0323 6.98959H28.3328C28.4681 6.98959 28.5784 7.10034 28.5784 7.2352C28.5784 7.35816 28.4902 7.45868 28.373 7.47759H28.3328ZM17.0743 8.44719L23.0586 6.12842L23.9578 8.44719H17.0743ZM3.2768 6.99279H3.5953C3.55708 7.15375 3.54583 7.31997 3.56122 7.48399H3.2768C2.75074 7.48399 2.32195 7.85325 2.04303 8.20311C1.74528 8.57661 1.5102 9.05894 1.39574 9.52992L1.24553 10.148H1.8816H29.152C29.4231 10.148 29.644 10.3689 29.644 10.64V17.6748C29.5799 17.6692 29.5151 17.6664 29.4496 17.6664H20.72C18.9783 17.6664 17.5672 19.0774 17.5672 20.8192C17.5672 22.5609 18.9783 23.972 20.72 23.972H29.6408V30.4384C29.6408 30.7095 29.4199 30.9304 29.1488 30.9304H1.3152C1.04414 30.9304 0.8232 30.7095 0.8232 30.4384V10.64C0.8232 10.6156 0.825634 10.5943 0.830494 10.5725L0.849073 10.4889L0.838767 10.4038C0.828476 10.3189 0.8232 10.2302 0.8232 10.1408C0.8232 9.43628 1.10949 8.62829 1.58549 7.99933C2.06417 7.36683 2.67099 6.99279 3.2768 6.99279ZM5.54221 8.44719L5.15477 7.44956C5.15468 7.44931 5.15458 7.44907 5.15449 7.44883C5.10051 7.30708 5.16982 7.14695 5.31459 7.08978C5.31482 7.08969 5.31505 7.0896 5.31528 7.08951L20.8096 1.08436C20.8098 1.0843 20.81 1.08423 20.8101 1.08417C20.9533 1.02951 21.1158 1.10069 21.1726 1.24402C21.1727 1.2443 21.1728 1.24459 21.1729 1.24488L21.8334 2.95265L7.64735 8.44719H5.54221ZM21.9256 20.7264C21.9256 21.0198 21.6855 21.26 21.392 21.26C21.0985 21.26 20.8584 21.0198 20.8584 20.7264C20.8584 20.4329 21.0985 20.1928 21.392 20.1928C21.6887 20.1928 21.9256 20.4297 21.9256 20.7264Z" fill="#54565A"/>
    <path d="M28.3328 7.47759H25.1897L25.0323 6.98959H28.3328C28.4681 6.98959 28.5784 7.10034 28.5784 7.2352C28.5784 7.35816 28.4902 7.45868 28.373 7.47759H28.3328ZM17.0743 8.44719L23.0586 6.12842L23.9578 8.44719H17.0743ZM3.2768 6.99279H3.5953C3.55708 7.15375 3.54583 7.31997 3.56122 7.48399H3.2768C2.75074 7.48399 2.32195 7.85325 2.04303 8.20311C1.74528 8.57661 1.5102 9.05894 1.39574 9.52992L1.24553 10.148H1.8816H29.152C29.4231 10.148 29.644 10.3689 29.644 10.64V17.6748C29.5799 17.6692 29.5151 17.6664 29.4496 17.6664H20.72C18.9783 17.6664 17.5672 19.0774 17.5672 20.8192C17.5672 22.5609 18.9783 23.972 20.72 23.972H29.6408V30.4384C29.6408 30.7095 29.4199 30.9304 29.1488 30.9304H1.3152C1.04414 30.9304 0.8232 30.7095 0.8232 30.4384V10.64C0.8232 10.6156 0.825634 10.5943 0.830494 10.5725L0.849073 10.4889L0.838767 10.4038C0.828476 10.3189 0.8232 10.2302 0.8232 10.1408C0.8232 9.43628 1.10949 8.62829 1.58549 7.99933C2.06417 7.36683 2.67099 6.99279 3.2768 6.99279ZM5.54221 8.44719L5.15477 7.44956C5.15468 7.44931 5.15458 7.44907 5.15449 7.44883C5.10051 7.30708 5.16982 7.14695 5.31459 7.08978C5.31482 7.08969 5.31505 7.0896 5.31528 7.08951L20.8096 1.08436C20.8098 1.0843 20.81 1.08423 20.8101 1.08417C20.9533 1.02951 21.1158 1.10069 21.1726 1.24402C21.1727 1.2443 21.1728 1.24459 21.1729 1.24488L21.8334 2.95265L7.64735 8.44719H5.54221ZM21.9256 20.7264C21.9256 21.0198 21.6855 21.26 21.392 21.26C21.0985 21.26 20.8584 21.0198 20.8584 20.7264C20.8584 20.4329 21.0985 20.1928 21.392 20.1928C21.6887 20.1928 21.9256 20.4297 21.9256 20.7264Z" fill="#A8A8A8" style="mix-blend-mode:hard-light"/>
    <path d="M28.3328 7.47759H25.1897L25.0323 6.98959H28.3328C28.4681 6.98959 28.5784 7.10034 28.5784 7.2352C28.5784 7.35816 28.4902 7.45868 28.373 7.47759H28.3328ZM17.0743 8.44719L23.0586 6.12842L23.9578 8.44719H17.0743ZM3.2768 6.99279H3.5953C3.55708 7.15375 3.54583 7.31997 3.56122 7.48399H3.2768C2.75074 7.48399 2.32195 7.85325 2.04303 8.20311C1.74528 8.57661 1.5102 9.05894 1.39574 9.52992L1.24553 10.148H1.8816H29.152C29.4231 10.148 29.644 10.3689 29.644 10.64V17.6748C29.5799 17.6692 29.5151 17.6664 29.4496 17.6664H20.72C18.9783 17.6664 17.5672 19.0774 17.5672 20.8192C17.5672 22.5609 18.9783 23.972 20.72 23.972H29.6408V30.4384C29.6408 30.7095 29.4199 30.9304 29.1488 30.9304H1.3152C1.04414 30.9304 0.8232 30.7095 0.8232 30.4384V10.64C0.8232 10.6156 0.825634 10.5943 0.830494 10.5725L0.849073 10.4889L0.838767 10.4038C0.828476 10.3189 0.8232 10.2302 0.8232 10.1408C0.8232 9.43628 1.10949 8.62829 1.58549 7.99933C2.06417 7.36683 2.67099 6.99279 3.2768 6.99279ZM5.54221 8.44719L5.15477 7.44956C5.15468 7.44931 5.15458 7.44907 5.15449 7.44883C5.10051 7.30708 5.16982 7.14695 5.31459 7.08978C5.31482 7.08969 5.31505 7.0896 5.31528 7.08951L20.8096 1.08436C20.8098 1.0843 20.81 1.08423 20.8101 1.08417C20.9533 1.02951 21.1158 1.10069 21.1726 1.24402C21.1727 1.2443 21.1728 1.24459 21.1729 1.24488L21.8334 2.95265L7.64735 8.44719H5.54221ZM21.9256 20.7264C21.9256 21.0198 21.6855 21.26 21.392 21.26C21.0985 21.26 20.8584 21.0198 20.8584 20.7264C20.8584 20.4329 21.0985 20.1928 21.392 20.1928C21.6887 20.1928 21.9256 20.4297 21.9256 20.7264Z" fill="#7E7E7E" fill-opacity="0.5" style="mix-blend-mode:overlay"/>
    <path d="M28.3328 7.47759H25.1897L25.0323 6.98959H28.3328C28.4681 6.98959 28.5784 7.10034 28.5784 7.2352C28.5784 7.35816 28.4902 7.45868 28.373 7.47759H28.3328ZM17.0743 8.44719L23.0586 6.12842L23.9578 8.44719H17.0743ZM3.2768 6.99279H3.5953C3.55708 7.15375 3.54583 7.31997 3.56122 7.48399H3.2768C2.75074 7.48399 2.32195 7.85325 2.04303 8.20311C1.74528 8.57661 1.5102 9.05894 1.39574 9.52992L1.24553 10.148H1.8816H29.152C29.4231 10.148 29.644 10.3689 29.644 10.64V17.6748C29.5799 17.6692 29.5151 17.6664 29.4496 17.6664H20.72C18.9783 17.6664 17.5672 19.0774 17.5672 20.8192C17.5672 22.5609 18.9783 23.972 20.72 23.972H29.6408V30.4384C29.6408 30.7095 29.4199 30.9304 29.1488 30.9304H1.3152C1.04414 30.9304 0.8232 30.7095 0.8232 30.4384V10.64C0.8232 10.6156 0.825634 10.5943 0.830494 10.5725L0.849073 10.4889L0.838767 10.4038C0.828476 10.3189 0.8232 10.2302 0.8232 10.1408C0.8232 9.43628 1.10949 8.62829 1.58549 7.99933C2.06417 7.36683 2.67099 6.99279 3.2768 6.99279ZM5.54221 8.44719L5.15477 7.44956C5.15468 7.44931 5.15458 7.44907 5.15449 7.44883C5.10051 7.30708 5.16982 7.14695 5.31459 7.08978C5.31482 7.08969 5.31505 7.0896 5.31528 7.08951L20.8096 1.08436C20.8098 1.0843 20.81 1.08423 20.8101 1.08417C20.9533 1.02951 21.1158 1.10069 21.1726 1.24402C21.1727 1.2443 21.1728 1.24459 21.1729 1.24488L21.8334 2.95265L7.64735 8.44719H5.54221ZM21.9256 20.7264C21.9256 21.0198 21.6855 21.26 21.392 21.26C21.0985 21.26 20.8584 21.0198 20.8584 20.7264C20.8584 20.4329 21.0985 20.1928 21.392 20.1928C21.6887 20.1928 21.9256 20.4297 21.9256 20.7264Z" stroke="#54565A"/>
    <path d="M28.3328 7.47759H25.1897L25.0323 6.98959H28.3328C28.4681 6.98959 28.5784 7.10034 28.5784 7.2352C28.5784 7.35816 28.4902 7.45868 28.373 7.47759H28.3328ZM17.0743 8.44719L23.0586 6.12842L23.9578 8.44719H17.0743ZM3.2768 6.99279H3.5953C3.55708 7.15375 3.54583 7.31997 3.56122 7.48399H3.2768C2.75074 7.48399 2.32195 7.85325 2.04303 8.20311C1.74528 8.57661 1.5102 9.05894 1.39574 9.52992L1.24553 10.148H1.8816H29.152C29.4231 10.148 29.644 10.3689 29.644 10.64V17.6748C29.5799 17.6692 29.5151 17.6664 29.4496 17.6664H20.72C18.9783 17.6664 17.5672 19.0774 17.5672 20.8192C17.5672 22.5609 18.9783 23.972 20.72 23.972H29.6408V30.4384C29.6408 30.7095 29.4199 30.9304 29.1488 30.9304H1.3152C1.04414 30.9304 0.8232 30.7095 0.8232 30.4384V10.64C0.8232 10.6156 0.825634 10.5943 0.830494 10.5725L0.849073 10.4889L0.838767 10.4038C0.828476 10.3189 0.8232 10.2302 0.8232 10.1408C0.8232 9.43628 1.10949 8.62829 1.58549 7.99933C2.06417 7.36683 2.67099 6.99279 3.2768 6.99279ZM5.54221 8.44719L5.15477 7.44956C5.15468 7.44931 5.15458 7.44907 5.15449 7.44883C5.10051 7.30708 5.16982 7.14695 5.31459 7.08978C5.31482 7.08969 5.31505 7.0896 5.31528 7.08951L20.8096 1.08436C20.8098 1.0843 20.81 1.08423 20.8101 1.08417C20.9533 1.02951 21.1158 1.10069 21.1726 1.24402C21.1727 1.2443 21.1728 1.24459 21.1729 1.24488L21.8334 2.95265L7.64735 8.44719H5.54221ZM21.9256 20.7264C21.9256 21.0198 21.6855 21.26 21.392 21.26C21.0985 21.26 20.8584 21.0198 20.8584 20.7264C20.8584 20.4329 21.0985 20.1928 21.392 20.1928C21.6887 20.1928 21.9256 20.4297 21.9256 20.7264Z" stroke="#A8A8A8" style="mix-blend-mode:hard-light"/>
    <path d="M28.3328 7.47759H25.1897L25.0323 6.98959H28.3328C28.4681 6.98959 28.5784 7.10034 28.5784 7.2352C28.5784 7.35816 28.4902 7.45868 28.373 7.47759H28.3328ZM17.0743 8.44719L23.0586 6.12842L23.9578 8.44719H17.0743ZM3.2768 6.99279H3.5953C3.55708 7.15375 3.54583 7.31997 3.56122 7.48399H3.2768C2.75074 7.48399 2.32195 7.85325 2.04303 8.20311C1.74528 8.57661 1.5102 9.05894 1.39574 9.52992L1.24553 10.148H1.8816H29.152C29.4231 10.148 29.644 10.3689 29.644 10.64V17.6748C29.5799 17.6692 29.5151 17.6664 29.4496 17.6664H20.72C18.9783 17.6664 17.5672 19.0774 17.5672 20.8192C17.5672 22.5609 18.9783 23.972 20.72 23.972H29.6408V30.4384C29.6408 30.7095 29.4199 30.9304 29.1488 30.9304H1.3152C1.04414 30.9304 0.8232 30.7095 0.8232 30.4384V10.64C0.8232 10.6156 0.825634 10.5943 0.830494 10.5725L0.849073 10.4889L0.838767 10.4038C0.828476 10.3189 0.8232 10.2302 0.8232 10.1408C0.8232 9.43628 1.10949 8.62829 1.58549 7.99933C2.06417 7.36683 2.67099 6.99279 3.2768 6.99279ZM5.54221 8.44719L5.15477 7.44956C5.15468 7.44931 5.15458 7.44907 5.15449 7.44883C5.10051 7.30708 5.16982 7.14695 5.31459 7.08978C5.31482 7.08969 5.31505 7.0896 5.31528 7.08951L20.8096 1.08436C20.8098 1.0843 20.81 1.08423 20.8101 1.08417C20.9533 1.02951 21.1158 1.10069 21.1726 1.24402C21.1727 1.2443 21.1728 1.24459 21.1729 1.24488L21.8334 2.95265L7.64735 8.44719H5.54221ZM21.9256 20.7264C21.9256 21.0198 21.6855 21.26 21.392 21.26C21.0985 21.26 20.8584 21.0198 20.8584 20.7264C20.8584 20.4329 21.0985 20.1928 21.392 20.1928C21.6887 20.1928 21.9256 20.4297 21.9256 20.7264Z" stroke="#7E7E7E" stroke-opacity="0.5" style="mix-blend-mode:overlay"/>
</svg>
