<svg width="32" height="32" viewBox="0 0 32 32" fill="none" xmlns="http://www.w3.org/2000/svg">
    <path d="M16 2.66675C13.5246 2.66675 11.1507 3.65008 9.40034 5.40042C7.65 7.15076 6.66667 9.52473 6.66667 12.0001C6.66667 15.1734 8.25333 17.9601 10.6667 19.6534V22.6667C10.6667 23.0204 10.8071 23.3595 11.0572 23.6096C11.3072 23.8596 11.6464 24.0001 12 24.0001H20C20.3536 24.0001 20.6928 23.8596 20.9428 23.6096C21.1929 23.3595 21.3333 23.0204 21.3333 22.6667V19.6534C23.7467 17.9601 25.3333 15.1734 25.3333 12.0001C25.3333 9.52473 24.35 7.15076 22.5997 5.40042C20.8493 3.65008 18.4754 2.66675 16 2.66675ZM12 28.0001C12 28.3537 12.1405 28.6928 12.3905 28.9429C12.6406 29.1929 12.9797 29.3334 13.3333 29.3334H18.6667C19.0203 29.3334 19.3594 29.1929 19.6095 28.9429C19.8595 28.6928 20 28.3537 20 28.0001V26.6667H12V28.0001Z" fill="#8C8C8C"/>
    <path d="M16 2.66675C13.5246 2.66675 11.1507 3.65008 9.40034 5.40042C7.65 7.15076 6.66667 9.52473 6.66667 12.0001C6.66667 15.1734 8.25333 17.9601 10.6667 19.6534V22.6667C10.6667 23.0204 10.8071 23.3595 11.0572 23.6096C11.3072 23.8596 11.6464 24.0001 12 24.0001H20C20.3536 24.0001 20.6928 23.8596 20.9428 23.6096C21.1929 23.3595 21.3333 23.0204 21.3333 22.6667V19.6534C23.7467 17.9601 25.3333 15.1734 25.3333 12.0001C25.3333 9.52473 24.35 7.15076 22.5997 5.40042C20.8493 3.65008 18.4754 2.66675 16 2.66675ZM12 28.0001C12 28.3537 12.1405 28.6928 12.3905 28.9429C12.6406 29.1929 12.9797 29.3334 13.3333 29.3334H18.6667C19.0203 29.3334 19.3594 29.1929 19.6095 28.9429C19.8595 28.6928 20 28.3537 20 28.0001V26.6667H12V28.0001Z" fill="#2E2E2E" style="mix-blend-mode:hard-light"/>
    <path d="M16 2.66675C13.5246 2.66675 11.1507 3.65008 9.40034 5.40042C7.65 7.15076 6.66667 9.52473 6.66667 12.0001C6.66667 15.1734 8.25333 17.9601 10.6667 19.6534V22.6667C10.6667 23.0204 10.8071 23.3595 11.0572 23.6096C11.3072 23.8596 11.6464 24.0001 12 24.0001H20C20.3536 24.0001 20.6928 23.8596 20.9428 23.6096C21.1929 23.3595 21.3333 23.0204 21.3333 22.6667V19.6534C23.7467 17.9601 25.3333 15.1734 25.3333 12.0001C25.3333 9.52473 24.35 7.15076 22.5997 5.40042C20.8493 3.65008 18.4754 2.66675 16 2.66675ZM12 28.0001C12 28.3537 12.1405 28.6928 12.3905 28.9429C12.6406 29.1929 12.9797 29.3334 13.3333 29.3334H18.6667C19.0203 29.3334 19.3594 29.1929 19.6095 28.9429C19.8595 28.6928 20 28.3537 20 28.0001V26.6667H12V28.0001Z" fill="#3DB0E4" fill-opacity="0.2" style="mix-blend-mode:screen"/>
</svg>
