<svg width="32" height="32" viewBox="0 0 32 32" fill="none" xmlns="http://www.w3.org/2000/svg">
    <path d="M12 15.6667C11.558 15.6667 11.1341 15.8423 10.8215 16.1549C10.5089 16.4675 10.3333 16.8914 10.3333 17.3334C10.3333 17.7754 10.5089 18.1994 10.8215 18.5119C11.1341 18.8245 11.558 19.0001 12 19.0001C12.2189 19.0001 12.4356 18.957 12.6378 18.8732C12.84 18.7895 13.0237 18.6667 13.1785 18.5119C13.3333 18.3572 13.456 18.1734 13.5398 17.9712C13.6236 17.769 13.6667 17.5523 13.6667 17.3334C13.6667 17.1145 13.6236 16.8978 13.5398 16.6956C13.456 16.4934 13.3333 16.3097 13.1785 16.1549C13.0237 16.0001 12.84 15.8774 12.6378 15.7936C12.4356 15.7099 12.2189 15.6667 12 15.6667ZM20 15.6667C19.558 15.6667 19.1341 15.8423 18.8215 16.1549C18.5089 16.4675 18.3333 16.8914 18.3333 17.3334C18.3333 17.7754 18.5089 18.1994 18.8215 18.5119C19.1341 18.8245 19.558 19.0001 20 19.0001C20.442 19.0001 20.866 18.8245 21.1785 18.5119C21.4911 18.1994 21.6667 17.7754 21.6667 17.3334C21.6667 16.8914 21.4911 16.4675 21.1785 16.1549C20.866 15.8423 20.442 15.6667 20 15.6667ZM16 2.66675C14.249 2.66675 12.5152 3.01162 10.8976 3.68169C9.27988 4.35175 7.81003 5.33388 6.57191 6.57199C4.07143 9.07248 2.66667 12.4639 2.66667 16.0001C2.66667 19.5363 4.07143 22.9277 6.57191 25.4282C7.81003 26.6663 9.27988 27.6484 10.8976 28.3185C12.5152 28.9885 14.249 29.3334 16 29.3334C19.5362 29.3334 22.9276 27.9287 25.4281 25.4282C27.9286 22.9277 29.3333 19.5363 29.3333 16.0001C29.3333 14.2491 28.9885 12.5153 28.3184 10.8976C27.6483 9.27996 26.6662 7.81011 25.4281 6.57199C24.19 5.33388 22.7201 4.35175 21.1024 3.68169C19.4848 3.01162 17.751 2.66675 16 2.66675ZM16 26.6667C10.12 26.6667 5.33333 21.8801 5.33333 16.0001C5.33333 15.6134 5.33333 15.2267 5.4 14.8534C8.54667 13.4534 11.04 10.8801 12.3467 7.69341C14.76 11.1067 18.7333 13.3334 23.2267 13.3334C24.2667 13.3334 25.2667 13.2134 26.2267 12.9867C26.5067 13.9334 26.6667 14.9467 26.6667 16.0001C26.6667 21.8801 21.88 26.6667 16 26.6667Z" fill="#8C8C8C"/>
    <path d="M12 15.6667C11.558 15.6667 11.1341 15.8423 10.8215 16.1549C10.5089 16.4675 10.3333 16.8914 10.3333 17.3334C10.3333 17.7754 10.5089 18.1994 10.8215 18.5119C11.1341 18.8245 11.558 19.0001 12 19.0001C12.2189 19.0001 12.4356 18.957 12.6378 18.8732C12.84 18.7895 13.0237 18.6667 13.1785 18.5119C13.3333 18.3572 13.456 18.1734 13.5398 17.9712C13.6236 17.769 13.6667 17.5523 13.6667 17.3334C13.6667 17.1145 13.6236 16.8978 13.5398 16.6956C13.456 16.4934 13.3333 16.3097 13.1785 16.1549C13.0237 16.0001 12.84 15.8774 12.6378 15.7936C12.4356 15.7099 12.2189 15.6667 12 15.6667ZM20 15.6667C19.558 15.6667 19.1341 15.8423 18.8215 16.1549C18.5089 16.4675 18.3333 16.8914 18.3333 17.3334C18.3333 17.7754 18.5089 18.1994 18.8215 18.5119C19.1341 18.8245 19.558 19.0001 20 19.0001C20.442 19.0001 20.866 18.8245 21.1785 18.5119C21.4911 18.1994 21.6667 17.7754 21.6667 17.3334C21.6667 16.8914 21.4911 16.4675 21.1785 16.1549C20.866 15.8423 20.442 15.6667 20 15.6667ZM16 2.66675C14.249 2.66675 12.5152 3.01162 10.8976 3.68169C9.27988 4.35175 7.81003 5.33388 6.57191 6.57199C4.07143 9.07248 2.66667 12.4639 2.66667 16.0001C2.66667 19.5363 4.07143 22.9277 6.57191 25.4282C7.81003 26.6663 9.27988 27.6484 10.8976 28.3185C12.5152 28.9885 14.249 29.3334 16 29.3334C19.5362 29.3334 22.9276 27.9287 25.4281 25.4282C27.9286 22.9277 29.3333 19.5363 29.3333 16.0001C29.3333 14.2491 28.9885 12.5153 28.3184 10.8976C27.6483 9.27996 26.6662 7.81011 25.4281 6.57199C24.19 5.33388 22.7201 4.35175 21.1024 3.68169C19.4848 3.01162 17.751 2.66675 16 2.66675ZM16 26.6667C10.12 26.6667 5.33333 21.8801 5.33333 16.0001C5.33333 15.6134 5.33333 15.2267 5.4 14.8534C8.54667 13.4534 11.04 10.8801 12.3467 7.69341C14.76 11.1067 18.7333 13.3334 23.2267 13.3334C24.2667 13.3334 25.2667 13.2134 26.2267 12.9867C26.5067 13.9334 26.6667 14.9467 26.6667 16.0001C26.6667 21.8801 21.88 26.6667 16 26.6667Z" fill="#2E2E2E" style="mix-blend-mode:hard-light"/>
    <path d="M12 15.6667C11.558 15.6667 11.1341 15.8423 10.8215 16.1549C10.5089 16.4675 10.3333 16.8914 10.3333 17.3334C10.3333 17.7754 10.5089 18.1994 10.8215 18.5119C11.1341 18.8245 11.558 19.0001 12 19.0001C12.2189 19.0001 12.4356 18.957 12.6378 18.8732C12.84 18.7895 13.0237 18.6667 13.1785 18.5119C13.3333 18.3572 13.456 18.1734 13.5398 17.9712C13.6236 17.769 13.6667 17.5523 13.6667 17.3334C13.6667 17.1145 13.6236 16.8978 13.5398 16.6956C13.456 16.4934 13.3333 16.3097 13.1785 16.1549C13.0237 16.0001 12.84 15.8774 12.6378 15.7936C12.4356 15.7099 12.2189 15.6667 12 15.6667ZM20 15.6667C19.558 15.6667 19.1341 15.8423 18.8215 16.1549C18.5089 16.4675 18.3333 16.8914 18.3333 17.3334C18.3333 17.7754 18.5089 18.1994 18.8215 18.5119C19.1341 18.8245 19.558 19.0001 20 19.0001C20.442 19.0001 20.866 18.8245 21.1785 18.5119C21.4911 18.1994 21.6667 17.7754 21.6667 17.3334C21.6667 16.8914 21.4911 16.4675 21.1785 16.1549C20.866 15.8423 20.442 15.6667 20 15.6667ZM16 2.66675C14.249 2.66675 12.5152 3.01162 10.8976 3.68169C9.27988 4.35175 7.81003 5.33388 6.57191 6.57199C4.07143 9.07248 2.66667 12.4639 2.66667 16.0001C2.66667 19.5363 4.07143 22.9277 6.57191 25.4282C7.81003 26.6663 9.27988 27.6484 10.8976 28.3185C12.5152 28.9885 14.249 29.3334 16 29.3334C19.5362 29.3334 22.9276 27.9287 25.4281 25.4282C27.9286 22.9277 29.3333 19.5363 29.3333 16.0001C29.3333 14.2491 28.9885 12.5153 28.3184 10.8976C27.6483 9.27996 26.6662 7.81011 25.4281 6.57199C24.19 5.33388 22.7201 4.35175 21.1024 3.68169C19.4848 3.01162 17.751 2.66675 16 2.66675ZM16 26.6667C10.12 26.6667 5.33333 21.8801 5.33333 16.0001C5.33333 15.6134 5.33333 15.2267 5.4 14.8534C8.54667 13.4534 11.04 10.8801 12.3467 7.69341C14.76 11.1067 18.7333 13.3334 23.2267 13.3334C24.2667 13.3334 25.2667 13.2134 26.2267 12.9867C26.5067 13.9334 26.6667 14.9467 26.6667 16.0001C26.6667 21.8801 21.88 26.6667 16 26.6667Z" fill="#3DB0E4" fill-opacity="0.2" style="mix-blend-mode:screen"/>
</svg>
